%TF.GenerationSoftware,KiCad,Pcbnew,7.0.6*%
%TF.CreationDate,2023-11-16T23:01:38-06:00*%
%TF.ProjectId,ConnectorX,436f6e6e-6563-4746-9f72-582e6b696361,rev?*%
%TF.SameCoordinates,Original*%
%TF.FileFunction,Soldermask,Top*%
%TF.FilePolarity,Negative*%
%FSLAX46Y46*%
G04 Gerber Fmt 4.6, Leading zero omitted, Abs format (unit mm)*
G04 Created by KiCad (PCBNEW 7.0.6) date 2023-11-16 23:01:38*
%MOMM*%
%LPD*%
G01*
G04 APERTURE LIST*
G04 Aperture macros list*
%AMRoundRect*
0 Rectangle with rounded corners*
0 $1 Rounding radius*
0 $2 $3 $4 $5 $6 $7 $8 $9 X,Y pos of 4 corners*
0 Add a 4 corners polygon primitive as box body*
4,1,4,$2,$3,$4,$5,$6,$7,$8,$9,$2,$3,0*
0 Add four circle primitives for the rounded corners*
1,1,$1+$1,$2,$3*
1,1,$1+$1,$4,$5*
1,1,$1+$1,$6,$7*
1,1,$1+$1,$8,$9*
0 Add four rect primitives between the rounded corners*
20,1,$1+$1,$2,$3,$4,$5,0*
20,1,$1+$1,$4,$5,$6,$7,0*
20,1,$1+$1,$6,$7,$8,$9,0*
20,1,$1+$1,$8,$9,$2,$3,0*%
%AMFreePoly0*
4,1,28,0.178017,0.779942,0.347107,0.720775,0.498792,0.625465,0.625465,0.498792,0.720775,0.347107,0.779942,0.178017,0.800000,0.000000,0.779942,-0.178017,0.720775,-0.347107,0.625465,-0.498792,0.498792,-0.625465,0.347107,-0.720775,0.178017,-0.779942,0.000000,-0.800000,-2.200000,-0.800000,-2.205014,-0.794986,-2.244504,-0.794986,-2.324698,-0.756366,-2.380194,-0.686777,-2.400000,-0.600000,
-2.400000,0.600000,-2.380194,0.686777,-2.324698,0.756366,-2.244504,0.794986,-2.205014,0.794986,-2.200000,0.800000,0.000000,0.800000,0.178017,0.779942,0.178017,0.779942,$1*%
%AMFreePoly1*
4,1,28,0.605014,0.794986,0.644504,0.794986,0.724698,0.756366,0.780194,0.686777,0.800000,0.600000,0.800000,-0.600000,0.780194,-0.686777,0.724698,-0.756366,0.644504,-0.794986,0.605014,-0.794986,0.600000,-0.800000,0.000000,-0.800000,-0.178017,-0.779942,-0.347107,-0.720775,-0.498792,-0.625465,-0.625465,-0.498792,-0.720775,-0.347107,-0.779942,-0.178017,-0.800000,0.000000,-0.779942,0.178017,
-0.720775,0.347107,-0.625465,0.498792,-0.498792,0.625465,-0.347107,0.720775,-0.178017,0.779942,0.000000,0.800000,0.600000,0.800000,0.605014,0.794986,0.605014,0.794986,$1*%
%AMFreePoly2*
4,1,29,0.605014,0.794986,0.644504,0.794986,0.724698,0.756366,0.780194,0.686777,0.800000,0.600000,0.800000,-0.600000,0.780194,-0.686777,0.724698,-0.756366,0.644504,-0.794986,0.605014,-0.794986,0.600000,-0.800000,0.000000,-0.800000,-1.600000,-0.800000,-1.778017,-0.779942,-1.947107,-0.720775,-2.098792,-0.625465,-2.225465,-0.498792,-2.320775,-0.347107,-2.379942,-0.178017,-2.400000,0.000000,
-2.379942,0.178017,-2.320775,0.347107,-2.225465,0.498792,-2.098792,0.625465,-1.947107,0.720775,-1.778017,0.779942,-1.600000,0.800000,0.600000,0.800000,0.605014,0.794986,0.605014,0.794986,$1*%
%AMFreePoly3*
4,1,28,0.178017,0.779942,0.347107,0.720775,0.498792,0.625465,0.625465,0.498792,0.720775,0.347107,0.779942,0.178017,0.800000,0.000000,0.779942,-0.178017,0.720775,-0.347107,0.625465,-0.498792,0.498792,-0.625465,0.347107,-0.720775,0.178017,-0.779942,0.000000,-0.800000,-0.600000,-0.800000,-0.605014,-0.794986,-0.644504,-0.794986,-0.724698,-0.756366,-0.780194,-0.686777,-0.800000,-0.600000,
-0.800000,0.600000,-0.780194,0.686777,-0.724698,0.756366,-0.644504,0.794986,-0.605014,0.794986,-0.600000,0.800000,0.000000,0.800000,0.178017,0.779942,0.178017,0.779942,$1*%
%AMFreePoly4*
4,1,29,1.778017,0.779942,1.947107,0.720775,2.098792,0.625465,2.225465,0.498792,2.320775,0.347107,2.379942,0.178017,2.400000,0.000000,2.379942,-0.178017,2.320775,-0.347107,2.225465,-0.498792,2.098792,-0.625465,1.947107,-0.720775,1.778017,-0.779942,1.600000,-0.800000,0.000000,-0.800000,-0.600000,-0.800000,-0.605014,-0.794986,-0.644504,-0.794986,-0.724698,-0.756366,-0.780194,-0.686777,
-0.800000,-0.600000,-0.800000,0.600000,-0.780194,0.686777,-0.724698,0.756366,-0.644504,0.794986,-0.605014,0.794986,-0.600000,0.800000,1.600000,0.800000,1.778017,0.779942,1.778017,0.779942,$1*%
G04 Aperture macros list end*
%ADD10C,2.200000*%
%ADD11C,1.850000*%
%ADD12RoundRect,0.200000X0.600000X-0.600000X0.600000X0.600000X-0.600000X0.600000X-0.600000X-0.600000X0*%
%ADD13FreePoly0,90.000000*%
%ADD14C,1.600000*%
%ADD15RoundRect,0.800000X0.000000X-0.800000X0.000000X0.800000X0.000000X0.800000X0.000000X-0.800000X0*%
%ADD16FreePoly1,90.000000*%
%ADD17FreePoly2,90.000000*%
%ADD18FreePoly3,90.000000*%
%ADD19FreePoly4,90.000000*%
%ADD20R,1.500000X2.000000*%
%ADD21R,3.800000X2.000000*%
%ADD22C,2.500000*%
%ADD23R,1.120000X2.160000*%
%ADD24R,1.550000X1.300000*%
%ADD25RoundRect,0.200000X0.200000X0.275000X-0.200000X0.275000X-0.200000X-0.275000X0.200000X-0.275000X0*%
%ADD26RoundRect,0.200000X-0.200000X-0.275000X0.200000X-0.275000X0.200000X0.275000X-0.200000X0.275000X0*%
%ADD27RoundRect,0.150000X-0.150000X0.587500X-0.150000X-0.587500X0.150000X-0.587500X0.150000X0.587500X0*%
%ADD28R,1.700000X1.700000*%
%ADD29O,1.700000X1.700000*%
%ADD30RoundRect,0.250001X1.099999X-1.099999X1.099999X1.099999X-1.099999X1.099999X-1.099999X-1.099999X0*%
%ADD31C,2.700000*%
%ADD32R,3.500000X3.500000*%
%ADD33RoundRect,0.750000X0.750000X1.000000X-0.750000X1.000000X-0.750000X-1.000000X0.750000X-1.000000X0*%
%ADD34RoundRect,0.875000X0.875000X0.875000X-0.875000X0.875000X-0.875000X-0.875000X0.875000X-0.875000X0*%
%ADD35C,0.800000*%
%ADD36C,6.400000*%
%ADD37RoundRect,0.243750X-0.243750X-0.456250X0.243750X-0.456250X0.243750X0.456250X-0.243750X0.456250X0*%
%ADD38RoundRect,0.250000X1.000000X0.650000X-1.000000X0.650000X-1.000000X-0.650000X1.000000X-0.650000X0*%
%ADD39R,0.900000X1.500000*%
%ADD40RoundRect,0.250000X0.375000X0.625000X-0.375000X0.625000X-0.375000X-0.625000X0.375000X-0.625000X0*%
%ADD41RoundRect,0.250000X-0.375000X-0.625000X0.375000X-0.625000X0.375000X0.625000X-0.375000X0.625000X0*%
%ADD42RoundRect,0.250000X-0.850000X-0.350000X0.850000X-0.350000X0.850000X0.350000X-0.850000X0.350000X0*%
%ADD43RoundRect,0.249997X-2.950003X-2.650003X2.950003X-2.650003X2.950003X2.650003X-2.950003X2.650003X0*%
%ADD44RoundRect,0.225000X-0.225000X-0.250000X0.225000X-0.250000X0.225000X0.250000X-0.225000X0.250000X0*%
%ADD45RoundRect,0.225000X0.225000X0.250000X-0.225000X0.250000X-0.225000X-0.250000X0.225000X-0.250000X0*%
G04 APERTURE END LIST*
D10*
%TO.C,U2*%
X120000000Y-86725000D03*
D11*
X123030000Y-86425000D03*
X123030000Y-81575000D03*
D10*
X120000000Y-81275000D03*
D12*
X119870000Y-92890000D03*
D13*
X119870000Y-92890000D03*
D14*
X122410000Y-92890000D03*
D15*
X122410000Y-93690000D03*
D16*
X124950000Y-92890000D03*
D17*
X124950000Y-92890000D03*
D14*
X127490000Y-92890000D03*
D15*
X127490000Y-93690000D03*
D14*
X130030000Y-92890000D03*
D15*
X130030000Y-93690000D03*
D14*
X132570000Y-92890000D03*
D15*
X132570000Y-93690000D03*
D14*
X135110000Y-92890000D03*
D15*
X135110000Y-93690000D03*
D16*
X137650000Y-92890000D03*
D17*
X137650000Y-92890000D03*
D14*
X140190000Y-92890000D03*
D15*
X140190000Y-93690000D03*
D14*
X142730000Y-92890000D03*
D15*
X142730000Y-93690000D03*
D14*
X145270000Y-92890000D03*
D15*
X145270000Y-93690000D03*
D14*
X147810000Y-92890000D03*
D15*
X147810000Y-93690000D03*
D16*
X150350000Y-92890000D03*
D17*
X150350000Y-92890000D03*
D14*
X152890000Y-92890000D03*
D15*
X152890000Y-93690000D03*
D14*
X155430000Y-92890000D03*
D15*
X155430000Y-93690000D03*
D14*
X157970000Y-92890000D03*
D15*
X157970000Y-93690000D03*
D14*
X160510000Y-92890000D03*
D15*
X160510000Y-93690000D03*
D16*
X163050000Y-92890000D03*
D17*
X163050000Y-92890000D03*
D14*
X165590000Y-92890000D03*
D15*
X165590000Y-93690000D03*
D14*
X168130000Y-92890000D03*
D15*
X168130000Y-93690000D03*
D14*
X168130000Y-75110000D03*
D15*
X168130000Y-74310000D03*
D14*
X165590000Y-75110000D03*
D15*
X165590000Y-74310000D03*
D18*
X163050000Y-75110000D03*
D19*
X163050000Y-75110000D03*
D14*
X160510000Y-75110000D03*
D15*
X160510000Y-74310000D03*
D14*
X157970000Y-75110000D03*
D15*
X157970000Y-74310000D03*
D14*
X155430000Y-75110000D03*
D15*
X155430000Y-74310000D03*
D14*
X152890000Y-75110000D03*
D15*
X152890000Y-74310000D03*
D18*
X150350000Y-75110000D03*
D19*
X150350000Y-75110000D03*
D14*
X147810000Y-75110000D03*
D15*
X147810000Y-74310000D03*
D14*
X145270000Y-75110000D03*
D15*
X145270000Y-74310000D03*
D14*
X142730000Y-75110000D03*
D15*
X142730000Y-74310000D03*
D14*
X140190000Y-75110000D03*
D15*
X140190000Y-74310000D03*
D18*
X137650000Y-75110000D03*
D19*
X137650000Y-75110000D03*
D14*
X135110000Y-75110000D03*
D15*
X135110000Y-74310000D03*
D14*
X132570000Y-75110000D03*
D15*
X132570000Y-74310000D03*
D14*
X130030000Y-75110000D03*
D15*
X130030000Y-74310000D03*
D14*
X127490000Y-75110000D03*
D15*
X127490000Y-74310000D03*
D18*
X124950000Y-75110000D03*
D19*
X124950000Y-75110000D03*
D14*
X122410000Y-75110000D03*
D15*
X122410000Y-74310000D03*
D14*
X119870000Y-75110000D03*
D15*
X119870000Y-74310000D03*
%TD*%
D20*
%TO.C,U1*%
X160700000Y-60150000D03*
D21*
X163000000Y-53850000D03*
D20*
X163000000Y-60150000D03*
X165300000Y-60150000D03*
%TD*%
D22*
%TO.C,TP1*%
X177000000Y-69000000D03*
%TD*%
D23*
%TO.C,SW3*%
X148960000Y-66865000D03*
X151500000Y-66865000D03*
X154040000Y-66865000D03*
X154040000Y-60135000D03*
X151500000Y-60135000D03*
X148960000Y-60135000D03*
%TD*%
D24*
%TO.C,SW2*%
X120020000Y-61250000D03*
X127980000Y-61250000D03*
X120020000Y-65750000D03*
X127980000Y-65750000D03*
%TD*%
%TO.C,SW1*%
X134520000Y-61250000D03*
X142480000Y-61250000D03*
X134520000Y-65750000D03*
X142480000Y-65750000D03*
%TD*%
D25*
%TO.C,R4*%
X124325000Y-69500000D03*
X122675000Y-69500000D03*
%TD*%
D26*
%TO.C,R3*%
X137675000Y-104000000D03*
X139325000Y-104000000D03*
%TD*%
D25*
%TO.C,R2*%
X139325000Y-108500000D03*
X137675000Y-108500000D03*
%TD*%
%TO.C,R1*%
X139325000Y-113000000D03*
X137675000Y-113000000D03*
%TD*%
D27*
%TO.C,Q1*%
X134950000Y-100062500D03*
X133050000Y-100062500D03*
X134000000Y-101937500D03*
%TD*%
D28*
%TO.C,J11*%
X167620000Y-101000000D03*
D29*
X165080000Y-101000000D03*
X162540000Y-101000000D03*
X160000000Y-101000000D03*
X157460000Y-101000000D03*
X154920000Y-101000000D03*
%TD*%
D28*
%TO.C,J10*%
X157700000Y-111500000D03*
D29*
X160240000Y-111500000D03*
X162780000Y-111500000D03*
X165320000Y-111500000D03*
%TD*%
D28*
%TO.C,J9*%
X157700000Y-106500000D03*
D29*
X160240000Y-106500000D03*
X162780000Y-106500000D03*
X165320000Y-106500000D03*
%TD*%
D28*
%TO.C,J8*%
X177180000Y-128725000D03*
D29*
X177180000Y-131265000D03*
X174640000Y-128725000D03*
X174640000Y-131265000D03*
X172100000Y-128725000D03*
X172100000Y-131265000D03*
X169560000Y-128725000D03*
X169560000Y-131265000D03*
X167020000Y-128725000D03*
X167020000Y-131265000D03*
X164480000Y-128725000D03*
X164480000Y-131265000D03*
X161940000Y-128725000D03*
X161940000Y-131265000D03*
X159400000Y-128725000D03*
X159400000Y-131265000D03*
X156860000Y-128725000D03*
X156860000Y-131265000D03*
X154320000Y-128725000D03*
X154320000Y-131265000D03*
X151780000Y-128725000D03*
X151780000Y-131265000D03*
X149240000Y-128725000D03*
X149240000Y-131265000D03*
X146700000Y-128725000D03*
X146700000Y-131265000D03*
X144160000Y-128725000D03*
X144160000Y-131265000D03*
X141620000Y-128725000D03*
X141620000Y-131265000D03*
X139080000Y-128725000D03*
X139080000Y-131265000D03*
X136540000Y-128725000D03*
X136540000Y-131265000D03*
%TD*%
D28*
%TO.C,J7*%
X177150000Y-119460000D03*
D29*
X177150000Y-122000000D03*
X174610000Y-119460000D03*
X174610000Y-122000000D03*
X172070000Y-119460000D03*
X172070000Y-122000000D03*
X169530000Y-119460000D03*
X169530000Y-122000000D03*
X166990000Y-119460000D03*
X166990000Y-122000000D03*
X164450000Y-119460000D03*
X164450000Y-122000000D03*
X161910000Y-119460000D03*
X161910000Y-122000000D03*
X159370000Y-119460000D03*
X159370000Y-122000000D03*
X156830000Y-119460000D03*
X156830000Y-122000000D03*
X154290000Y-119460000D03*
X154290000Y-122000000D03*
X151750000Y-119460000D03*
X151750000Y-122000000D03*
X149210000Y-119460000D03*
X149210000Y-122000000D03*
X146670000Y-119460000D03*
X146670000Y-122000000D03*
X144130000Y-119460000D03*
X144130000Y-122000000D03*
X141590000Y-119460000D03*
X141590000Y-122000000D03*
X139050000Y-119460000D03*
X139050000Y-122000000D03*
X136510000Y-119460000D03*
X136510000Y-122000000D03*
%TD*%
D30*
%TO.C,J6*%
X188225000Y-109460000D03*
D31*
X188225000Y-105500000D03*
X188225000Y-101540000D03*
%TD*%
D30*
%TO.C,J5*%
X188225000Y-89960000D03*
D31*
X188225000Y-86000000D03*
X188225000Y-82040000D03*
%TD*%
D28*
%TO.C,J4*%
X121375000Y-128080000D03*
D29*
X121375000Y-125540000D03*
X121375000Y-123000000D03*
%TD*%
D28*
%TO.C,J3*%
X121575000Y-117525000D03*
D29*
X121575000Y-114985000D03*
X121575000Y-112445000D03*
%TD*%
D28*
%TO.C,J2*%
X121475000Y-107080000D03*
D29*
X121475000Y-104540000D03*
X121475000Y-102000000D03*
%TD*%
D32*
%TO.C,J1*%
X185000000Y-65000000D03*
D33*
X191000000Y-65000000D03*
D34*
X188000000Y-60300000D03*
%TD*%
D35*
%TO.C,H4*%
X128570000Y-128830000D03*
X130267056Y-132927056D03*
X130267056Y-129532944D03*
X130970000Y-131230000D03*
D36*
X128570000Y-131230000D03*
D35*
X128570000Y-133630000D03*
X126872944Y-129532944D03*
X126872944Y-132927056D03*
X126170000Y-131230000D03*
%TD*%
%TO.C,H3*%
X185200000Y-128830000D03*
X186897056Y-132927056D03*
X186897056Y-129532944D03*
X187600000Y-131230000D03*
D36*
X185200000Y-131230000D03*
D35*
X185200000Y-133630000D03*
X183502944Y-129532944D03*
X183502944Y-132927056D03*
X182800000Y-131230000D03*
%TD*%
%TO.C,H2*%
X181650000Y-49050000D03*
X183347056Y-53147056D03*
X183347056Y-49752944D03*
X184050000Y-51450000D03*
D36*
X181650000Y-51450000D03*
D35*
X181650000Y-53850000D03*
X179952944Y-49752944D03*
X179952944Y-53147056D03*
X179250000Y-51450000D03*
%TD*%
%TO.C,H1*%
X132000000Y-49050000D03*
X133697056Y-53147056D03*
X133697056Y-49752944D03*
X134400000Y-51450000D03*
D36*
X132000000Y-51450000D03*
D35*
X132000000Y-53850000D03*
X130302944Y-49752944D03*
X130302944Y-53147056D03*
X129600000Y-51450000D03*
%TD*%
D37*
%TO.C,D9*%
X127562500Y-69500000D03*
X129437500Y-69500000D03*
%TD*%
D38*
%TO.C,D8*%
X181500000Y-112500000D03*
X177500000Y-112500000D03*
%TD*%
%TO.C,D7*%
X181000000Y-93500000D03*
X177000000Y-93500000D03*
%TD*%
D39*
%TO.C,D6*%
X177700000Y-107900000D03*
X181000000Y-107900000D03*
X181000000Y-103000000D03*
X177700000Y-103000000D03*
%TD*%
%TO.C,D5*%
X177350000Y-88450000D03*
X180650000Y-88450000D03*
X180650000Y-83550000D03*
X177350000Y-83550000D03*
%TD*%
D40*
%TO.C,D4*%
X144900000Y-104000000D03*
X142100000Y-104000000D03*
%TD*%
D41*
%TO.C,D3*%
X142200000Y-108500000D03*
X145000000Y-108500000D03*
%TD*%
%TO.C,D2*%
X142100000Y-113000000D03*
X144900000Y-113000000D03*
%TD*%
D42*
%TO.C,D1*%
X170960000Y-58720000D03*
X170960000Y-63280000D03*
D43*
X177260000Y-61000000D03*
%TD*%
D44*
%TO.C,C4*%
X178725000Y-100500000D03*
X180275000Y-100500000D03*
%TD*%
%TO.C,C3*%
X178225000Y-81000000D03*
X179775000Y-81000000D03*
%TD*%
D45*
%TO.C,C2*%
X161775000Y-64085000D03*
X160225000Y-64085000D03*
%TD*%
%TO.C,C1*%
X165775000Y-64000000D03*
X164225000Y-64000000D03*
%TD*%
M02*
