M48
; DRILL file {KiCad 7.0.2} date Thu May 18 15:41:47 2023
; FORMAT={-:-/ absolute / inch / decimal}
; #@! TF.CreationDate,2023-05-18T15:41:47-05:00
; #@! TF.GenerationSoftware,Kicad,Pcbnew,7.0.2
; #@! TF.FileFunction,Plated,1,2,PTH
FMAT,2
INCH
; #@! TA.AperFunction,Plated,PTH,ViaDrill
T1C0.0157
; #@! TA.AperFunction,Plated,PTH,ComponentDrill
T2C0.0394
; #@! TA.AperFunction,Plated,PTH,ComponentDrill
T3C0.0433
; #@! TA.AperFunction,Plated,PTH,ComponentDrill
T4C0.0520
; #@! TA.AperFunction,Plated,PTH,ComponentDrill
T5C0.0598
; #@! TA.AperFunction,Plated,PTH,ComponentDrill
T6C0.1260
%
G90
G05
T1
X4.2311Y-4.2
X4.4001Y-3.9751
X4.545Y-4.155
X4.6Y-4.645
X4.67Y-3.9
X4.68Y-4.075
X4.685Y-3.615
X4.7298Y-4.2102
X4.7561Y-4.181
X4.785Y-3.665
X5.02Y-3.765
X5.035Y-4.335
X5.0689Y-3.375
X5.26Y-2.785
X5.33Y-3.145
X5.34Y-3.22
X5.345Y-3.045
X5.825Y-2.705
X5.914Y-2.86
X5.9144Y-2.5716
X6.02Y-2.88
X6.0463Y-2.703
X6.055Y-3.27
X6.06Y-4.47
X6.06Y-4.695
X6.0625Y-3.875
X6.085Y-3.17
X6.085Y-3.64
X6.12Y-4.38
X6.13Y-4.065
X6.155Y-3.9225
X6.2376Y-3.5
X6.2376Y-3.5507
X6.24Y-3.59
X6.25Y-4.5
X6.57Y-3.64
T2
X4.03Y-3.2054
X4.03Y-3.3054
X4.03Y-3.4054
X4.03Y-3.5054
X4.07Y-2.5696
X4.07Y-2.6696
X4.07Y-2.7696
X4.07Y-2.8696
X4.105Y-3.745
X4.105Y-3.845
X4.105Y-3.945
X4.105Y-4.045
X4.105Y-4.145
X4.105Y-4.245
X4.105Y-4.445
X4.105Y-4.545
X4.105Y-4.645
X4.105Y-4.745
X4.105Y-4.845
X4.105Y-4.945
X4.21Y-3.2054
X4.21Y-3.3054
X4.21Y-3.4054
X4.21Y-3.5054
X4.36Y-4.8087
X4.36Y-4.9087
X4.3602Y-5.0735
X4.3602Y-5.1735
X4.395Y-3.2054
X4.395Y-3.3054
X4.395Y-3.4054
X4.395Y-3.5054
X4.41Y-4.415
X4.46Y-4.8087
X4.46Y-4.9087
X4.4602Y-5.0735
X4.4602Y-5.1735
X4.51Y-4.415
X4.56Y-4.8087
X4.56Y-4.9087
X4.5602Y-5.0735
X4.5602Y-5.1735
X4.575Y-3.205
X4.575Y-3.305
X4.575Y-3.405
X4.575Y-3.505
X4.66Y-4.8087
X4.66Y-4.9087
X4.6602Y-5.0735
X4.6602Y-5.1735
X4.76Y-4.8087
X4.76Y-4.9087
X4.7602Y-5.0735
X4.7602Y-5.1735
X4.86Y-4.8087
X4.86Y-4.9087
X4.8602Y-5.0735
X4.8602Y-5.1735
X4.93Y-2.515
X4.93Y-2.615
X4.93Y-2.715
X4.93Y-2.815
X4.93Y-2.915
X4.93Y-3.015
X4.93Y-3.115
X4.93Y-3.215
X4.93Y-3.315
X4.93Y-3.415
X4.93Y-3.515
X4.93Y-3.615
X4.93Y-3.715
X4.93Y-3.815
X4.93Y-3.915
X4.93Y-4.015
X4.93Y-4.115
X4.93Y-4.215
X4.93Y-4.315
X4.93Y-4.415
X4.96Y-4.8087
X4.96Y-4.9087
X4.9602Y-5.0735
X4.9602Y-5.1735
X5.06Y-4.8087
X5.06Y-4.9087
X5.0602Y-5.0735
X5.0602Y-5.1735
X5.16Y-4.8087
X5.16Y-4.9087
X5.1602Y-5.0735
X5.1602Y-5.1735
X5.26Y-4.8087
X5.26Y-4.9087
X5.2602Y-5.0735
X5.2602Y-5.1735
X5.36Y-4.8087
X5.36Y-4.9087
X5.3602Y-5.0735
X5.3602Y-5.1735
X5.46Y-4.8087
X5.46Y-4.9087
X5.4602Y-5.0735
X5.4602Y-5.1735
X5.56Y-4.8087
X5.56Y-4.9087
X5.5602Y-5.0735
X5.5602Y-5.1735
X5.63Y-2.515
X5.63Y-2.615
X5.63Y-2.715
X5.63Y-2.815
X5.63Y-2.915
X5.63Y-3.015
X5.63Y-3.115
X5.63Y-3.215
X5.63Y-3.315
X5.63Y-3.415
X5.63Y-3.515
X5.63Y-3.615
X5.63Y-3.715
X5.63Y-3.815
X5.63Y-3.915
X5.63Y-4.015
X5.63Y-4.115
X5.63Y-4.215
X5.63Y-4.315
X5.63Y-4.415
X5.66Y-4.8087
X5.66Y-4.9087
X5.6602Y-5.0735
X5.6602Y-5.1735
X5.76Y-4.8087
X5.76Y-4.9087
X5.7602Y-5.0735
X5.7602Y-5.1735
X5.86Y-4.8087
X5.86Y-4.9087
X5.8602Y-5.0735
X5.8602Y-5.1735
X5.96Y-4.8087
X5.96Y-4.9087
X5.9602Y-5.0735
X5.9602Y-5.1735
X6.2Y-3.765
X6.3Y-3.765
X6.4Y-3.765
X6.5144Y-4.6
X6.5144Y-4.75
X6.5144Y-4.9
X6.5144Y-5.05
X6.5144Y-5.35
X6.515Y-5.2
X6.555Y-3.765
X6.6144Y-4.6
X6.6144Y-4.75
X6.6144Y-4.9
X6.6144Y-5.05
X6.6144Y-5.35
X6.615Y-5.2
X6.655Y-3.765
X6.7144Y-4.6
X6.7144Y-4.75
X6.7144Y-4.9
X6.7144Y-5.05
X6.7144Y-5.35
X6.715Y-5.2
X6.755Y-3.765
T3
X4.332Y-3.8714
X4.332Y-4.0486
X4.588Y-3.8714
X4.588Y-4.0486
T4
X6.5746Y-3.9965
X6.5746Y-4.1934
X6.5746Y-4.3902
X6.58Y-3.1313
X6.58Y-3.3281
X6.58Y-3.525
T5
X4.39Y-2.67
X4.59Y-2.67
T6
X4.105Y-5.285
X4.29Y-2.975
X5.865Y-3.065
X6.26Y-4.97
T0
M30
