%TF.GenerationSoftware,KiCad,Pcbnew,7.0.2*%
%TF.CreationDate,2023-05-18T15:41:40-05:00*%
%TF.ProjectId,FRC_5690_Common_PCB,4652435f-3536-4393-905f-436f6d6d6f6e,rev?*%
%TF.SameCoordinates,Original*%
%TF.FileFunction,Soldermask,Bot*%
%TF.FilePolarity,Negative*%
%FSLAX46Y46*%
G04 Gerber Fmt 4.6, Leading zero omitted, Abs format (unit mm)*
G04 Created by KiCad (PCBNEW 7.0.2) date 2023-05-18 15:41:40*
%MOMM*%
%LPD*%
G01*
G04 APERTURE LIST*
G04 Aperture macros list*
%AMRoundRect*
0 Rectangle with rounded corners*
0 $1 Rounding radius*
0 $2 $3 $4 $5 $6 $7 $8 $9 X,Y pos of 4 corners*
0 Add a 4 corners polygon primitive as box body*
4,1,4,$2,$3,$4,$5,$6,$7,$8,$9,$2,$3,0*
0 Add four circle primitives for the rounded corners*
1,1,$1+$1,$2,$3*
1,1,$1+$1,$4,$5*
1,1,$1+$1,$6,$7*
1,1,$1+$1,$8,$9*
0 Add four rect primitives between the rounded corners*
20,1,$1+$1,$2,$3,$4,$5,0*
20,1,$1+$1,$4,$5,$6,$7,0*
20,1,$1+$1,$6,$7,$8,$9,0*
20,1,$1+$1,$8,$9,$2,$3,0*%
%AMRotRect*
0 Rectangle, with rotation*
0 The origin of the aperture is its center*
0 $1 length*
0 $2 width*
0 $3 Rotation angle, in degrees counterclockwise*
0 Add horizontal line*
21,1,$1,$2,0,0,$3*%
%AMFreePoly0*
4,1,28,0.605014,0.794986,0.644504,0.794986,0.724698,0.756366,0.780194,0.686777,0.800000,0.600000,0.800000,-0.600000,0.780194,-0.686777,0.724698,-0.756366,0.644504,-0.794986,0.605014,-0.794986,0.600000,-0.800000,0.000000,-0.800000,-0.178017,-0.779942,-0.347107,-0.720775,-0.498792,-0.625465,-0.625465,-0.498792,-0.720775,-0.347107,-0.779942,-0.178017,-0.800000,0.000000,-0.779942,0.178017,
-0.720775,0.347107,-0.625465,0.498792,-0.498792,0.625465,-0.347107,0.720775,-0.178017,0.779942,0.000000,0.800000,0.600000,0.800000,0.605014,0.794986,0.605014,0.794986,$1*%
%AMFreePoly1*
4,1,28,0.178017,0.779942,0.347107,0.720775,0.498792,0.625465,0.625465,0.498792,0.720775,0.347107,0.779942,0.178017,0.800000,0.000000,0.779942,-0.178017,0.720775,-0.347107,0.625465,-0.498792,0.498792,-0.625465,0.347107,-0.720775,0.178017,-0.779942,0.000000,-0.800000,-0.600000,-0.800000,-0.605014,-0.794986,-0.644504,-0.794986,-0.724698,-0.756366,-0.780194,-0.686777,-0.800000,-0.600000,
-0.800000,0.600000,-0.780194,0.686777,-0.724698,0.756366,-0.644504,0.794986,-0.605014,0.794986,-0.600000,0.800000,0.000000,0.800000,0.178017,0.779942,0.178017,0.779942,$1*%
G04 Aperture macros list end*
%ADD10R,1.700000X1.700000*%
%ADD11O,1.700000X1.700000*%
%ADD12R,3.960000X1.980000*%
%ADD13O,3.960000X1.980000*%
%ADD14C,5.600000*%
%ADD15R,3.000000X3.000000*%
%ADD16C,3.000000*%
%ADD17C,2.200000*%
%ADD18C,1.850000*%
%ADD19RoundRect,0.200000X-0.600000X-0.600000X0.600000X-0.600000X0.600000X0.600000X-0.600000X0.600000X0*%
%ADD20C,1.600000*%
%ADD21FreePoly0,0.000000*%
%ADD22FreePoly1,0.000000*%
%ADD23C,2.000000*%
%ADD24RoundRect,0.200000X-0.200000X-0.275000X0.200000X-0.275000X0.200000X0.275000X-0.200000X0.275000X0*%
%ADD25R,1.400000X0.700000*%
%ADD26R,1.200000X0.700000*%
%ADD27R,0.800000X1.200000*%
%ADD28R,1.900000X1.500000*%
%ADD29RotRect,0.200000X0.200000X225.000000*%
%ADD30R,0.500000X0.500000*%
%ADD31R,1.400000X1.000000*%
%ADD32R,3.200000X1.200000*%
%ADD33R,1.200000X1.200000*%
%ADD34RoundRect,0.225000X0.225000X0.250000X-0.225000X0.250000X-0.225000X-0.250000X0.225000X-0.250000X0*%
%ADD35RoundRect,0.150000X0.825000X0.150000X-0.825000X0.150000X-0.825000X-0.150000X0.825000X-0.150000X0*%
G04 APERTURE END LIST*
D10*
%TO.C,J16*%
X166497000Y-95631000D03*
D11*
X169037000Y-95631000D03*
X171577000Y-95631000D03*
%TD*%
D10*
%TO.C,J4*%
X111633000Y-81417000D03*
D11*
X111633000Y-83957000D03*
X111633000Y-86497000D03*
X111633000Y-89037000D03*
%TD*%
D10*
%TO.C,J9*%
X104267000Y-107823000D03*
D11*
X104267000Y-105283000D03*
X104267000Y-102743000D03*
X104267000Y-100203000D03*
X104267000Y-97663000D03*
X104267000Y-95123000D03*
%TD*%
D12*
%TO.C,J11*%
X166995000Y-101512000D03*
D13*
X166995000Y-106512000D03*
X166995000Y-111512000D03*
%TD*%
D14*
%TO.C,H2*%
X108966000Y-75565000D03*
%TD*%
D10*
%TO.C,J21*%
X170561000Y-132080000D03*
D11*
X168021000Y-132080000D03*
X165481000Y-132080000D03*
%TD*%
D10*
%TO.C,J18*%
X170546000Y-120650000D03*
D11*
X168006000Y-120650000D03*
X165466000Y-120650000D03*
%TD*%
D14*
%TO.C,H3*%
X159004000Y-126238000D03*
%TD*%
D10*
%TO.C,J19*%
X170546000Y-124460000D03*
D11*
X168006000Y-124460000D03*
X165466000Y-124460000D03*
%TD*%
D10*
%TO.C,J15*%
X114554000Y-112141000D03*
D11*
X112014000Y-112141000D03*
%TD*%
D10*
%TO.C,J20*%
X170546000Y-128270000D03*
D11*
X168006000Y-128270000D03*
X165466000Y-128270000D03*
%TD*%
D15*
%TO.C,J1*%
X111506000Y-67818000D03*
D16*
X116586000Y-67818000D03*
%TD*%
D17*
%TO.C,U1*%
X131387000Y-64011000D03*
D18*
X131687000Y-67041000D03*
X136537000Y-67041000D03*
D17*
X136837000Y-64011000D03*
D19*
X125222000Y-63881000D03*
D20*
X125222000Y-66421000D03*
D21*
X125222000Y-68961000D03*
D20*
X125222000Y-71501000D03*
X125222000Y-74041000D03*
X125222000Y-76581000D03*
X125222000Y-79121000D03*
D21*
X125222000Y-81661000D03*
D20*
X125222000Y-84201000D03*
X125222000Y-86741000D03*
X125222000Y-89281000D03*
X125222000Y-91821000D03*
D21*
X125222000Y-94361000D03*
D20*
X125222000Y-96901000D03*
X125222000Y-99441000D03*
X125222000Y-101981000D03*
X125222000Y-104521000D03*
D21*
X125222000Y-107061000D03*
D20*
X125222000Y-109601000D03*
X125222000Y-112141000D03*
X143002000Y-112141000D03*
X143002000Y-109601000D03*
D22*
X143002000Y-107061000D03*
D20*
X143002000Y-104521000D03*
X143002000Y-101981000D03*
X143002000Y-99441000D03*
X143002000Y-96901000D03*
D22*
X143002000Y-94361000D03*
D20*
X143002000Y-91821000D03*
X143002000Y-89281000D03*
X143002000Y-86741000D03*
X143002000Y-84201000D03*
D22*
X143002000Y-81661000D03*
D20*
X143002000Y-79121000D03*
X143002000Y-76581000D03*
X143002000Y-74041000D03*
X143002000Y-71501000D03*
D22*
X143002000Y-68961000D03*
D20*
X143002000Y-66421000D03*
X143002000Y-63881000D03*
%TD*%
D10*
%TO.C,J13*%
X162560000Y-95631000D03*
D11*
X160020000Y-95631000D03*
X157480000Y-95631000D03*
%TD*%
D14*
%TO.C,H1*%
X148971000Y-77851000D03*
%TD*%
D10*
%TO.C,J2*%
X102362000Y-81417000D03*
D11*
X102362000Y-83957000D03*
X102362000Y-86497000D03*
X102362000Y-89037000D03*
%TD*%
D10*
%TO.C,J10*%
X103378000Y-72888000D03*
D11*
X103378000Y-70348000D03*
X103378000Y-67808000D03*
X103378000Y-65268000D03*
%TD*%
D23*
%TO.C,SW2*%
X110034000Y-98334000D03*
X116534000Y-98334000D03*
X110034000Y-102834000D03*
X116534000Y-102834000D03*
%TD*%
D10*
%TO.C,J6*%
X151388999Y-128866863D03*
D11*
X151388999Y-131406863D03*
X148848999Y-128866863D03*
X148848999Y-131406863D03*
X146308999Y-128866863D03*
X146308999Y-131406863D03*
X143768999Y-128866863D03*
X143768999Y-131406863D03*
X141228999Y-128866863D03*
X141228999Y-131406863D03*
X138688999Y-128866863D03*
X138688999Y-131406863D03*
X136148999Y-128866863D03*
X136148999Y-131406863D03*
X133608999Y-128866863D03*
X133608999Y-131406863D03*
X131068999Y-128866863D03*
X131068999Y-131406863D03*
X128528999Y-128866863D03*
X128528999Y-131406863D03*
X125988999Y-128866863D03*
X125988999Y-131406863D03*
X123448999Y-128866863D03*
X123448999Y-131406863D03*
X120908999Y-128866863D03*
X120908999Y-131406863D03*
X118368999Y-128866863D03*
X118368999Y-131406863D03*
X115828999Y-128866863D03*
X115828999Y-131406863D03*
X113288999Y-128866863D03*
X113288999Y-131406863D03*
X110748999Y-128866863D03*
X110748999Y-131406863D03*
%TD*%
D14*
%TO.C,H4*%
X104267000Y-134239000D03*
%TD*%
D12*
%TO.C,J12*%
X167132000Y-89535000D03*
D13*
X167132000Y-84535000D03*
X167132000Y-79535000D03*
%TD*%
D10*
%TO.C,J7*%
X116205000Y-81407000D03*
D11*
X116205000Y-83947000D03*
X116205000Y-86487000D03*
X116205000Y-89027000D03*
%TD*%
D10*
%TO.C,J17*%
X170546000Y-116840000D03*
D11*
X168006000Y-116840000D03*
X165466000Y-116840000D03*
%TD*%
D10*
%TO.C,J22*%
X170546000Y-135890000D03*
D11*
X168006000Y-135890000D03*
X165466000Y-135890000D03*
%TD*%
D10*
%TO.C,J8*%
X104267000Y-125603000D03*
D11*
X104267000Y-123063000D03*
X104267000Y-120523000D03*
X104267000Y-117983000D03*
X104267000Y-115443000D03*
X104267000Y-112903000D03*
%TD*%
D10*
%TO.C,J3*%
X106934000Y-81417000D03*
D11*
X106934000Y-83957000D03*
X106934000Y-86497000D03*
X106934000Y-89037000D03*
%TD*%
D24*
%TO.C,R5*%
X153099000Y-62738000D03*
X154749000Y-62738000D03*
%TD*%
D25*
%TO.C,J14*%
X157169000Y-64919000D03*
X157169000Y-66019000D03*
X157169000Y-67119000D03*
X157169000Y-68219000D03*
X157169000Y-69319000D03*
X157169000Y-70419000D03*
X157169000Y-71519000D03*
X157169000Y-72619000D03*
D26*
X157069000Y-73569000D03*
D27*
X167569000Y-74419000D03*
D28*
X172169000Y-61119000D03*
D29*
X172619000Y-61869000D03*
D30*
X172869000Y-62119000D03*
D31*
X157169000Y-63019000D03*
D32*
X171169000Y-74419000D03*
D33*
X161369000Y-74419000D03*
%TD*%
D34*
%TO.C,C3*%
X150635000Y-62738000D03*
X149085000Y-62738000D03*
%TD*%
D10*
%TO.C,J5*%
X151384000Y-122140862D03*
D11*
X151384000Y-124680862D03*
X148844000Y-122140862D03*
X148844000Y-124680862D03*
X146304000Y-122140862D03*
X146304000Y-124680862D03*
X143764000Y-122140862D03*
X143764000Y-124680862D03*
X141224000Y-122140862D03*
X141224000Y-124680862D03*
X138684000Y-122140862D03*
X138684000Y-124680862D03*
X136144000Y-122140862D03*
X136144000Y-124680862D03*
X133604000Y-122140862D03*
X133604000Y-124680862D03*
X131064000Y-122140862D03*
X131064000Y-124680862D03*
X128524000Y-122140862D03*
X128524000Y-124680862D03*
X125984000Y-122140862D03*
X125984000Y-124680862D03*
X123444000Y-122140862D03*
X123444000Y-124680862D03*
X120904000Y-122140862D03*
X120904000Y-124680862D03*
X118364000Y-122140862D03*
X118364000Y-124680862D03*
X115824000Y-122140862D03*
X115824000Y-124680862D03*
X113284000Y-122140862D03*
X113284000Y-124680862D03*
X110744000Y-122140862D03*
X110744000Y-124680862D03*
%TD*%
D35*
%TO.C,U3*%
X119823000Y-73787000D03*
X119823000Y-75057000D03*
X119823000Y-76327000D03*
X119823000Y-77597000D03*
X114873000Y-77597000D03*
X114873000Y-76327000D03*
X114873000Y-75057000D03*
X114873000Y-73787000D03*
%TD*%
M02*
