%TF.GenerationSoftware,KiCad,Pcbnew,7.0.2*%
%TF.CreationDate,2023-05-18T15:41:40-05:00*%
%TF.ProjectId,FRC_5690_Common_PCB,4652435f-3536-4393-905f-436f6d6d6f6e,rev?*%
%TF.SameCoordinates,Original*%
%TF.FileFunction,Legend,Top*%
%TF.FilePolarity,Positive*%
%FSLAX46Y46*%
G04 Gerber Fmt 4.6, Leading zero omitted, Abs format (unit mm)*
G04 Created by KiCad (PCBNEW 7.0.2) date 2023-05-18 15:41:40*
%MOMM*%
%LPD*%
G01*
G04 APERTURE LIST*
%ADD10C,0.150000*%
%ADD11C,0.095250*%
%ADD12C,0.101600*%
%ADD13C,0.076200*%
%ADD14C,0.120000*%
G04 APERTURE END LIST*
D10*
X116506714Y-63225380D02*
X116982904Y-63225380D01*
X116982904Y-63225380D02*
X117030523Y-62749190D01*
X117030523Y-62749190D02*
X116982904Y-62796809D01*
X116982904Y-62796809D02*
X116887666Y-62844428D01*
X116887666Y-62844428D02*
X116649571Y-62844428D01*
X116649571Y-62844428D02*
X116554333Y-62796809D01*
X116554333Y-62796809D02*
X116506714Y-62749190D01*
X116506714Y-62749190D02*
X116459095Y-62653952D01*
X116459095Y-62653952D02*
X116459095Y-62415857D01*
X116459095Y-62415857D02*
X116506714Y-62320619D01*
X116506714Y-62320619D02*
X116554333Y-62273000D01*
X116554333Y-62273000D02*
X116649571Y-62225380D01*
X116649571Y-62225380D02*
X116887666Y-62225380D01*
X116887666Y-62225380D02*
X116982904Y-62273000D01*
X116982904Y-62273000D02*
X117030523Y-62320619D01*
X116173380Y-63225380D02*
X115840047Y-62225380D01*
X115840047Y-62225380D02*
X115506714Y-63225380D01*
X113125761Y-63177761D02*
X113220999Y-63225380D01*
X113220999Y-63225380D02*
X113363856Y-63225380D01*
X113363856Y-63225380D02*
X113506713Y-63177761D01*
X113506713Y-63177761D02*
X113601951Y-63082523D01*
X113601951Y-63082523D02*
X113649570Y-62987285D01*
X113649570Y-62987285D02*
X113697189Y-62796809D01*
X113697189Y-62796809D02*
X113697189Y-62653952D01*
X113697189Y-62653952D02*
X113649570Y-62463476D01*
X113649570Y-62463476D02*
X113601951Y-62368238D01*
X113601951Y-62368238D02*
X113506713Y-62273000D01*
X113506713Y-62273000D02*
X113363856Y-62225380D01*
X113363856Y-62225380D02*
X113268618Y-62225380D01*
X113268618Y-62225380D02*
X113125761Y-62273000D01*
X113125761Y-62273000D02*
X113078142Y-62320619D01*
X113078142Y-62320619D02*
X113078142Y-62653952D01*
X113078142Y-62653952D02*
X113268618Y-62653952D01*
X112649570Y-62225380D02*
X112649570Y-63225380D01*
X112649570Y-63225380D02*
X112078142Y-62225380D01*
X112078142Y-62225380D02*
X112078142Y-63225380D01*
X111601951Y-62225380D02*
X111601951Y-63225380D01*
X111601951Y-63225380D02*
X111363856Y-63225380D01*
X111363856Y-63225380D02*
X111220999Y-63177761D01*
X111220999Y-63177761D02*
X111125761Y-63082523D01*
X111125761Y-63082523D02*
X111078142Y-62987285D01*
X111078142Y-62987285D02*
X111030523Y-62796809D01*
X111030523Y-62796809D02*
X111030523Y-62653952D01*
X111030523Y-62653952D02*
X111078142Y-62463476D01*
X111078142Y-62463476D02*
X111125761Y-62368238D01*
X111125761Y-62368238D02*
X111220999Y-62273000D01*
X111220999Y-62273000D02*
X111363856Y-62225380D01*
X111363856Y-62225380D02*
X111601951Y-62225380D01*
D11*
X165456809Y-133683526D02*
X165396333Y-133653288D01*
X165396333Y-133653288D02*
X165305619Y-133653288D01*
X165305619Y-133653288D02*
X165214904Y-133683526D01*
X165214904Y-133683526D02*
X165154428Y-133744002D01*
X165154428Y-133744002D02*
X165124190Y-133804478D01*
X165124190Y-133804478D02*
X165093952Y-133925430D01*
X165093952Y-133925430D02*
X165093952Y-134016145D01*
X165093952Y-134016145D02*
X165124190Y-134137097D01*
X165124190Y-134137097D02*
X165154428Y-134197573D01*
X165154428Y-134197573D02*
X165214904Y-134258050D01*
X165214904Y-134258050D02*
X165305619Y-134288288D01*
X165305619Y-134288288D02*
X165366095Y-134288288D01*
X165366095Y-134288288D02*
X165456809Y-134258050D01*
X165456809Y-134258050D02*
X165487047Y-134227811D01*
X165487047Y-134227811D02*
X165487047Y-134016145D01*
X165487047Y-134016145D02*
X165366095Y-134016145D01*
X165759190Y-134288288D02*
X165759190Y-133653288D01*
X165759190Y-133653288D02*
X166122047Y-134288288D01*
X166122047Y-134288288D02*
X166122047Y-133653288D01*
X166424428Y-134288288D02*
X166424428Y-133653288D01*
X166424428Y-133653288D02*
X166575618Y-133653288D01*
X166575618Y-133653288D02*
X166666333Y-133683526D01*
X166666333Y-133683526D02*
X166726809Y-133744002D01*
X166726809Y-133744002D02*
X166757047Y-133804478D01*
X166757047Y-133804478D02*
X166787285Y-133925430D01*
X166787285Y-133925430D02*
X166787285Y-134016145D01*
X166787285Y-134016145D02*
X166757047Y-134137097D01*
X166757047Y-134137097D02*
X166726809Y-134197573D01*
X166726809Y-134197573D02*
X166666333Y-134258050D01*
X166666333Y-134258050D02*
X166575618Y-134288288D01*
X166575618Y-134288288D02*
X166424428Y-134288288D01*
X167543238Y-134288288D02*
X167543238Y-133653288D01*
X167543238Y-133653288D02*
X167785143Y-133653288D01*
X167785143Y-133653288D02*
X167845619Y-133683526D01*
X167845619Y-133683526D02*
X167875857Y-133713764D01*
X167875857Y-133713764D02*
X167906095Y-133774240D01*
X167906095Y-133774240D02*
X167906095Y-133864954D01*
X167906095Y-133864954D02*
X167875857Y-133925430D01*
X167875857Y-133925430D02*
X167845619Y-133955669D01*
X167845619Y-133955669D02*
X167785143Y-133985907D01*
X167785143Y-133985907D02*
X167543238Y-133985907D01*
X168450381Y-133864954D02*
X168450381Y-134288288D01*
X168299190Y-133623050D02*
X168148000Y-134076621D01*
X168148000Y-134076621D02*
X168541095Y-134076621D01*
X169206334Y-133653288D02*
X169599429Y-133653288D01*
X169599429Y-133653288D02*
X169387762Y-133895192D01*
X169387762Y-133895192D02*
X169478477Y-133895192D01*
X169478477Y-133895192D02*
X169538953Y-133925430D01*
X169538953Y-133925430D02*
X169569191Y-133955669D01*
X169569191Y-133955669D02*
X169599429Y-134016145D01*
X169599429Y-134016145D02*
X169599429Y-134167335D01*
X169599429Y-134167335D02*
X169569191Y-134227811D01*
X169569191Y-134227811D02*
X169538953Y-134258050D01*
X169538953Y-134258050D02*
X169478477Y-134288288D01*
X169478477Y-134288288D02*
X169297048Y-134288288D01*
X169297048Y-134288288D02*
X169236572Y-134258050D01*
X169236572Y-134258050D02*
X169206334Y-134227811D01*
X169871572Y-134227811D02*
X169901810Y-134258050D01*
X169901810Y-134258050D02*
X169871572Y-134288288D01*
X169871572Y-134288288D02*
X169841334Y-134258050D01*
X169841334Y-134258050D02*
X169871572Y-134227811D01*
X169871572Y-134227811D02*
X169871572Y-134288288D01*
X170113477Y-133653288D02*
X170506572Y-133653288D01*
X170506572Y-133653288D02*
X170294905Y-133895192D01*
X170294905Y-133895192D02*
X170385620Y-133895192D01*
X170385620Y-133895192D02*
X170446096Y-133925430D01*
X170446096Y-133925430D02*
X170476334Y-133955669D01*
X170476334Y-133955669D02*
X170506572Y-134016145D01*
X170506572Y-134016145D02*
X170506572Y-134167335D01*
X170506572Y-134167335D02*
X170476334Y-134227811D01*
X170476334Y-134227811D02*
X170446096Y-134258050D01*
X170446096Y-134258050D02*
X170385620Y-134288288D01*
X170385620Y-134288288D02*
X170204191Y-134288288D01*
X170204191Y-134288288D02*
X170143715Y-134258050D01*
X170143715Y-134258050D02*
X170113477Y-134227811D01*
X170688001Y-133653288D02*
X170899667Y-134288288D01*
X170899667Y-134288288D02*
X171111334Y-133653288D01*
X165329809Y-126063526D02*
X165269333Y-126033288D01*
X165269333Y-126033288D02*
X165178619Y-126033288D01*
X165178619Y-126033288D02*
X165087904Y-126063526D01*
X165087904Y-126063526D02*
X165027428Y-126124002D01*
X165027428Y-126124002D02*
X164997190Y-126184478D01*
X164997190Y-126184478D02*
X164966952Y-126305430D01*
X164966952Y-126305430D02*
X164966952Y-126396145D01*
X164966952Y-126396145D02*
X164997190Y-126517097D01*
X164997190Y-126517097D02*
X165027428Y-126577573D01*
X165027428Y-126577573D02*
X165087904Y-126638050D01*
X165087904Y-126638050D02*
X165178619Y-126668288D01*
X165178619Y-126668288D02*
X165239095Y-126668288D01*
X165239095Y-126668288D02*
X165329809Y-126638050D01*
X165329809Y-126638050D02*
X165360047Y-126607811D01*
X165360047Y-126607811D02*
X165360047Y-126396145D01*
X165360047Y-126396145D02*
X165239095Y-126396145D01*
X165632190Y-126668288D02*
X165632190Y-126033288D01*
X165632190Y-126033288D02*
X165995047Y-126668288D01*
X165995047Y-126668288D02*
X165995047Y-126033288D01*
X166297428Y-126668288D02*
X166297428Y-126033288D01*
X166297428Y-126033288D02*
X166448618Y-126033288D01*
X166448618Y-126033288D02*
X166539333Y-126063526D01*
X166539333Y-126063526D02*
X166599809Y-126124002D01*
X166599809Y-126124002D02*
X166630047Y-126184478D01*
X166630047Y-126184478D02*
X166660285Y-126305430D01*
X166660285Y-126305430D02*
X166660285Y-126396145D01*
X166660285Y-126396145D02*
X166630047Y-126517097D01*
X166630047Y-126517097D02*
X166599809Y-126577573D01*
X166599809Y-126577573D02*
X166539333Y-126638050D01*
X166539333Y-126638050D02*
X166448618Y-126668288D01*
X166448618Y-126668288D02*
X166297428Y-126668288D01*
X167416238Y-126668288D02*
X167416238Y-126033288D01*
X167416238Y-126033288D02*
X167658143Y-126033288D01*
X167658143Y-126033288D02*
X167718619Y-126063526D01*
X167718619Y-126063526D02*
X167748857Y-126093764D01*
X167748857Y-126093764D02*
X167779095Y-126154240D01*
X167779095Y-126154240D02*
X167779095Y-126244954D01*
X167779095Y-126244954D02*
X167748857Y-126305430D01*
X167748857Y-126305430D02*
X167718619Y-126335669D01*
X167718619Y-126335669D02*
X167658143Y-126365907D01*
X167658143Y-126365907D02*
X167416238Y-126365907D01*
X168021000Y-126093764D02*
X168051238Y-126063526D01*
X168051238Y-126063526D02*
X168111714Y-126033288D01*
X168111714Y-126033288D02*
X168262905Y-126033288D01*
X168262905Y-126033288D02*
X168323381Y-126063526D01*
X168323381Y-126063526D02*
X168353619Y-126093764D01*
X168353619Y-126093764D02*
X168383857Y-126154240D01*
X168383857Y-126154240D02*
X168383857Y-126214716D01*
X168383857Y-126214716D02*
X168353619Y-126305430D01*
X168353619Y-126305430D02*
X167990762Y-126668288D01*
X167990762Y-126668288D02*
X168383857Y-126668288D01*
X169079334Y-126033288D02*
X169472429Y-126033288D01*
X169472429Y-126033288D02*
X169260762Y-126275192D01*
X169260762Y-126275192D02*
X169351477Y-126275192D01*
X169351477Y-126275192D02*
X169411953Y-126305430D01*
X169411953Y-126305430D02*
X169442191Y-126335669D01*
X169442191Y-126335669D02*
X169472429Y-126396145D01*
X169472429Y-126396145D02*
X169472429Y-126547335D01*
X169472429Y-126547335D02*
X169442191Y-126607811D01*
X169442191Y-126607811D02*
X169411953Y-126638050D01*
X169411953Y-126638050D02*
X169351477Y-126668288D01*
X169351477Y-126668288D02*
X169170048Y-126668288D01*
X169170048Y-126668288D02*
X169109572Y-126638050D01*
X169109572Y-126638050D02*
X169079334Y-126607811D01*
X169744572Y-126607811D02*
X169774810Y-126638050D01*
X169774810Y-126638050D02*
X169744572Y-126668288D01*
X169744572Y-126668288D02*
X169714334Y-126638050D01*
X169714334Y-126638050D02*
X169744572Y-126607811D01*
X169744572Y-126607811D02*
X169744572Y-126668288D01*
X169986477Y-126033288D02*
X170379572Y-126033288D01*
X170379572Y-126033288D02*
X170167905Y-126275192D01*
X170167905Y-126275192D02*
X170258620Y-126275192D01*
X170258620Y-126275192D02*
X170319096Y-126305430D01*
X170319096Y-126305430D02*
X170349334Y-126335669D01*
X170349334Y-126335669D02*
X170379572Y-126396145D01*
X170379572Y-126396145D02*
X170379572Y-126547335D01*
X170379572Y-126547335D02*
X170349334Y-126607811D01*
X170349334Y-126607811D02*
X170319096Y-126638050D01*
X170319096Y-126638050D02*
X170258620Y-126668288D01*
X170258620Y-126668288D02*
X170077191Y-126668288D01*
X170077191Y-126668288D02*
X170016715Y-126638050D01*
X170016715Y-126638050D02*
X169986477Y-126607811D01*
X170561001Y-126033288D02*
X170772667Y-126668288D01*
X170772667Y-126668288D02*
X170984334Y-126033288D01*
D10*
X106900000Y-115641762D02*
X106852380Y-115784619D01*
X106852380Y-115784619D02*
X106852380Y-116022714D01*
X106852380Y-116022714D02*
X106900000Y-116117952D01*
X106900000Y-116117952D02*
X106947619Y-116165571D01*
X106947619Y-116165571D02*
X107042857Y-116213190D01*
X107042857Y-116213190D02*
X107138095Y-116213190D01*
X107138095Y-116213190D02*
X107233333Y-116165571D01*
X107233333Y-116165571D02*
X107280952Y-116117952D01*
X107280952Y-116117952D02*
X107328571Y-116022714D01*
X107328571Y-116022714D02*
X107376190Y-115832238D01*
X107376190Y-115832238D02*
X107423809Y-115737000D01*
X107423809Y-115737000D02*
X107471428Y-115689381D01*
X107471428Y-115689381D02*
X107566666Y-115641762D01*
X107566666Y-115641762D02*
X107661904Y-115641762D01*
X107661904Y-115641762D02*
X107757142Y-115689381D01*
X107757142Y-115689381D02*
X107804761Y-115737000D01*
X107804761Y-115737000D02*
X107852380Y-115832238D01*
X107852380Y-115832238D02*
X107852380Y-116070333D01*
X107852380Y-116070333D02*
X107804761Y-116213190D01*
X106852380Y-116641762D02*
X107852380Y-116641762D01*
X107852380Y-116641762D02*
X107852380Y-117022714D01*
X107852380Y-117022714D02*
X107804761Y-117117952D01*
X107804761Y-117117952D02*
X107757142Y-117165571D01*
X107757142Y-117165571D02*
X107661904Y-117213190D01*
X107661904Y-117213190D02*
X107519047Y-117213190D01*
X107519047Y-117213190D02*
X107423809Y-117165571D01*
X107423809Y-117165571D02*
X107376190Y-117117952D01*
X107376190Y-117117952D02*
X107328571Y-117022714D01*
X107328571Y-117022714D02*
X107328571Y-116641762D01*
X106852380Y-117641762D02*
X107852380Y-117641762D01*
X106852380Y-118641761D02*
X106852380Y-118070333D01*
X106852380Y-118356047D02*
X107852380Y-118356047D01*
X107852380Y-118356047D02*
X107709523Y-118260809D01*
X107709523Y-118260809D02*
X107614285Y-118165571D01*
X107614285Y-118165571D02*
X107566666Y-118070333D01*
X107233333Y-119070333D02*
X107233333Y-119832238D01*
X107852380Y-120498904D02*
X107852380Y-120594142D01*
X107852380Y-120594142D02*
X107804761Y-120689380D01*
X107804761Y-120689380D02*
X107757142Y-120736999D01*
X107757142Y-120736999D02*
X107661904Y-120784618D01*
X107661904Y-120784618D02*
X107471428Y-120832237D01*
X107471428Y-120832237D02*
X107233333Y-120832237D01*
X107233333Y-120832237D02*
X107042857Y-120784618D01*
X107042857Y-120784618D02*
X106947619Y-120736999D01*
X106947619Y-120736999D02*
X106900000Y-120689380D01*
X106900000Y-120689380D02*
X106852380Y-120594142D01*
X106852380Y-120594142D02*
X106852380Y-120498904D01*
X106852380Y-120498904D02*
X106900000Y-120403666D01*
X106900000Y-120403666D02*
X106947619Y-120356047D01*
X106947619Y-120356047D02*
X107042857Y-120308428D01*
X107042857Y-120308428D02*
X107233333Y-120260809D01*
X107233333Y-120260809D02*
X107471428Y-120260809D01*
X107471428Y-120260809D02*
X107661904Y-120308428D01*
X107661904Y-120308428D02*
X107757142Y-120356047D01*
X107757142Y-120356047D02*
X107804761Y-120403666D01*
X107804761Y-120403666D02*
X107852380Y-120498904D01*
X115355810Y-92283619D02*
X115355810Y-91283619D01*
X115784381Y-91378857D02*
X115832000Y-91331238D01*
X115832000Y-91331238D02*
X115927238Y-91283619D01*
X115927238Y-91283619D02*
X116165333Y-91283619D01*
X116165333Y-91283619D02*
X116260571Y-91331238D01*
X116260571Y-91331238D02*
X116308190Y-91378857D01*
X116308190Y-91378857D02*
X116355809Y-91474095D01*
X116355809Y-91474095D02*
X116355809Y-91569333D01*
X116355809Y-91569333D02*
X116308190Y-91712190D01*
X116308190Y-91712190D02*
X115736762Y-92283619D01*
X115736762Y-92283619D02*
X116355809Y-92283619D01*
X117355809Y-92188380D02*
X117308190Y-92236000D01*
X117308190Y-92236000D02*
X117165333Y-92283619D01*
X117165333Y-92283619D02*
X117070095Y-92283619D01*
X117070095Y-92283619D02*
X116927238Y-92236000D01*
X116927238Y-92236000D02*
X116832000Y-92140761D01*
X116832000Y-92140761D02*
X116784381Y-92045523D01*
X116784381Y-92045523D02*
X116736762Y-91855047D01*
X116736762Y-91855047D02*
X116736762Y-91712190D01*
X116736762Y-91712190D02*
X116784381Y-91521714D01*
X116784381Y-91521714D02*
X116832000Y-91426476D01*
X116832000Y-91426476D02*
X116927238Y-91331238D01*
X116927238Y-91331238D02*
X117070095Y-91283619D01*
X117070095Y-91283619D02*
X117165333Y-91283619D01*
X117165333Y-91283619D02*
X117308190Y-91331238D01*
X117308190Y-91331238D02*
X117355809Y-91378857D01*
X171724619Y-90024857D02*
X171724619Y-90629619D01*
X171724619Y-90629619D02*
X172200809Y-90690095D01*
X172200809Y-90690095D02*
X172153190Y-90629619D01*
X172153190Y-90629619D02*
X172105571Y-90508666D01*
X172105571Y-90508666D02*
X172105571Y-90206285D01*
X172105571Y-90206285D02*
X172153190Y-90085333D01*
X172153190Y-90085333D02*
X172200809Y-90024857D01*
X172200809Y-90024857D02*
X172296047Y-89964380D01*
X172296047Y-89964380D02*
X172534142Y-89964380D01*
X172534142Y-89964380D02*
X172629380Y-90024857D01*
X172629380Y-90024857D02*
X172677000Y-90085333D01*
X172677000Y-90085333D02*
X172724619Y-90206285D01*
X172724619Y-90206285D02*
X172724619Y-90508666D01*
X172724619Y-90508666D02*
X172677000Y-90629619D01*
X172677000Y-90629619D02*
X172629380Y-90690095D01*
X171724619Y-89601523D02*
X172724619Y-89178190D01*
X172724619Y-89178190D02*
X171724619Y-88754856D01*
X172724619Y-86396286D02*
X171724619Y-86396286D01*
X171724619Y-86396286D02*
X171724619Y-86093905D01*
X171724619Y-86093905D02*
X171772238Y-85912476D01*
X171772238Y-85912476D02*
X171867476Y-85791524D01*
X171867476Y-85791524D02*
X171962714Y-85731047D01*
X171962714Y-85731047D02*
X172153190Y-85670571D01*
X172153190Y-85670571D02*
X172296047Y-85670571D01*
X172296047Y-85670571D02*
X172486523Y-85731047D01*
X172486523Y-85731047D02*
X172581761Y-85791524D01*
X172581761Y-85791524D02*
X172677000Y-85912476D01*
X172677000Y-85912476D02*
X172724619Y-86093905D01*
X172724619Y-86093905D02*
X172724619Y-86396286D01*
X172724619Y-85126286D02*
X171724619Y-85126286D01*
X172724619Y-84521524D02*
X171724619Y-84521524D01*
X171724619Y-84521524D02*
X172724619Y-83795809D01*
X172724619Y-83795809D02*
X171724619Y-83795809D01*
X171772238Y-80590571D02*
X171724619Y-80711524D01*
X171724619Y-80711524D02*
X171724619Y-80892952D01*
X171724619Y-80892952D02*
X171772238Y-81074381D01*
X171772238Y-81074381D02*
X171867476Y-81195333D01*
X171867476Y-81195333D02*
X171962714Y-81255810D01*
X171962714Y-81255810D02*
X172153190Y-81316286D01*
X172153190Y-81316286D02*
X172296047Y-81316286D01*
X172296047Y-81316286D02*
X172486523Y-81255810D01*
X172486523Y-81255810D02*
X172581761Y-81195333D01*
X172581761Y-81195333D02*
X172677000Y-81074381D01*
X172677000Y-81074381D02*
X172724619Y-80892952D01*
X172724619Y-80892952D02*
X172724619Y-80772000D01*
X172724619Y-80772000D02*
X172677000Y-80590571D01*
X172677000Y-80590571D02*
X172629380Y-80530095D01*
X172629380Y-80530095D02*
X172296047Y-80530095D01*
X172296047Y-80530095D02*
X172296047Y-80772000D01*
X172724619Y-79985810D02*
X171724619Y-79985810D01*
X171724619Y-79985810D02*
X172724619Y-79260095D01*
X172724619Y-79260095D02*
X171724619Y-79260095D01*
X172724619Y-78655334D02*
X171724619Y-78655334D01*
X171724619Y-78655334D02*
X171724619Y-78352953D01*
X171724619Y-78352953D02*
X171772238Y-78171524D01*
X171772238Y-78171524D02*
X171867476Y-78050572D01*
X171867476Y-78050572D02*
X171962714Y-77990095D01*
X171962714Y-77990095D02*
X172153190Y-77929619D01*
X172153190Y-77929619D02*
X172296047Y-77929619D01*
X172296047Y-77929619D02*
X172486523Y-77990095D01*
X172486523Y-77990095D02*
X172581761Y-78050572D01*
X172581761Y-78050572D02*
X172677000Y-78171524D01*
X172677000Y-78171524D02*
X172724619Y-78352953D01*
X172724619Y-78352953D02*
X172724619Y-78655334D01*
D11*
X165456809Y-137493526D02*
X165396333Y-137463288D01*
X165396333Y-137463288D02*
X165305619Y-137463288D01*
X165305619Y-137463288D02*
X165214904Y-137493526D01*
X165214904Y-137493526D02*
X165154428Y-137554002D01*
X165154428Y-137554002D02*
X165124190Y-137614478D01*
X165124190Y-137614478D02*
X165093952Y-137735430D01*
X165093952Y-137735430D02*
X165093952Y-137826145D01*
X165093952Y-137826145D02*
X165124190Y-137947097D01*
X165124190Y-137947097D02*
X165154428Y-138007573D01*
X165154428Y-138007573D02*
X165214904Y-138068050D01*
X165214904Y-138068050D02*
X165305619Y-138098288D01*
X165305619Y-138098288D02*
X165366095Y-138098288D01*
X165366095Y-138098288D02*
X165456809Y-138068050D01*
X165456809Y-138068050D02*
X165487047Y-138037811D01*
X165487047Y-138037811D02*
X165487047Y-137826145D01*
X165487047Y-137826145D02*
X165366095Y-137826145D01*
X165759190Y-138098288D02*
X165759190Y-137463288D01*
X165759190Y-137463288D02*
X166122047Y-138098288D01*
X166122047Y-138098288D02*
X166122047Y-137463288D01*
X166424428Y-138098288D02*
X166424428Y-137463288D01*
X166424428Y-137463288D02*
X166575618Y-137463288D01*
X166575618Y-137463288D02*
X166666333Y-137493526D01*
X166666333Y-137493526D02*
X166726809Y-137554002D01*
X166726809Y-137554002D02*
X166757047Y-137614478D01*
X166757047Y-137614478D02*
X166787285Y-137735430D01*
X166787285Y-137735430D02*
X166787285Y-137826145D01*
X166787285Y-137826145D02*
X166757047Y-137947097D01*
X166757047Y-137947097D02*
X166726809Y-138007573D01*
X166726809Y-138007573D02*
X166666333Y-138068050D01*
X166666333Y-138068050D02*
X166575618Y-138098288D01*
X166575618Y-138098288D02*
X166424428Y-138098288D01*
X167543238Y-138098288D02*
X167543238Y-137463288D01*
X167543238Y-137463288D02*
X167785143Y-137463288D01*
X167785143Y-137463288D02*
X167845619Y-137493526D01*
X167845619Y-137493526D02*
X167875857Y-137523764D01*
X167875857Y-137523764D02*
X167906095Y-137584240D01*
X167906095Y-137584240D02*
X167906095Y-137674954D01*
X167906095Y-137674954D02*
X167875857Y-137735430D01*
X167875857Y-137735430D02*
X167845619Y-137765669D01*
X167845619Y-137765669D02*
X167785143Y-137795907D01*
X167785143Y-137795907D02*
X167543238Y-137795907D01*
X168480619Y-137463288D02*
X168178238Y-137463288D01*
X168178238Y-137463288D02*
X168148000Y-137765669D01*
X168148000Y-137765669D02*
X168178238Y-137735430D01*
X168178238Y-137735430D02*
X168238714Y-137705192D01*
X168238714Y-137705192D02*
X168389905Y-137705192D01*
X168389905Y-137705192D02*
X168450381Y-137735430D01*
X168450381Y-137735430D02*
X168480619Y-137765669D01*
X168480619Y-137765669D02*
X168510857Y-137826145D01*
X168510857Y-137826145D02*
X168510857Y-137977335D01*
X168510857Y-137977335D02*
X168480619Y-138037811D01*
X168480619Y-138037811D02*
X168450381Y-138068050D01*
X168450381Y-138068050D02*
X168389905Y-138098288D01*
X168389905Y-138098288D02*
X168238714Y-138098288D01*
X168238714Y-138098288D02*
X168178238Y-138068050D01*
X168178238Y-138068050D02*
X168148000Y-138037811D01*
X169206334Y-137463288D02*
X169599429Y-137463288D01*
X169599429Y-137463288D02*
X169387762Y-137705192D01*
X169387762Y-137705192D02*
X169478477Y-137705192D01*
X169478477Y-137705192D02*
X169538953Y-137735430D01*
X169538953Y-137735430D02*
X169569191Y-137765669D01*
X169569191Y-137765669D02*
X169599429Y-137826145D01*
X169599429Y-137826145D02*
X169599429Y-137977335D01*
X169599429Y-137977335D02*
X169569191Y-138037811D01*
X169569191Y-138037811D02*
X169538953Y-138068050D01*
X169538953Y-138068050D02*
X169478477Y-138098288D01*
X169478477Y-138098288D02*
X169297048Y-138098288D01*
X169297048Y-138098288D02*
X169236572Y-138068050D01*
X169236572Y-138068050D02*
X169206334Y-138037811D01*
X169871572Y-138037811D02*
X169901810Y-138068050D01*
X169901810Y-138068050D02*
X169871572Y-138098288D01*
X169871572Y-138098288D02*
X169841334Y-138068050D01*
X169841334Y-138068050D02*
X169871572Y-138037811D01*
X169871572Y-138037811D02*
X169871572Y-138098288D01*
X170113477Y-137463288D02*
X170506572Y-137463288D01*
X170506572Y-137463288D02*
X170294905Y-137705192D01*
X170294905Y-137705192D02*
X170385620Y-137705192D01*
X170385620Y-137705192D02*
X170446096Y-137735430D01*
X170446096Y-137735430D02*
X170476334Y-137765669D01*
X170476334Y-137765669D02*
X170506572Y-137826145D01*
X170506572Y-137826145D02*
X170506572Y-137977335D01*
X170506572Y-137977335D02*
X170476334Y-138037811D01*
X170476334Y-138037811D02*
X170446096Y-138068050D01*
X170446096Y-138068050D02*
X170385620Y-138098288D01*
X170385620Y-138098288D02*
X170204191Y-138098288D01*
X170204191Y-138098288D02*
X170143715Y-138068050D01*
X170143715Y-138068050D02*
X170113477Y-138037811D01*
X170688001Y-137463288D02*
X170899667Y-138098288D01*
X170899667Y-138098288D02*
X171111334Y-137463288D01*
D12*
X101856370Y-111920866D02*
X101890237Y-111853133D01*
X101890237Y-111853133D02*
X101890237Y-111751533D01*
X101890237Y-111751533D02*
X101856370Y-111649933D01*
X101856370Y-111649933D02*
X101788637Y-111582200D01*
X101788637Y-111582200D02*
X101720904Y-111548333D01*
X101720904Y-111548333D02*
X101585437Y-111514466D01*
X101585437Y-111514466D02*
X101483837Y-111514466D01*
X101483837Y-111514466D02*
X101348370Y-111548333D01*
X101348370Y-111548333D02*
X101280637Y-111582200D01*
X101280637Y-111582200D02*
X101212904Y-111649933D01*
X101212904Y-111649933D02*
X101179037Y-111751533D01*
X101179037Y-111751533D02*
X101179037Y-111819266D01*
X101179037Y-111819266D02*
X101212904Y-111920866D01*
X101212904Y-111920866D02*
X101246770Y-111954733D01*
X101246770Y-111954733D02*
X101483837Y-111954733D01*
X101483837Y-111954733D02*
X101483837Y-111819266D01*
X101179037Y-112259533D02*
X101890237Y-112259533D01*
X101890237Y-112259533D02*
X101179037Y-112665933D01*
X101179037Y-112665933D02*
X101890237Y-112665933D01*
X101179037Y-113004600D02*
X101890237Y-113004600D01*
X101890237Y-113004600D02*
X101890237Y-113173933D01*
X101890237Y-113173933D02*
X101856370Y-113275533D01*
X101856370Y-113275533D02*
X101788637Y-113343267D01*
X101788637Y-113343267D02*
X101720904Y-113377133D01*
X101720904Y-113377133D02*
X101585437Y-113411000D01*
X101585437Y-113411000D02*
X101483837Y-113411000D01*
X101483837Y-113411000D02*
X101348370Y-113377133D01*
X101348370Y-113377133D02*
X101280637Y-113343267D01*
X101280637Y-113343267D02*
X101212904Y-113275533D01*
X101212904Y-113275533D02*
X101179037Y-113173933D01*
X101179037Y-113173933D02*
X101179037Y-113004600D01*
X101246770Y-114664067D02*
X101212904Y-114630200D01*
X101212904Y-114630200D02*
X101179037Y-114528600D01*
X101179037Y-114528600D02*
X101179037Y-114460867D01*
X101179037Y-114460867D02*
X101212904Y-114359267D01*
X101212904Y-114359267D02*
X101280637Y-114291534D01*
X101280637Y-114291534D02*
X101348370Y-114257667D01*
X101348370Y-114257667D02*
X101483837Y-114223800D01*
X101483837Y-114223800D02*
X101585437Y-114223800D01*
X101585437Y-114223800D02*
X101720904Y-114257667D01*
X101720904Y-114257667D02*
X101788637Y-114291534D01*
X101788637Y-114291534D02*
X101856370Y-114359267D01*
X101856370Y-114359267D02*
X101890237Y-114460867D01*
X101890237Y-114460867D02*
X101890237Y-114528600D01*
X101890237Y-114528600D02*
X101856370Y-114630200D01*
X101856370Y-114630200D02*
X101822504Y-114664067D01*
X101212904Y-114935000D02*
X101179037Y-115036600D01*
X101179037Y-115036600D02*
X101179037Y-115205934D01*
X101179037Y-115205934D02*
X101212904Y-115273667D01*
X101212904Y-115273667D02*
X101246770Y-115307534D01*
X101246770Y-115307534D02*
X101314504Y-115341400D01*
X101314504Y-115341400D02*
X101382237Y-115341400D01*
X101382237Y-115341400D02*
X101449970Y-115307534D01*
X101449970Y-115307534D02*
X101483837Y-115273667D01*
X101483837Y-115273667D02*
X101517704Y-115205934D01*
X101517704Y-115205934D02*
X101551570Y-115070467D01*
X101551570Y-115070467D02*
X101585437Y-115002734D01*
X101585437Y-115002734D02*
X101619304Y-114968867D01*
X101619304Y-114968867D02*
X101687037Y-114935000D01*
X101687037Y-114935000D02*
X101754770Y-114935000D01*
X101754770Y-114935000D02*
X101822504Y-114968867D01*
X101822504Y-114968867D02*
X101856370Y-115002734D01*
X101856370Y-115002734D02*
X101890237Y-115070467D01*
X101890237Y-115070467D02*
X101890237Y-115239800D01*
X101890237Y-115239800D02*
X101856370Y-115341400D01*
X101246770Y-116594467D02*
X101212904Y-116560600D01*
X101212904Y-116560600D02*
X101179037Y-116459000D01*
X101179037Y-116459000D02*
X101179037Y-116391267D01*
X101179037Y-116391267D02*
X101212904Y-116289667D01*
X101212904Y-116289667D02*
X101280637Y-116221934D01*
X101280637Y-116221934D02*
X101348370Y-116188067D01*
X101348370Y-116188067D02*
X101483837Y-116154200D01*
X101483837Y-116154200D02*
X101585437Y-116154200D01*
X101585437Y-116154200D02*
X101720904Y-116188067D01*
X101720904Y-116188067D02*
X101788637Y-116221934D01*
X101788637Y-116221934D02*
X101856370Y-116289667D01*
X101856370Y-116289667D02*
X101890237Y-116391267D01*
X101890237Y-116391267D02*
X101890237Y-116459000D01*
X101890237Y-116459000D02*
X101856370Y-116560600D01*
X101856370Y-116560600D02*
X101822504Y-116594467D01*
X101179037Y-117237934D02*
X101179037Y-116899267D01*
X101179037Y-116899267D02*
X101890237Y-116899267D01*
X101179037Y-117475000D02*
X101890237Y-117475000D01*
X101179037Y-117881400D02*
X101585437Y-117576600D01*
X101890237Y-117881400D02*
X101483837Y-117475000D01*
X101179037Y-118728067D02*
X101890237Y-118728067D01*
X101890237Y-118728067D02*
X101382237Y-118965134D01*
X101382237Y-118965134D02*
X101890237Y-119202200D01*
X101890237Y-119202200D02*
X101179037Y-119202200D01*
X101179037Y-119540867D02*
X101890237Y-119540867D01*
X101212904Y-119845667D02*
X101179037Y-119947267D01*
X101179037Y-119947267D02*
X101179037Y-120116601D01*
X101179037Y-120116601D02*
X101212904Y-120184334D01*
X101212904Y-120184334D02*
X101246770Y-120218201D01*
X101246770Y-120218201D02*
X101314504Y-120252067D01*
X101314504Y-120252067D02*
X101382237Y-120252067D01*
X101382237Y-120252067D02*
X101449970Y-120218201D01*
X101449970Y-120218201D02*
X101483837Y-120184334D01*
X101483837Y-120184334D02*
X101517704Y-120116601D01*
X101517704Y-120116601D02*
X101551570Y-119981134D01*
X101551570Y-119981134D02*
X101585437Y-119913401D01*
X101585437Y-119913401D02*
X101619304Y-119879534D01*
X101619304Y-119879534D02*
X101687037Y-119845667D01*
X101687037Y-119845667D02*
X101754770Y-119845667D01*
X101754770Y-119845667D02*
X101822504Y-119879534D01*
X101822504Y-119879534D02*
X101856370Y-119913401D01*
X101856370Y-119913401D02*
X101890237Y-119981134D01*
X101890237Y-119981134D02*
X101890237Y-120150467D01*
X101890237Y-120150467D02*
X101856370Y-120252067D01*
X101890237Y-120692334D02*
X101890237Y-120827800D01*
X101890237Y-120827800D02*
X101856370Y-120895534D01*
X101856370Y-120895534D02*
X101788637Y-120963267D01*
X101788637Y-120963267D02*
X101653170Y-120997134D01*
X101653170Y-120997134D02*
X101416104Y-120997134D01*
X101416104Y-120997134D02*
X101280637Y-120963267D01*
X101280637Y-120963267D02*
X101212904Y-120895534D01*
X101212904Y-120895534D02*
X101179037Y-120827800D01*
X101179037Y-120827800D02*
X101179037Y-120692334D01*
X101179037Y-120692334D02*
X101212904Y-120624600D01*
X101212904Y-120624600D02*
X101280637Y-120556867D01*
X101280637Y-120556867D02*
X101416104Y-120523000D01*
X101416104Y-120523000D02*
X101653170Y-120523000D01*
X101653170Y-120523000D02*
X101788637Y-120556867D01*
X101788637Y-120556867D02*
X101856370Y-120624600D01*
X101856370Y-120624600D02*
X101890237Y-120692334D01*
X101179037Y-121843801D02*
X101890237Y-121843801D01*
X101890237Y-121843801D02*
X101382237Y-122080868D01*
X101382237Y-122080868D02*
X101890237Y-122317934D01*
X101890237Y-122317934D02*
X101179037Y-122317934D01*
X101890237Y-122792068D02*
X101890237Y-122927534D01*
X101890237Y-122927534D02*
X101856370Y-122995268D01*
X101856370Y-122995268D02*
X101788637Y-123063001D01*
X101788637Y-123063001D02*
X101653170Y-123096868D01*
X101653170Y-123096868D02*
X101416104Y-123096868D01*
X101416104Y-123096868D02*
X101280637Y-123063001D01*
X101280637Y-123063001D02*
X101212904Y-122995268D01*
X101212904Y-122995268D02*
X101179037Y-122927534D01*
X101179037Y-122927534D02*
X101179037Y-122792068D01*
X101179037Y-122792068D02*
X101212904Y-122724334D01*
X101212904Y-122724334D02*
X101280637Y-122656601D01*
X101280637Y-122656601D02*
X101416104Y-122622734D01*
X101416104Y-122622734D02*
X101653170Y-122622734D01*
X101653170Y-122622734D02*
X101788637Y-122656601D01*
X101788637Y-122656601D02*
X101856370Y-122724334D01*
X101856370Y-122724334D02*
X101890237Y-122792068D01*
X101212904Y-123367801D02*
X101179037Y-123469401D01*
X101179037Y-123469401D02*
X101179037Y-123638735D01*
X101179037Y-123638735D02*
X101212904Y-123706468D01*
X101212904Y-123706468D02*
X101246770Y-123740335D01*
X101246770Y-123740335D02*
X101314504Y-123774201D01*
X101314504Y-123774201D02*
X101382237Y-123774201D01*
X101382237Y-123774201D02*
X101449970Y-123740335D01*
X101449970Y-123740335D02*
X101483837Y-123706468D01*
X101483837Y-123706468D02*
X101517704Y-123638735D01*
X101517704Y-123638735D02*
X101551570Y-123503268D01*
X101551570Y-123503268D02*
X101585437Y-123435535D01*
X101585437Y-123435535D02*
X101619304Y-123401668D01*
X101619304Y-123401668D02*
X101687037Y-123367801D01*
X101687037Y-123367801D02*
X101754770Y-123367801D01*
X101754770Y-123367801D02*
X101822504Y-123401668D01*
X101822504Y-123401668D02*
X101856370Y-123435535D01*
X101856370Y-123435535D02*
X101890237Y-123503268D01*
X101890237Y-123503268D02*
X101890237Y-123672601D01*
X101890237Y-123672601D02*
X101856370Y-123774201D01*
X101179037Y-124079001D02*
X101890237Y-124079001D01*
X101890237Y-124891802D02*
X101890237Y-125332068D01*
X101890237Y-125332068D02*
X101619304Y-125095002D01*
X101619304Y-125095002D02*
X101619304Y-125196602D01*
X101619304Y-125196602D02*
X101585437Y-125264335D01*
X101585437Y-125264335D02*
X101551570Y-125298202D01*
X101551570Y-125298202D02*
X101483837Y-125332068D01*
X101483837Y-125332068D02*
X101314504Y-125332068D01*
X101314504Y-125332068D02*
X101246770Y-125298202D01*
X101246770Y-125298202D02*
X101212904Y-125264335D01*
X101212904Y-125264335D02*
X101179037Y-125196602D01*
X101179037Y-125196602D02*
X101179037Y-124993402D01*
X101179037Y-124993402D02*
X101212904Y-124925668D01*
X101212904Y-124925668D02*
X101246770Y-124891802D01*
X101890237Y-125535268D02*
X101179037Y-125772335D01*
X101179037Y-125772335D02*
X101890237Y-126009401D01*
X101890237Y-126178735D02*
X101890237Y-126619001D01*
X101890237Y-126619001D02*
X101619304Y-126381935D01*
X101619304Y-126381935D02*
X101619304Y-126483535D01*
X101619304Y-126483535D02*
X101585437Y-126551268D01*
X101585437Y-126551268D02*
X101551570Y-126585135D01*
X101551570Y-126585135D02*
X101483837Y-126619001D01*
X101483837Y-126619001D02*
X101314504Y-126619001D01*
X101314504Y-126619001D02*
X101246770Y-126585135D01*
X101246770Y-126585135D02*
X101212904Y-126551268D01*
X101212904Y-126551268D02*
X101179037Y-126483535D01*
X101179037Y-126483535D02*
X101179037Y-126280335D01*
X101179037Y-126280335D02*
X101212904Y-126212601D01*
X101212904Y-126212601D02*
X101246770Y-126178735D01*
D10*
X105957810Y-92283619D02*
X105957810Y-91283619D01*
X106386381Y-91378857D02*
X106434000Y-91331238D01*
X106434000Y-91331238D02*
X106529238Y-91283619D01*
X106529238Y-91283619D02*
X106767333Y-91283619D01*
X106767333Y-91283619D02*
X106862571Y-91331238D01*
X106862571Y-91331238D02*
X106910190Y-91378857D01*
X106910190Y-91378857D02*
X106957809Y-91474095D01*
X106957809Y-91474095D02*
X106957809Y-91569333D01*
X106957809Y-91569333D02*
X106910190Y-91712190D01*
X106910190Y-91712190D02*
X106338762Y-92283619D01*
X106338762Y-92283619D02*
X106957809Y-92283619D01*
X107957809Y-92188380D02*
X107910190Y-92236000D01*
X107910190Y-92236000D02*
X107767333Y-92283619D01*
X107767333Y-92283619D02*
X107672095Y-92283619D01*
X107672095Y-92283619D02*
X107529238Y-92236000D01*
X107529238Y-92236000D02*
X107434000Y-92140761D01*
X107434000Y-92140761D02*
X107386381Y-92045523D01*
X107386381Y-92045523D02*
X107338762Y-91855047D01*
X107338762Y-91855047D02*
X107338762Y-91712190D01*
X107338762Y-91712190D02*
X107386381Y-91521714D01*
X107386381Y-91521714D02*
X107434000Y-91426476D01*
X107434000Y-91426476D02*
X107529238Y-91331238D01*
X107529238Y-91331238D02*
X107672095Y-91283619D01*
X107672095Y-91283619D02*
X107767333Y-91283619D01*
X107767333Y-91283619D02*
X107910190Y-91331238D01*
X107910190Y-91331238D02*
X107957809Y-91378857D01*
X120235254Y-80118857D02*
X120235254Y-80590571D01*
X120235254Y-80590571D02*
X119944968Y-80336571D01*
X119944968Y-80336571D02*
X119944968Y-80445428D01*
X119944968Y-80445428D02*
X119908682Y-80518000D01*
X119908682Y-80518000D02*
X119872397Y-80554285D01*
X119872397Y-80554285D02*
X119799825Y-80590571D01*
X119799825Y-80590571D02*
X119618397Y-80590571D01*
X119618397Y-80590571D02*
X119545825Y-80554285D01*
X119545825Y-80554285D02*
X119509540Y-80518000D01*
X119509540Y-80518000D02*
X119473254Y-80445428D01*
X119473254Y-80445428D02*
X119473254Y-80227714D01*
X119473254Y-80227714D02*
X119509540Y-80155142D01*
X119509540Y-80155142D02*
X119545825Y-80118857D01*
X120235254Y-80808285D02*
X119473254Y-81062285D01*
X119473254Y-81062285D02*
X120235254Y-81316285D01*
X120235254Y-81497714D02*
X120235254Y-81969428D01*
X120235254Y-81969428D02*
X119944968Y-81715428D01*
X119944968Y-81715428D02*
X119944968Y-81824285D01*
X119944968Y-81824285D02*
X119908682Y-81896857D01*
X119908682Y-81896857D02*
X119872397Y-81933142D01*
X119872397Y-81933142D02*
X119799825Y-81969428D01*
X119799825Y-81969428D02*
X119618397Y-81969428D01*
X119618397Y-81969428D02*
X119545825Y-81933142D01*
X119545825Y-81933142D02*
X119509540Y-81896857D01*
X119509540Y-81896857D02*
X119473254Y-81824285D01*
X119473254Y-81824285D02*
X119473254Y-81606571D01*
X119473254Y-81606571D02*
X119509540Y-81533999D01*
X119509540Y-81533999D02*
X119545825Y-81497714D01*
X119509540Y-82840284D02*
X119473254Y-82949142D01*
X119473254Y-82949142D02*
X119473254Y-83130570D01*
X119473254Y-83130570D02*
X119509540Y-83203142D01*
X119509540Y-83203142D02*
X119545825Y-83239427D01*
X119545825Y-83239427D02*
X119618397Y-83275713D01*
X119618397Y-83275713D02*
X119690968Y-83275713D01*
X119690968Y-83275713D02*
X119763540Y-83239427D01*
X119763540Y-83239427D02*
X119799825Y-83203142D01*
X119799825Y-83203142D02*
X119836111Y-83130570D01*
X119836111Y-83130570D02*
X119872397Y-82985427D01*
X119872397Y-82985427D02*
X119908682Y-82912856D01*
X119908682Y-82912856D02*
X119944968Y-82876570D01*
X119944968Y-82876570D02*
X120017540Y-82840284D01*
X120017540Y-82840284D02*
X120090111Y-82840284D01*
X120090111Y-82840284D02*
X120162682Y-82876570D01*
X120162682Y-82876570D02*
X120198968Y-82912856D01*
X120198968Y-82912856D02*
X120235254Y-82985427D01*
X120235254Y-82985427D02*
X120235254Y-83166856D01*
X120235254Y-83166856D02*
X120198968Y-83275713D01*
X119473254Y-83602284D02*
X120235254Y-83602284D01*
X120235254Y-83602284D02*
X120235254Y-83783713D01*
X120235254Y-83783713D02*
X120198968Y-83892570D01*
X120198968Y-83892570D02*
X120126397Y-83965141D01*
X120126397Y-83965141D02*
X120053825Y-84001427D01*
X120053825Y-84001427D02*
X119908682Y-84037713D01*
X119908682Y-84037713D02*
X119799825Y-84037713D01*
X119799825Y-84037713D02*
X119654682Y-84001427D01*
X119654682Y-84001427D02*
X119582111Y-83965141D01*
X119582111Y-83965141D02*
X119509540Y-83892570D01*
X119509540Y-83892570D02*
X119473254Y-83783713D01*
X119473254Y-83783713D02*
X119473254Y-83602284D01*
X119690968Y-84327998D02*
X119690968Y-84690856D01*
X119473254Y-84255427D02*
X120235254Y-84509427D01*
X120235254Y-84509427D02*
X119473254Y-84763427D01*
X119509540Y-85561712D02*
X119473254Y-85670570D01*
X119473254Y-85670570D02*
X119473254Y-85851998D01*
X119473254Y-85851998D02*
X119509540Y-85924570D01*
X119509540Y-85924570D02*
X119545825Y-85960855D01*
X119545825Y-85960855D02*
X119618397Y-85997141D01*
X119618397Y-85997141D02*
X119690968Y-85997141D01*
X119690968Y-85997141D02*
X119763540Y-85960855D01*
X119763540Y-85960855D02*
X119799825Y-85924570D01*
X119799825Y-85924570D02*
X119836111Y-85851998D01*
X119836111Y-85851998D02*
X119872397Y-85706855D01*
X119872397Y-85706855D02*
X119908682Y-85634284D01*
X119908682Y-85634284D02*
X119944968Y-85597998D01*
X119944968Y-85597998D02*
X120017540Y-85561712D01*
X120017540Y-85561712D02*
X120090111Y-85561712D01*
X120090111Y-85561712D02*
X120162682Y-85597998D01*
X120162682Y-85597998D02*
X120198968Y-85634284D01*
X120198968Y-85634284D02*
X120235254Y-85706855D01*
X120235254Y-85706855D02*
X120235254Y-85888284D01*
X120235254Y-85888284D02*
X120198968Y-85997141D01*
X119545825Y-86759141D02*
X119509540Y-86722855D01*
X119509540Y-86722855D02*
X119473254Y-86613998D01*
X119473254Y-86613998D02*
X119473254Y-86541426D01*
X119473254Y-86541426D02*
X119509540Y-86432569D01*
X119509540Y-86432569D02*
X119582111Y-86359998D01*
X119582111Y-86359998D02*
X119654682Y-86323712D01*
X119654682Y-86323712D02*
X119799825Y-86287426D01*
X119799825Y-86287426D02*
X119908682Y-86287426D01*
X119908682Y-86287426D02*
X120053825Y-86323712D01*
X120053825Y-86323712D02*
X120126397Y-86359998D01*
X120126397Y-86359998D02*
X120198968Y-86432569D01*
X120198968Y-86432569D02*
X120235254Y-86541426D01*
X120235254Y-86541426D02*
X120235254Y-86613998D01*
X120235254Y-86613998D02*
X120198968Y-86722855D01*
X120198968Y-86722855D02*
X120162682Y-86759141D01*
X119473254Y-87448569D02*
X119473254Y-87085712D01*
X119473254Y-87085712D02*
X120235254Y-87085712D01*
X120198968Y-88682283D02*
X120235254Y-88609712D01*
X120235254Y-88609712D02*
X120235254Y-88500854D01*
X120235254Y-88500854D02*
X120198968Y-88391997D01*
X120198968Y-88391997D02*
X120126397Y-88319426D01*
X120126397Y-88319426D02*
X120053825Y-88283140D01*
X120053825Y-88283140D02*
X119908682Y-88246854D01*
X119908682Y-88246854D02*
X119799825Y-88246854D01*
X119799825Y-88246854D02*
X119654682Y-88283140D01*
X119654682Y-88283140D02*
X119582111Y-88319426D01*
X119582111Y-88319426D02*
X119509540Y-88391997D01*
X119509540Y-88391997D02*
X119473254Y-88500854D01*
X119473254Y-88500854D02*
X119473254Y-88573426D01*
X119473254Y-88573426D02*
X119509540Y-88682283D01*
X119509540Y-88682283D02*
X119545825Y-88718569D01*
X119545825Y-88718569D02*
X119799825Y-88718569D01*
X119799825Y-88718569D02*
X119799825Y-88573426D01*
X119473254Y-89045140D02*
X120235254Y-89045140D01*
X120235254Y-89045140D02*
X119473254Y-89480569D01*
X119473254Y-89480569D02*
X120235254Y-89480569D01*
X119473254Y-89843426D02*
X120235254Y-89843426D01*
X120235254Y-89843426D02*
X120235254Y-90024855D01*
X120235254Y-90024855D02*
X120198968Y-90133712D01*
X120198968Y-90133712D02*
X120126397Y-90206283D01*
X120126397Y-90206283D02*
X120053825Y-90242569D01*
X120053825Y-90242569D02*
X119908682Y-90278855D01*
X119908682Y-90278855D02*
X119799825Y-90278855D01*
X119799825Y-90278855D02*
X119654682Y-90242569D01*
X119654682Y-90242569D02*
X119582111Y-90206283D01*
X119582111Y-90206283D02*
X119509540Y-90133712D01*
X119509540Y-90133712D02*
X119473254Y-90024855D01*
X119473254Y-90024855D02*
X119473254Y-89843426D01*
D13*
X156560761Y-97582687D02*
X156802666Y-97582687D01*
X156512380Y-97727830D02*
X156681714Y-97219830D01*
X156681714Y-97219830D02*
X156851047Y-97727830D01*
X157020381Y-97727830D02*
X157020381Y-97219830D01*
X157020381Y-97219830D02*
X157141333Y-97219830D01*
X157141333Y-97219830D02*
X157213905Y-97244020D01*
X157213905Y-97244020D02*
X157262286Y-97292401D01*
X157262286Y-97292401D02*
X157286476Y-97340782D01*
X157286476Y-97340782D02*
X157310667Y-97437544D01*
X157310667Y-97437544D02*
X157310667Y-97510116D01*
X157310667Y-97510116D02*
X157286476Y-97606878D01*
X157286476Y-97606878D02*
X157262286Y-97655259D01*
X157262286Y-97655259D02*
X157213905Y-97703640D01*
X157213905Y-97703640D02*
X157141333Y-97727830D01*
X157141333Y-97727830D02*
X157020381Y-97727830D01*
X157818667Y-97679449D02*
X157794476Y-97703640D01*
X157794476Y-97703640D02*
X157721905Y-97727830D01*
X157721905Y-97727830D02*
X157673524Y-97727830D01*
X157673524Y-97727830D02*
X157600952Y-97703640D01*
X157600952Y-97703640D02*
X157552571Y-97655259D01*
X157552571Y-97655259D02*
X157528381Y-97606878D01*
X157528381Y-97606878D02*
X157504190Y-97510116D01*
X157504190Y-97510116D02*
X157504190Y-97437544D01*
X157504190Y-97437544D02*
X157528381Y-97340782D01*
X157528381Y-97340782D02*
X157552571Y-97292401D01*
X157552571Y-97292401D02*
X157600952Y-97244020D01*
X157600952Y-97244020D02*
X157673524Y-97219830D01*
X157673524Y-97219830D02*
X157721905Y-97219830D01*
X157721905Y-97219830D02*
X157794476Y-97244020D01*
X157794476Y-97244020D02*
X157818667Y-97268211D01*
X158133143Y-97219830D02*
X158181524Y-97219830D01*
X158181524Y-97219830D02*
X158229905Y-97244020D01*
X158229905Y-97244020D02*
X158254095Y-97268211D01*
X158254095Y-97268211D02*
X158278286Y-97316592D01*
X158278286Y-97316592D02*
X158302476Y-97413354D01*
X158302476Y-97413354D02*
X158302476Y-97534306D01*
X158302476Y-97534306D02*
X158278286Y-97631068D01*
X158278286Y-97631068D02*
X158254095Y-97679449D01*
X158254095Y-97679449D02*
X158229905Y-97703640D01*
X158229905Y-97703640D02*
X158181524Y-97727830D01*
X158181524Y-97727830D02*
X158133143Y-97727830D01*
X158133143Y-97727830D02*
X158084762Y-97703640D01*
X158084762Y-97703640D02*
X158060571Y-97679449D01*
X158060571Y-97679449D02*
X158036381Y-97631068D01*
X158036381Y-97631068D02*
X158012190Y-97534306D01*
X158012190Y-97534306D02*
X158012190Y-97413354D01*
X158012190Y-97413354D02*
X158036381Y-97316592D01*
X158036381Y-97316592D02*
X158060571Y-97268211D01*
X158060571Y-97268211D02*
X158084762Y-97244020D01*
X158084762Y-97244020D02*
X158133143Y-97219830D01*
X159270096Y-97582687D02*
X159512001Y-97582687D01*
X159221715Y-97727830D02*
X159391049Y-97219830D01*
X159391049Y-97219830D02*
X159560382Y-97727830D01*
X159729716Y-97727830D02*
X159729716Y-97219830D01*
X159729716Y-97219830D02*
X159850668Y-97219830D01*
X159850668Y-97219830D02*
X159923240Y-97244020D01*
X159923240Y-97244020D02*
X159971621Y-97292401D01*
X159971621Y-97292401D02*
X159995811Y-97340782D01*
X159995811Y-97340782D02*
X160020002Y-97437544D01*
X160020002Y-97437544D02*
X160020002Y-97510116D01*
X160020002Y-97510116D02*
X159995811Y-97606878D01*
X159995811Y-97606878D02*
X159971621Y-97655259D01*
X159971621Y-97655259D02*
X159923240Y-97703640D01*
X159923240Y-97703640D02*
X159850668Y-97727830D01*
X159850668Y-97727830D02*
X159729716Y-97727830D01*
X160528002Y-97679449D02*
X160503811Y-97703640D01*
X160503811Y-97703640D02*
X160431240Y-97727830D01*
X160431240Y-97727830D02*
X160382859Y-97727830D01*
X160382859Y-97727830D02*
X160310287Y-97703640D01*
X160310287Y-97703640D02*
X160261906Y-97655259D01*
X160261906Y-97655259D02*
X160237716Y-97606878D01*
X160237716Y-97606878D02*
X160213525Y-97510116D01*
X160213525Y-97510116D02*
X160213525Y-97437544D01*
X160213525Y-97437544D02*
X160237716Y-97340782D01*
X160237716Y-97340782D02*
X160261906Y-97292401D01*
X160261906Y-97292401D02*
X160310287Y-97244020D01*
X160310287Y-97244020D02*
X160382859Y-97219830D01*
X160382859Y-97219830D02*
X160431240Y-97219830D01*
X160431240Y-97219830D02*
X160503811Y-97244020D01*
X160503811Y-97244020D02*
X160528002Y-97268211D01*
X161011811Y-97727830D02*
X160721525Y-97727830D01*
X160866668Y-97727830D02*
X160866668Y-97219830D01*
X160866668Y-97219830D02*
X160818287Y-97292401D01*
X160818287Y-97292401D02*
X160769906Y-97340782D01*
X160769906Y-97340782D02*
X160721525Y-97364973D01*
X161979431Y-97582687D02*
X162221336Y-97582687D01*
X161931050Y-97727830D02*
X162100384Y-97219830D01*
X162100384Y-97219830D02*
X162269717Y-97727830D01*
X162439051Y-97727830D02*
X162439051Y-97219830D01*
X162439051Y-97219830D02*
X162560003Y-97219830D01*
X162560003Y-97219830D02*
X162632575Y-97244020D01*
X162632575Y-97244020D02*
X162680956Y-97292401D01*
X162680956Y-97292401D02*
X162705146Y-97340782D01*
X162705146Y-97340782D02*
X162729337Y-97437544D01*
X162729337Y-97437544D02*
X162729337Y-97510116D01*
X162729337Y-97510116D02*
X162705146Y-97606878D01*
X162705146Y-97606878D02*
X162680956Y-97655259D01*
X162680956Y-97655259D02*
X162632575Y-97703640D01*
X162632575Y-97703640D02*
X162560003Y-97727830D01*
X162560003Y-97727830D02*
X162439051Y-97727830D01*
X163237337Y-97679449D02*
X163213146Y-97703640D01*
X163213146Y-97703640D02*
X163140575Y-97727830D01*
X163140575Y-97727830D02*
X163092194Y-97727830D01*
X163092194Y-97727830D02*
X163019622Y-97703640D01*
X163019622Y-97703640D02*
X162971241Y-97655259D01*
X162971241Y-97655259D02*
X162947051Y-97606878D01*
X162947051Y-97606878D02*
X162922860Y-97510116D01*
X162922860Y-97510116D02*
X162922860Y-97437544D01*
X162922860Y-97437544D02*
X162947051Y-97340782D01*
X162947051Y-97340782D02*
X162971241Y-97292401D01*
X162971241Y-97292401D02*
X163019622Y-97244020D01*
X163019622Y-97244020D02*
X163092194Y-97219830D01*
X163092194Y-97219830D02*
X163140575Y-97219830D01*
X163140575Y-97219830D02*
X163213146Y-97244020D01*
X163213146Y-97244020D02*
X163237337Y-97268211D01*
X163430860Y-97268211D02*
X163455051Y-97244020D01*
X163455051Y-97244020D02*
X163503432Y-97219830D01*
X163503432Y-97219830D02*
X163624384Y-97219830D01*
X163624384Y-97219830D02*
X163672765Y-97244020D01*
X163672765Y-97244020D02*
X163696956Y-97268211D01*
X163696956Y-97268211D02*
X163721146Y-97316592D01*
X163721146Y-97316592D02*
X163721146Y-97364973D01*
X163721146Y-97364973D02*
X163696956Y-97437544D01*
X163696956Y-97437544D02*
X163406670Y-97727830D01*
X163406670Y-97727830D02*
X163721146Y-97727830D01*
D11*
X165456809Y-122253526D02*
X165396333Y-122223288D01*
X165396333Y-122223288D02*
X165305619Y-122223288D01*
X165305619Y-122223288D02*
X165214904Y-122253526D01*
X165214904Y-122253526D02*
X165154428Y-122314002D01*
X165154428Y-122314002D02*
X165124190Y-122374478D01*
X165124190Y-122374478D02*
X165093952Y-122495430D01*
X165093952Y-122495430D02*
X165093952Y-122586145D01*
X165093952Y-122586145D02*
X165124190Y-122707097D01*
X165124190Y-122707097D02*
X165154428Y-122767573D01*
X165154428Y-122767573D02*
X165214904Y-122828050D01*
X165214904Y-122828050D02*
X165305619Y-122858288D01*
X165305619Y-122858288D02*
X165366095Y-122858288D01*
X165366095Y-122858288D02*
X165456809Y-122828050D01*
X165456809Y-122828050D02*
X165487047Y-122797811D01*
X165487047Y-122797811D02*
X165487047Y-122586145D01*
X165487047Y-122586145D02*
X165366095Y-122586145D01*
X165759190Y-122858288D02*
X165759190Y-122223288D01*
X165759190Y-122223288D02*
X166122047Y-122858288D01*
X166122047Y-122858288D02*
X166122047Y-122223288D01*
X166424428Y-122858288D02*
X166424428Y-122223288D01*
X166424428Y-122223288D02*
X166575618Y-122223288D01*
X166575618Y-122223288D02*
X166666333Y-122253526D01*
X166666333Y-122253526D02*
X166726809Y-122314002D01*
X166726809Y-122314002D02*
X166757047Y-122374478D01*
X166757047Y-122374478D02*
X166787285Y-122495430D01*
X166787285Y-122495430D02*
X166787285Y-122586145D01*
X166787285Y-122586145D02*
X166757047Y-122707097D01*
X166757047Y-122707097D02*
X166726809Y-122767573D01*
X166726809Y-122767573D02*
X166666333Y-122828050D01*
X166666333Y-122828050D02*
X166575618Y-122858288D01*
X166575618Y-122858288D02*
X166424428Y-122858288D01*
X167543238Y-122858288D02*
X167543238Y-122223288D01*
X167543238Y-122223288D02*
X167785143Y-122223288D01*
X167785143Y-122223288D02*
X167845619Y-122253526D01*
X167845619Y-122253526D02*
X167875857Y-122283764D01*
X167875857Y-122283764D02*
X167906095Y-122344240D01*
X167906095Y-122344240D02*
X167906095Y-122434954D01*
X167906095Y-122434954D02*
X167875857Y-122495430D01*
X167875857Y-122495430D02*
X167845619Y-122525669D01*
X167845619Y-122525669D02*
X167785143Y-122555907D01*
X167785143Y-122555907D02*
X167543238Y-122555907D01*
X168510857Y-122858288D02*
X168148000Y-122858288D01*
X168329428Y-122858288D02*
X168329428Y-122223288D01*
X168329428Y-122223288D02*
X168268952Y-122314002D01*
X168268952Y-122314002D02*
X168208476Y-122374478D01*
X168208476Y-122374478D02*
X168148000Y-122404716D01*
X169206334Y-122223288D02*
X169599429Y-122223288D01*
X169599429Y-122223288D02*
X169387762Y-122465192D01*
X169387762Y-122465192D02*
X169478477Y-122465192D01*
X169478477Y-122465192D02*
X169538953Y-122495430D01*
X169538953Y-122495430D02*
X169569191Y-122525669D01*
X169569191Y-122525669D02*
X169599429Y-122586145D01*
X169599429Y-122586145D02*
X169599429Y-122737335D01*
X169599429Y-122737335D02*
X169569191Y-122797811D01*
X169569191Y-122797811D02*
X169538953Y-122828050D01*
X169538953Y-122828050D02*
X169478477Y-122858288D01*
X169478477Y-122858288D02*
X169297048Y-122858288D01*
X169297048Y-122858288D02*
X169236572Y-122828050D01*
X169236572Y-122828050D02*
X169206334Y-122797811D01*
X169871572Y-122797811D02*
X169901810Y-122828050D01*
X169901810Y-122828050D02*
X169871572Y-122858288D01*
X169871572Y-122858288D02*
X169841334Y-122828050D01*
X169841334Y-122828050D02*
X169871572Y-122797811D01*
X169871572Y-122797811D02*
X169871572Y-122858288D01*
X170113477Y-122223288D02*
X170506572Y-122223288D01*
X170506572Y-122223288D02*
X170294905Y-122465192D01*
X170294905Y-122465192D02*
X170385620Y-122465192D01*
X170385620Y-122465192D02*
X170446096Y-122495430D01*
X170446096Y-122495430D02*
X170476334Y-122525669D01*
X170476334Y-122525669D02*
X170506572Y-122586145D01*
X170506572Y-122586145D02*
X170506572Y-122737335D01*
X170506572Y-122737335D02*
X170476334Y-122797811D01*
X170476334Y-122797811D02*
X170446096Y-122828050D01*
X170446096Y-122828050D02*
X170385620Y-122858288D01*
X170385620Y-122858288D02*
X170204191Y-122858288D01*
X170204191Y-122858288D02*
X170143715Y-122828050D01*
X170143715Y-122828050D02*
X170113477Y-122797811D01*
X170688001Y-122223288D02*
X170899667Y-122858288D01*
X170899667Y-122858288D02*
X171111334Y-122223288D01*
D12*
X101856370Y-94267866D02*
X101890237Y-94200133D01*
X101890237Y-94200133D02*
X101890237Y-94098533D01*
X101890237Y-94098533D02*
X101856370Y-93996933D01*
X101856370Y-93996933D02*
X101788637Y-93929200D01*
X101788637Y-93929200D02*
X101720904Y-93895333D01*
X101720904Y-93895333D02*
X101585437Y-93861466D01*
X101585437Y-93861466D02*
X101483837Y-93861466D01*
X101483837Y-93861466D02*
X101348370Y-93895333D01*
X101348370Y-93895333D02*
X101280637Y-93929200D01*
X101280637Y-93929200D02*
X101212904Y-93996933D01*
X101212904Y-93996933D02*
X101179037Y-94098533D01*
X101179037Y-94098533D02*
X101179037Y-94166266D01*
X101179037Y-94166266D02*
X101212904Y-94267866D01*
X101212904Y-94267866D02*
X101246770Y-94301733D01*
X101246770Y-94301733D02*
X101483837Y-94301733D01*
X101483837Y-94301733D02*
X101483837Y-94166266D01*
X101179037Y-94606533D02*
X101890237Y-94606533D01*
X101890237Y-94606533D02*
X101179037Y-95012933D01*
X101179037Y-95012933D02*
X101890237Y-95012933D01*
X101179037Y-95351600D02*
X101890237Y-95351600D01*
X101890237Y-95351600D02*
X101890237Y-95520933D01*
X101890237Y-95520933D02*
X101856370Y-95622533D01*
X101856370Y-95622533D02*
X101788637Y-95690267D01*
X101788637Y-95690267D02*
X101720904Y-95724133D01*
X101720904Y-95724133D02*
X101585437Y-95758000D01*
X101585437Y-95758000D02*
X101483837Y-95758000D01*
X101483837Y-95758000D02*
X101348370Y-95724133D01*
X101348370Y-95724133D02*
X101280637Y-95690267D01*
X101280637Y-95690267D02*
X101212904Y-95622533D01*
X101212904Y-95622533D02*
X101179037Y-95520933D01*
X101179037Y-95520933D02*
X101179037Y-95351600D01*
X101246770Y-97011067D02*
X101212904Y-96977200D01*
X101212904Y-96977200D02*
X101179037Y-96875600D01*
X101179037Y-96875600D02*
X101179037Y-96807867D01*
X101179037Y-96807867D02*
X101212904Y-96706267D01*
X101212904Y-96706267D02*
X101280637Y-96638534D01*
X101280637Y-96638534D02*
X101348370Y-96604667D01*
X101348370Y-96604667D02*
X101483837Y-96570800D01*
X101483837Y-96570800D02*
X101585437Y-96570800D01*
X101585437Y-96570800D02*
X101720904Y-96604667D01*
X101720904Y-96604667D02*
X101788637Y-96638534D01*
X101788637Y-96638534D02*
X101856370Y-96706267D01*
X101856370Y-96706267D02*
X101890237Y-96807867D01*
X101890237Y-96807867D02*
X101890237Y-96875600D01*
X101890237Y-96875600D02*
X101856370Y-96977200D01*
X101856370Y-96977200D02*
X101822504Y-97011067D01*
X101212904Y-97282000D02*
X101179037Y-97383600D01*
X101179037Y-97383600D02*
X101179037Y-97552934D01*
X101179037Y-97552934D02*
X101212904Y-97620667D01*
X101212904Y-97620667D02*
X101246770Y-97654534D01*
X101246770Y-97654534D02*
X101314504Y-97688400D01*
X101314504Y-97688400D02*
X101382237Y-97688400D01*
X101382237Y-97688400D02*
X101449970Y-97654534D01*
X101449970Y-97654534D02*
X101483837Y-97620667D01*
X101483837Y-97620667D02*
X101517704Y-97552934D01*
X101517704Y-97552934D02*
X101551570Y-97417467D01*
X101551570Y-97417467D02*
X101585437Y-97349734D01*
X101585437Y-97349734D02*
X101619304Y-97315867D01*
X101619304Y-97315867D02*
X101687037Y-97282000D01*
X101687037Y-97282000D02*
X101754770Y-97282000D01*
X101754770Y-97282000D02*
X101822504Y-97315867D01*
X101822504Y-97315867D02*
X101856370Y-97349734D01*
X101856370Y-97349734D02*
X101890237Y-97417467D01*
X101890237Y-97417467D02*
X101890237Y-97586800D01*
X101890237Y-97586800D02*
X101856370Y-97688400D01*
X101246770Y-98941467D02*
X101212904Y-98907600D01*
X101212904Y-98907600D02*
X101179037Y-98806000D01*
X101179037Y-98806000D02*
X101179037Y-98738267D01*
X101179037Y-98738267D02*
X101212904Y-98636667D01*
X101212904Y-98636667D02*
X101280637Y-98568934D01*
X101280637Y-98568934D02*
X101348370Y-98535067D01*
X101348370Y-98535067D02*
X101483837Y-98501200D01*
X101483837Y-98501200D02*
X101585437Y-98501200D01*
X101585437Y-98501200D02*
X101720904Y-98535067D01*
X101720904Y-98535067D02*
X101788637Y-98568934D01*
X101788637Y-98568934D02*
X101856370Y-98636667D01*
X101856370Y-98636667D02*
X101890237Y-98738267D01*
X101890237Y-98738267D02*
X101890237Y-98806000D01*
X101890237Y-98806000D02*
X101856370Y-98907600D01*
X101856370Y-98907600D02*
X101822504Y-98941467D01*
X101179037Y-99584934D02*
X101179037Y-99246267D01*
X101179037Y-99246267D02*
X101890237Y-99246267D01*
X101179037Y-99822000D02*
X101890237Y-99822000D01*
X101179037Y-100228400D02*
X101585437Y-99923600D01*
X101890237Y-100228400D02*
X101483837Y-99822000D01*
X101179037Y-101075067D02*
X101890237Y-101075067D01*
X101890237Y-101075067D02*
X101382237Y-101312134D01*
X101382237Y-101312134D02*
X101890237Y-101549200D01*
X101890237Y-101549200D02*
X101179037Y-101549200D01*
X101179037Y-101887867D02*
X101890237Y-101887867D01*
X101212904Y-102192667D02*
X101179037Y-102294267D01*
X101179037Y-102294267D02*
X101179037Y-102463601D01*
X101179037Y-102463601D02*
X101212904Y-102531334D01*
X101212904Y-102531334D02*
X101246770Y-102565201D01*
X101246770Y-102565201D02*
X101314504Y-102599067D01*
X101314504Y-102599067D02*
X101382237Y-102599067D01*
X101382237Y-102599067D02*
X101449970Y-102565201D01*
X101449970Y-102565201D02*
X101483837Y-102531334D01*
X101483837Y-102531334D02*
X101517704Y-102463601D01*
X101517704Y-102463601D02*
X101551570Y-102328134D01*
X101551570Y-102328134D02*
X101585437Y-102260401D01*
X101585437Y-102260401D02*
X101619304Y-102226534D01*
X101619304Y-102226534D02*
X101687037Y-102192667D01*
X101687037Y-102192667D02*
X101754770Y-102192667D01*
X101754770Y-102192667D02*
X101822504Y-102226534D01*
X101822504Y-102226534D02*
X101856370Y-102260401D01*
X101856370Y-102260401D02*
X101890237Y-102328134D01*
X101890237Y-102328134D02*
X101890237Y-102497467D01*
X101890237Y-102497467D02*
X101856370Y-102599067D01*
X101890237Y-103039334D02*
X101890237Y-103174800D01*
X101890237Y-103174800D02*
X101856370Y-103242534D01*
X101856370Y-103242534D02*
X101788637Y-103310267D01*
X101788637Y-103310267D02*
X101653170Y-103344134D01*
X101653170Y-103344134D02*
X101416104Y-103344134D01*
X101416104Y-103344134D02*
X101280637Y-103310267D01*
X101280637Y-103310267D02*
X101212904Y-103242534D01*
X101212904Y-103242534D02*
X101179037Y-103174800D01*
X101179037Y-103174800D02*
X101179037Y-103039334D01*
X101179037Y-103039334D02*
X101212904Y-102971600D01*
X101212904Y-102971600D02*
X101280637Y-102903867D01*
X101280637Y-102903867D02*
X101416104Y-102870000D01*
X101416104Y-102870000D02*
X101653170Y-102870000D01*
X101653170Y-102870000D02*
X101788637Y-102903867D01*
X101788637Y-102903867D02*
X101856370Y-102971600D01*
X101856370Y-102971600D02*
X101890237Y-103039334D01*
X101179037Y-104190801D02*
X101890237Y-104190801D01*
X101890237Y-104190801D02*
X101382237Y-104427868D01*
X101382237Y-104427868D02*
X101890237Y-104664934D01*
X101890237Y-104664934D02*
X101179037Y-104664934D01*
X101890237Y-105139068D02*
X101890237Y-105274534D01*
X101890237Y-105274534D02*
X101856370Y-105342268D01*
X101856370Y-105342268D02*
X101788637Y-105410001D01*
X101788637Y-105410001D02*
X101653170Y-105443868D01*
X101653170Y-105443868D02*
X101416104Y-105443868D01*
X101416104Y-105443868D02*
X101280637Y-105410001D01*
X101280637Y-105410001D02*
X101212904Y-105342268D01*
X101212904Y-105342268D02*
X101179037Y-105274534D01*
X101179037Y-105274534D02*
X101179037Y-105139068D01*
X101179037Y-105139068D02*
X101212904Y-105071334D01*
X101212904Y-105071334D02*
X101280637Y-105003601D01*
X101280637Y-105003601D02*
X101416104Y-104969734D01*
X101416104Y-104969734D02*
X101653170Y-104969734D01*
X101653170Y-104969734D02*
X101788637Y-105003601D01*
X101788637Y-105003601D02*
X101856370Y-105071334D01*
X101856370Y-105071334D02*
X101890237Y-105139068D01*
X101212904Y-105714801D02*
X101179037Y-105816401D01*
X101179037Y-105816401D02*
X101179037Y-105985735D01*
X101179037Y-105985735D02*
X101212904Y-106053468D01*
X101212904Y-106053468D02*
X101246770Y-106087335D01*
X101246770Y-106087335D02*
X101314504Y-106121201D01*
X101314504Y-106121201D02*
X101382237Y-106121201D01*
X101382237Y-106121201D02*
X101449970Y-106087335D01*
X101449970Y-106087335D02*
X101483837Y-106053468D01*
X101483837Y-106053468D02*
X101517704Y-105985735D01*
X101517704Y-105985735D02*
X101551570Y-105850268D01*
X101551570Y-105850268D02*
X101585437Y-105782535D01*
X101585437Y-105782535D02*
X101619304Y-105748668D01*
X101619304Y-105748668D02*
X101687037Y-105714801D01*
X101687037Y-105714801D02*
X101754770Y-105714801D01*
X101754770Y-105714801D02*
X101822504Y-105748668D01*
X101822504Y-105748668D02*
X101856370Y-105782535D01*
X101856370Y-105782535D02*
X101890237Y-105850268D01*
X101890237Y-105850268D02*
X101890237Y-106019601D01*
X101890237Y-106019601D02*
X101856370Y-106121201D01*
X101179037Y-106426001D02*
X101890237Y-106426001D01*
X101890237Y-107238802D02*
X101890237Y-107679068D01*
X101890237Y-107679068D02*
X101619304Y-107442002D01*
X101619304Y-107442002D02*
X101619304Y-107543602D01*
X101619304Y-107543602D02*
X101585437Y-107611335D01*
X101585437Y-107611335D02*
X101551570Y-107645202D01*
X101551570Y-107645202D02*
X101483837Y-107679068D01*
X101483837Y-107679068D02*
X101314504Y-107679068D01*
X101314504Y-107679068D02*
X101246770Y-107645202D01*
X101246770Y-107645202D02*
X101212904Y-107611335D01*
X101212904Y-107611335D02*
X101179037Y-107543602D01*
X101179037Y-107543602D02*
X101179037Y-107340402D01*
X101179037Y-107340402D02*
X101212904Y-107272668D01*
X101212904Y-107272668D02*
X101246770Y-107238802D01*
X101890237Y-107882268D02*
X101179037Y-108119335D01*
X101179037Y-108119335D02*
X101890237Y-108356401D01*
X101890237Y-108525735D02*
X101890237Y-108966001D01*
X101890237Y-108966001D02*
X101619304Y-108728935D01*
X101619304Y-108728935D02*
X101619304Y-108830535D01*
X101619304Y-108830535D02*
X101585437Y-108898268D01*
X101585437Y-108898268D02*
X101551570Y-108932135D01*
X101551570Y-108932135D02*
X101483837Y-108966001D01*
X101483837Y-108966001D02*
X101314504Y-108966001D01*
X101314504Y-108966001D02*
X101246770Y-108932135D01*
X101246770Y-108932135D02*
X101212904Y-108898268D01*
X101212904Y-108898268D02*
X101179037Y-108830535D01*
X101179037Y-108830535D02*
X101179037Y-108627335D01*
X101179037Y-108627335D02*
X101212904Y-108559601D01*
X101212904Y-108559601D02*
X101246770Y-108525735D01*
D11*
X165456809Y-118443526D02*
X165396333Y-118413288D01*
X165396333Y-118413288D02*
X165305619Y-118413288D01*
X165305619Y-118413288D02*
X165214904Y-118443526D01*
X165214904Y-118443526D02*
X165154428Y-118504002D01*
X165154428Y-118504002D02*
X165124190Y-118564478D01*
X165124190Y-118564478D02*
X165093952Y-118685430D01*
X165093952Y-118685430D02*
X165093952Y-118776145D01*
X165093952Y-118776145D02*
X165124190Y-118897097D01*
X165124190Y-118897097D02*
X165154428Y-118957573D01*
X165154428Y-118957573D02*
X165214904Y-119018050D01*
X165214904Y-119018050D02*
X165305619Y-119048288D01*
X165305619Y-119048288D02*
X165366095Y-119048288D01*
X165366095Y-119048288D02*
X165456809Y-119018050D01*
X165456809Y-119018050D02*
X165487047Y-118987811D01*
X165487047Y-118987811D02*
X165487047Y-118776145D01*
X165487047Y-118776145D02*
X165366095Y-118776145D01*
X165759190Y-119048288D02*
X165759190Y-118413288D01*
X165759190Y-118413288D02*
X166122047Y-119048288D01*
X166122047Y-119048288D02*
X166122047Y-118413288D01*
X166424428Y-119048288D02*
X166424428Y-118413288D01*
X166424428Y-118413288D02*
X166575618Y-118413288D01*
X166575618Y-118413288D02*
X166666333Y-118443526D01*
X166666333Y-118443526D02*
X166726809Y-118504002D01*
X166726809Y-118504002D02*
X166757047Y-118564478D01*
X166757047Y-118564478D02*
X166787285Y-118685430D01*
X166787285Y-118685430D02*
X166787285Y-118776145D01*
X166787285Y-118776145D02*
X166757047Y-118897097D01*
X166757047Y-118897097D02*
X166726809Y-118957573D01*
X166726809Y-118957573D02*
X166666333Y-119018050D01*
X166666333Y-119018050D02*
X166575618Y-119048288D01*
X166575618Y-119048288D02*
X166424428Y-119048288D01*
X167543238Y-119048288D02*
X167543238Y-118413288D01*
X167543238Y-118413288D02*
X167785143Y-118413288D01*
X167785143Y-118413288D02*
X167845619Y-118443526D01*
X167845619Y-118443526D02*
X167875857Y-118473764D01*
X167875857Y-118473764D02*
X167906095Y-118534240D01*
X167906095Y-118534240D02*
X167906095Y-118624954D01*
X167906095Y-118624954D02*
X167875857Y-118685430D01*
X167875857Y-118685430D02*
X167845619Y-118715669D01*
X167845619Y-118715669D02*
X167785143Y-118745907D01*
X167785143Y-118745907D02*
X167543238Y-118745907D01*
X168299190Y-118413288D02*
X168359667Y-118413288D01*
X168359667Y-118413288D02*
X168420143Y-118443526D01*
X168420143Y-118443526D02*
X168450381Y-118473764D01*
X168450381Y-118473764D02*
X168480619Y-118534240D01*
X168480619Y-118534240D02*
X168510857Y-118655192D01*
X168510857Y-118655192D02*
X168510857Y-118806383D01*
X168510857Y-118806383D02*
X168480619Y-118927335D01*
X168480619Y-118927335D02*
X168450381Y-118987811D01*
X168450381Y-118987811D02*
X168420143Y-119018050D01*
X168420143Y-119018050D02*
X168359667Y-119048288D01*
X168359667Y-119048288D02*
X168299190Y-119048288D01*
X168299190Y-119048288D02*
X168238714Y-119018050D01*
X168238714Y-119018050D02*
X168208476Y-118987811D01*
X168208476Y-118987811D02*
X168178238Y-118927335D01*
X168178238Y-118927335D02*
X168148000Y-118806383D01*
X168148000Y-118806383D02*
X168148000Y-118655192D01*
X168148000Y-118655192D02*
X168178238Y-118534240D01*
X168178238Y-118534240D02*
X168208476Y-118473764D01*
X168208476Y-118473764D02*
X168238714Y-118443526D01*
X168238714Y-118443526D02*
X168299190Y-118413288D01*
X169206334Y-118413288D02*
X169599429Y-118413288D01*
X169599429Y-118413288D02*
X169387762Y-118655192D01*
X169387762Y-118655192D02*
X169478477Y-118655192D01*
X169478477Y-118655192D02*
X169538953Y-118685430D01*
X169538953Y-118685430D02*
X169569191Y-118715669D01*
X169569191Y-118715669D02*
X169599429Y-118776145D01*
X169599429Y-118776145D02*
X169599429Y-118927335D01*
X169599429Y-118927335D02*
X169569191Y-118987811D01*
X169569191Y-118987811D02*
X169538953Y-119018050D01*
X169538953Y-119018050D02*
X169478477Y-119048288D01*
X169478477Y-119048288D02*
X169297048Y-119048288D01*
X169297048Y-119048288D02*
X169236572Y-119018050D01*
X169236572Y-119018050D02*
X169206334Y-118987811D01*
X169871572Y-118987811D02*
X169901810Y-119018050D01*
X169901810Y-119018050D02*
X169871572Y-119048288D01*
X169871572Y-119048288D02*
X169841334Y-119018050D01*
X169841334Y-119018050D02*
X169871572Y-118987811D01*
X169871572Y-118987811D02*
X169871572Y-119048288D01*
X170113477Y-118413288D02*
X170506572Y-118413288D01*
X170506572Y-118413288D02*
X170294905Y-118655192D01*
X170294905Y-118655192D02*
X170385620Y-118655192D01*
X170385620Y-118655192D02*
X170446096Y-118685430D01*
X170446096Y-118685430D02*
X170476334Y-118715669D01*
X170476334Y-118715669D02*
X170506572Y-118776145D01*
X170506572Y-118776145D02*
X170506572Y-118927335D01*
X170506572Y-118927335D02*
X170476334Y-118987811D01*
X170476334Y-118987811D02*
X170446096Y-119018050D01*
X170446096Y-119018050D02*
X170385620Y-119048288D01*
X170385620Y-119048288D02*
X170204191Y-119048288D01*
X170204191Y-119048288D02*
X170143715Y-119018050D01*
X170143715Y-119018050D02*
X170113477Y-118987811D01*
X170688001Y-118413288D02*
X170899667Y-119048288D01*
X170899667Y-119048288D02*
X171111334Y-118413288D01*
D10*
X171926238Y-112951380D02*
X171878619Y-113072333D01*
X171878619Y-113072333D02*
X171878619Y-113253761D01*
X171878619Y-113253761D02*
X171926238Y-113435190D01*
X171926238Y-113435190D02*
X172021476Y-113556142D01*
X172021476Y-113556142D02*
X172116714Y-113616619D01*
X172116714Y-113616619D02*
X172307190Y-113677095D01*
X172307190Y-113677095D02*
X172450047Y-113677095D01*
X172450047Y-113677095D02*
X172640523Y-113616619D01*
X172640523Y-113616619D02*
X172735761Y-113556142D01*
X172735761Y-113556142D02*
X172831000Y-113435190D01*
X172831000Y-113435190D02*
X172878619Y-113253761D01*
X172878619Y-113253761D02*
X172878619Y-113132809D01*
X172878619Y-113132809D02*
X172831000Y-112951380D01*
X172831000Y-112951380D02*
X172783380Y-112890904D01*
X172783380Y-112890904D02*
X172450047Y-112890904D01*
X172450047Y-112890904D02*
X172450047Y-113132809D01*
X172878619Y-112346619D02*
X171878619Y-112346619D01*
X171878619Y-112346619D02*
X172878619Y-111620904D01*
X172878619Y-111620904D02*
X171878619Y-111620904D01*
X172878619Y-111016143D02*
X171878619Y-111016143D01*
X171878619Y-111016143D02*
X171878619Y-110713762D01*
X171878619Y-110713762D02*
X171926238Y-110532333D01*
X171926238Y-110532333D02*
X172021476Y-110411381D01*
X172021476Y-110411381D02*
X172116714Y-110350904D01*
X172116714Y-110350904D02*
X172307190Y-110290428D01*
X172307190Y-110290428D02*
X172450047Y-110290428D01*
X172450047Y-110290428D02*
X172640523Y-110350904D01*
X172640523Y-110350904D02*
X172735761Y-110411381D01*
X172735761Y-110411381D02*
X172831000Y-110532333D01*
X172831000Y-110532333D02*
X172878619Y-110713762D01*
X172878619Y-110713762D02*
X172878619Y-111016143D01*
X172878619Y-107810905D02*
X171878619Y-107810905D01*
X171878619Y-107810905D02*
X171878619Y-107508524D01*
X171878619Y-107508524D02*
X171926238Y-107327095D01*
X171926238Y-107327095D02*
X172021476Y-107206143D01*
X172021476Y-107206143D02*
X172116714Y-107145666D01*
X172116714Y-107145666D02*
X172307190Y-107085190D01*
X172307190Y-107085190D02*
X172450047Y-107085190D01*
X172450047Y-107085190D02*
X172640523Y-107145666D01*
X172640523Y-107145666D02*
X172735761Y-107206143D01*
X172735761Y-107206143D02*
X172831000Y-107327095D01*
X172831000Y-107327095D02*
X172878619Y-107508524D01*
X172878619Y-107508524D02*
X172878619Y-107810905D01*
X172878619Y-106540905D02*
X171878619Y-106540905D01*
X172878619Y-105936143D02*
X171878619Y-105936143D01*
X171878619Y-105936143D02*
X172878619Y-105210428D01*
X172878619Y-105210428D02*
X171878619Y-105210428D01*
X171878619Y-102065667D02*
X171878619Y-102670429D01*
X171878619Y-102670429D02*
X172354809Y-102730905D01*
X172354809Y-102730905D02*
X172307190Y-102670429D01*
X172307190Y-102670429D02*
X172259571Y-102549476D01*
X172259571Y-102549476D02*
X172259571Y-102247095D01*
X172259571Y-102247095D02*
X172307190Y-102126143D01*
X172307190Y-102126143D02*
X172354809Y-102065667D01*
X172354809Y-102065667D02*
X172450047Y-102005190D01*
X172450047Y-102005190D02*
X172688142Y-102005190D01*
X172688142Y-102005190D02*
X172783380Y-102065667D01*
X172783380Y-102065667D02*
X172831000Y-102126143D01*
X172831000Y-102126143D02*
X172878619Y-102247095D01*
X172878619Y-102247095D02*
X172878619Y-102549476D01*
X172878619Y-102549476D02*
X172831000Y-102670429D01*
X172831000Y-102670429D02*
X172783380Y-102730905D01*
X171878619Y-101642333D02*
X172878619Y-101219000D01*
X172878619Y-101219000D02*
X171878619Y-100795666D01*
X105697745Y-73805142D02*
X105697745Y-73333428D01*
X105697745Y-73333428D02*
X105988031Y-73587428D01*
X105988031Y-73587428D02*
X105988031Y-73478571D01*
X105988031Y-73478571D02*
X106024317Y-73406000D01*
X106024317Y-73406000D02*
X106060602Y-73369714D01*
X106060602Y-73369714D02*
X106133174Y-73333428D01*
X106133174Y-73333428D02*
X106314602Y-73333428D01*
X106314602Y-73333428D02*
X106387174Y-73369714D01*
X106387174Y-73369714D02*
X106423460Y-73406000D01*
X106423460Y-73406000D02*
X106459745Y-73478571D01*
X106459745Y-73478571D02*
X106459745Y-73696285D01*
X106459745Y-73696285D02*
X106423460Y-73768857D01*
X106423460Y-73768857D02*
X106387174Y-73805142D01*
X105697745Y-73115714D02*
X106459745Y-72861714D01*
X106459745Y-72861714D02*
X105697745Y-72607714D01*
X105697745Y-72426285D02*
X105697745Y-71954571D01*
X105697745Y-71954571D02*
X105988031Y-72208571D01*
X105988031Y-72208571D02*
X105988031Y-72099714D01*
X105988031Y-72099714D02*
X106024317Y-72027143D01*
X106024317Y-72027143D02*
X106060602Y-71990857D01*
X106060602Y-71990857D02*
X106133174Y-71954571D01*
X106133174Y-71954571D02*
X106314602Y-71954571D01*
X106314602Y-71954571D02*
X106387174Y-71990857D01*
X106387174Y-71990857D02*
X106423460Y-72027143D01*
X106423460Y-72027143D02*
X106459745Y-72099714D01*
X106459745Y-72099714D02*
X106459745Y-72317428D01*
X106459745Y-72317428D02*
X106423460Y-72390000D01*
X106423460Y-72390000D02*
X106387174Y-72426285D01*
X106459745Y-70612000D02*
X106096888Y-70866000D01*
X106459745Y-71047429D02*
X105697745Y-71047429D01*
X105697745Y-71047429D02*
X105697745Y-70757143D01*
X105697745Y-70757143D02*
X105734031Y-70684572D01*
X105734031Y-70684572D02*
X105770317Y-70648286D01*
X105770317Y-70648286D02*
X105842888Y-70612000D01*
X105842888Y-70612000D02*
X105951745Y-70612000D01*
X105951745Y-70612000D02*
X106024317Y-70648286D01*
X106024317Y-70648286D02*
X106060602Y-70684572D01*
X106060602Y-70684572D02*
X106096888Y-70757143D01*
X106096888Y-70757143D02*
X106096888Y-71047429D01*
X105697745Y-70358000D02*
X106459745Y-69850000D01*
X105697745Y-69850000D02*
X106459745Y-70358000D01*
X105697745Y-68507430D02*
X105697745Y-68072002D01*
X106459745Y-68289716D02*
X105697745Y-68289716D01*
X105697745Y-67890573D02*
X106459745Y-67382573D01*
X105697745Y-67382573D02*
X106459745Y-67890573D01*
X105734031Y-65532003D02*
X105697745Y-65604575D01*
X105697745Y-65604575D02*
X105697745Y-65713432D01*
X105697745Y-65713432D02*
X105734031Y-65822289D01*
X105734031Y-65822289D02*
X105806602Y-65894860D01*
X105806602Y-65894860D02*
X105879174Y-65931146D01*
X105879174Y-65931146D02*
X106024317Y-65967432D01*
X106024317Y-65967432D02*
X106133174Y-65967432D01*
X106133174Y-65967432D02*
X106278317Y-65931146D01*
X106278317Y-65931146D02*
X106350888Y-65894860D01*
X106350888Y-65894860D02*
X106423460Y-65822289D01*
X106423460Y-65822289D02*
X106459745Y-65713432D01*
X106459745Y-65713432D02*
X106459745Y-65640860D01*
X106459745Y-65640860D02*
X106423460Y-65532003D01*
X106423460Y-65532003D02*
X106387174Y-65495717D01*
X106387174Y-65495717D02*
X106133174Y-65495717D01*
X106133174Y-65495717D02*
X106133174Y-65640860D01*
X106459745Y-65169146D02*
X105697745Y-65169146D01*
X105697745Y-65169146D02*
X106459745Y-64733717D01*
X106459745Y-64733717D02*
X105697745Y-64733717D01*
X106459745Y-64370860D02*
X105697745Y-64370860D01*
X105697745Y-64370860D02*
X105697745Y-64189431D01*
X105697745Y-64189431D02*
X105734031Y-64080574D01*
X105734031Y-64080574D02*
X105806602Y-64008003D01*
X105806602Y-64008003D02*
X105879174Y-63971717D01*
X105879174Y-63971717D02*
X106024317Y-63935431D01*
X106024317Y-63935431D02*
X106133174Y-63935431D01*
X106133174Y-63935431D02*
X106278317Y-63971717D01*
X106278317Y-63971717D02*
X106350888Y-64008003D01*
X106350888Y-64008003D02*
X106423460Y-64080574D01*
X106423460Y-64080574D02*
X106459745Y-64189431D01*
X106459745Y-64189431D02*
X106459745Y-64370860D01*
X110656810Y-92283619D02*
X110656810Y-91283619D01*
X111085381Y-91378857D02*
X111133000Y-91331238D01*
X111133000Y-91331238D02*
X111228238Y-91283619D01*
X111228238Y-91283619D02*
X111466333Y-91283619D01*
X111466333Y-91283619D02*
X111561571Y-91331238D01*
X111561571Y-91331238D02*
X111609190Y-91378857D01*
X111609190Y-91378857D02*
X111656809Y-91474095D01*
X111656809Y-91474095D02*
X111656809Y-91569333D01*
X111656809Y-91569333D02*
X111609190Y-91712190D01*
X111609190Y-91712190D02*
X111037762Y-92283619D01*
X111037762Y-92283619D02*
X111656809Y-92283619D01*
X112656809Y-92188380D02*
X112609190Y-92236000D01*
X112609190Y-92236000D02*
X112466333Y-92283619D01*
X112466333Y-92283619D02*
X112371095Y-92283619D01*
X112371095Y-92283619D02*
X112228238Y-92236000D01*
X112228238Y-92236000D02*
X112133000Y-92140761D01*
X112133000Y-92140761D02*
X112085381Y-92045523D01*
X112085381Y-92045523D02*
X112037762Y-91855047D01*
X112037762Y-91855047D02*
X112037762Y-91712190D01*
X112037762Y-91712190D02*
X112085381Y-91521714D01*
X112085381Y-91521714D02*
X112133000Y-91426476D01*
X112133000Y-91426476D02*
X112228238Y-91331238D01*
X112228238Y-91331238D02*
X112371095Y-91283619D01*
X112371095Y-91283619D02*
X112466333Y-91283619D01*
X112466333Y-91283619D02*
X112609190Y-91331238D01*
X112609190Y-91331238D02*
X112656809Y-91378857D01*
X113077523Y-95889619D02*
X112744190Y-95413428D01*
X112506095Y-95889619D02*
X112506095Y-94889619D01*
X112506095Y-94889619D02*
X112887047Y-94889619D01*
X112887047Y-94889619D02*
X112982285Y-94937238D01*
X112982285Y-94937238D02*
X113029904Y-94984857D01*
X113029904Y-94984857D02*
X113077523Y-95080095D01*
X113077523Y-95080095D02*
X113077523Y-95222952D01*
X113077523Y-95222952D02*
X113029904Y-95318190D01*
X113029904Y-95318190D02*
X112982285Y-95365809D01*
X112982285Y-95365809D02*
X112887047Y-95413428D01*
X112887047Y-95413428D02*
X112506095Y-95413428D01*
X113458476Y-95842000D02*
X113601333Y-95889619D01*
X113601333Y-95889619D02*
X113839428Y-95889619D01*
X113839428Y-95889619D02*
X113934666Y-95842000D01*
X113934666Y-95842000D02*
X113982285Y-95794380D01*
X113982285Y-95794380D02*
X114029904Y-95699142D01*
X114029904Y-95699142D02*
X114029904Y-95603904D01*
X114029904Y-95603904D02*
X113982285Y-95508666D01*
X113982285Y-95508666D02*
X113934666Y-95461047D01*
X113934666Y-95461047D02*
X113839428Y-95413428D01*
X113839428Y-95413428D02*
X113648952Y-95365809D01*
X113648952Y-95365809D02*
X113553714Y-95318190D01*
X113553714Y-95318190D02*
X113506095Y-95270571D01*
X113506095Y-95270571D02*
X113458476Y-95175333D01*
X113458476Y-95175333D02*
X113458476Y-95080095D01*
X113458476Y-95080095D02*
X113506095Y-94984857D01*
X113506095Y-94984857D02*
X113553714Y-94937238D01*
X113553714Y-94937238D02*
X113648952Y-94889619D01*
X113648952Y-94889619D02*
X113887047Y-94889619D01*
X113887047Y-94889619D02*
X114029904Y-94937238D01*
X114315619Y-94889619D02*
X114887047Y-94889619D01*
X114601333Y-95889619D02*
X114601333Y-94889619D01*
D11*
X165329809Y-129873526D02*
X165269333Y-129843288D01*
X165269333Y-129843288D02*
X165178619Y-129843288D01*
X165178619Y-129843288D02*
X165087904Y-129873526D01*
X165087904Y-129873526D02*
X165027428Y-129934002D01*
X165027428Y-129934002D02*
X164997190Y-129994478D01*
X164997190Y-129994478D02*
X164966952Y-130115430D01*
X164966952Y-130115430D02*
X164966952Y-130206145D01*
X164966952Y-130206145D02*
X164997190Y-130327097D01*
X164997190Y-130327097D02*
X165027428Y-130387573D01*
X165027428Y-130387573D02*
X165087904Y-130448050D01*
X165087904Y-130448050D02*
X165178619Y-130478288D01*
X165178619Y-130478288D02*
X165239095Y-130478288D01*
X165239095Y-130478288D02*
X165329809Y-130448050D01*
X165329809Y-130448050D02*
X165360047Y-130417811D01*
X165360047Y-130417811D02*
X165360047Y-130206145D01*
X165360047Y-130206145D02*
X165239095Y-130206145D01*
X165632190Y-130478288D02*
X165632190Y-129843288D01*
X165632190Y-129843288D02*
X165995047Y-130478288D01*
X165995047Y-130478288D02*
X165995047Y-129843288D01*
X166297428Y-130478288D02*
X166297428Y-129843288D01*
X166297428Y-129843288D02*
X166448618Y-129843288D01*
X166448618Y-129843288D02*
X166539333Y-129873526D01*
X166539333Y-129873526D02*
X166599809Y-129934002D01*
X166599809Y-129934002D02*
X166630047Y-129994478D01*
X166630047Y-129994478D02*
X166660285Y-130115430D01*
X166660285Y-130115430D02*
X166660285Y-130206145D01*
X166660285Y-130206145D02*
X166630047Y-130327097D01*
X166630047Y-130327097D02*
X166599809Y-130387573D01*
X166599809Y-130387573D02*
X166539333Y-130448050D01*
X166539333Y-130448050D02*
X166448618Y-130478288D01*
X166448618Y-130478288D02*
X166297428Y-130478288D01*
X167416238Y-130478288D02*
X167416238Y-129843288D01*
X167416238Y-129843288D02*
X167658143Y-129843288D01*
X167658143Y-129843288D02*
X167718619Y-129873526D01*
X167718619Y-129873526D02*
X167748857Y-129903764D01*
X167748857Y-129903764D02*
X167779095Y-129964240D01*
X167779095Y-129964240D02*
X167779095Y-130054954D01*
X167779095Y-130054954D02*
X167748857Y-130115430D01*
X167748857Y-130115430D02*
X167718619Y-130145669D01*
X167718619Y-130145669D02*
X167658143Y-130175907D01*
X167658143Y-130175907D02*
X167416238Y-130175907D01*
X167990762Y-129843288D02*
X168383857Y-129843288D01*
X168383857Y-129843288D02*
X168172190Y-130085192D01*
X168172190Y-130085192D02*
X168262905Y-130085192D01*
X168262905Y-130085192D02*
X168323381Y-130115430D01*
X168323381Y-130115430D02*
X168353619Y-130145669D01*
X168353619Y-130145669D02*
X168383857Y-130206145D01*
X168383857Y-130206145D02*
X168383857Y-130357335D01*
X168383857Y-130357335D02*
X168353619Y-130417811D01*
X168353619Y-130417811D02*
X168323381Y-130448050D01*
X168323381Y-130448050D02*
X168262905Y-130478288D01*
X168262905Y-130478288D02*
X168081476Y-130478288D01*
X168081476Y-130478288D02*
X168021000Y-130448050D01*
X168021000Y-130448050D02*
X167990762Y-130417811D01*
X169079334Y-129843288D02*
X169472429Y-129843288D01*
X169472429Y-129843288D02*
X169260762Y-130085192D01*
X169260762Y-130085192D02*
X169351477Y-130085192D01*
X169351477Y-130085192D02*
X169411953Y-130115430D01*
X169411953Y-130115430D02*
X169442191Y-130145669D01*
X169442191Y-130145669D02*
X169472429Y-130206145D01*
X169472429Y-130206145D02*
X169472429Y-130357335D01*
X169472429Y-130357335D02*
X169442191Y-130417811D01*
X169442191Y-130417811D02*
X169411953Y-130448050D01*
X169411953Y-130448050D02*
X169351477Y-130478288D01*
X169351477Y-130478288D02*
X169170048Y-130478288D01*
X169170048Y-130478288D02*
X169109572Y-130448050D01*
X169109572Y-130448050D02*
X169079334Y-130417811D01*
X169744572Y-130417811D02*
X169774810Y-130448050D01*
X169774810Y-130448050D02*
X169744572Y-130478288D01*
X169744572Y-130478288D02*
X169714334Y-130448050D01*
X169714334Y-130448050D02*
X169744572Y-130417811D01*
X169744572Y-130417811D02*
X169744572Y-130478288D01*
X169986477Y-129843288D02*
X170379572Y-129843288D01*
X170379572Y-129843288D02*
X170167905Y-130085192D01*
X170167905Y-130085192D02*
X170258620Y-130085192D01*
X170258620Y-130085192D02*
X170319096Y-130115430D01*
X170319096Y-130115430D02*
X170349334Y-130145669D01*
X170349334Y-130145669D02*
X170379572Y-130206145D01*
X170379572Y-130206145D02*
X170379572Y-130357335D01*
X170379572Y-130357335D02*
X170349334Y-130417811D01*
X170349334Y-130417811D02*
X170319096Y-130448050D01*
X170319096Y-130448050D02*
X170258620Y-130478288D01*
X170258620Y-130478288D02*
X170077191Y-130478288D01*
X170077191Y-130478288D02*
X170016715Y-130448050D01*
X170016715Y-130448050D02*
X169986477Y-130417811D01*
X170561001Y-129843288D02*
X170772667Y-130478288D01*
X170772667Y-130478288D02*
X170984334Y-129843288D01*
D10*
%TO.C,J16*%
X161623476Y-92680619D02*
X161623476Y-93394904D01*
X161623476Y-93394904D02*
X161575857Y-93537761D01*
X161575857Y-93537761D02*
X161480619Y-93633000D01*
X161480619Y-93633000D02*
X161337762Y-93680619D01*
X161337762Y-93680619D02*
X161242524Y-93680619D01*
X162623476Y-93680619D02*
X162052048Y-93680619D01*
X162337762Y-93680619D02*
X162337762Y-92680619D01*
X162337762Y-92680619D02*
X162242524Y-92823476D01*
X162242524Y-92823476D02*
X162147286Y-92918714D01*
X162147286Y-92918714D02*
X162052048Y-92966333D01*
X163480619Y-92680619D02*
X163290143Y-92680619D01*
X163290143Y-92680619D02*
X163194905Y-92728238D01*
X163194905Y-92728238D02*
X163147286Y-92775857D01*
X163147286Y-92775857D02*
X163052048Y-92918714D01*
X163052048Y-92918714D02*
X163004429Y-93109190D01*
X163004429Y-93109190D02*
X163004429Y-93490142D01*
X163004429Y-93490142D02*
X163052048Y-93585380D01*
X163052048Y-93585380D02*
X163099667Y-93633000D01*
X163099667Y-93633000D02*
X163194905Y-93680619D01*
X163194905Y-93680619D02*
X163385381Y-93680619D01*
X163385381Y-93680619D02*
X163480619Y-93633000D01*
X163480619Y-93633000D02*
X163528238Y-93585380D01*
X163528238Y-93585380D02*
X163575857Y-93490142D01*
X163575857Y-93490142D02*
X163575857Y-93252047D01*
X163575857Y-93252047D02*
X163528238Y-93156809D01*
X163528238Y-93156809D02*
X163480619Y-93109190D01*
X163480619Y-93109190D02*
X163385381Y-93061571D01*
X163385381Y-93061571D02*
X163194905Y-93061571D01*
X163194905Y-93061571D02*
X163099667Y-93109190D01*
X163099667Y-93109190D02*
X163052048Y-93156809D01*
X163052048Y-93156809D02*
X163004429Y-93252047D01*
%TO.C,J4*%
X111299666Y-78549619D02*
X111299666Y-79263904D01*
X111299666Y-79263904D02*
X111252047Y-79406761D01*
X111252047Y-79406761D02*
X111156809Y-79502000D01*
X111156809Y-79502000D02*
X111013952Y-79549619D01*
X111013952Y-79549619D02*
X110918714Y-79549619D01*
X112204428Y-78882952D02*
X112204428Y-79549619D01*
X111966333Y-78502000D02*
X111728238Y-79216285D01*
X111728238Y-79216285D02*
X112347285Y-79216285D01*
%TO.C,U2*%
X147163619Y-68325904D02*
X147973142Y-68325904D01*
X147973142Y-68325904D02*
X148068380Y-68278285D01*
X148068380Y-68278285D02*
X148116000Y-68230666D01*
X148116000Y-68230666D02*
X148163619Y-68135428D01*
X148163619Y-68135428D02*
X148163619Y-67944952D01*
X148163619Y-67944952D02*
X148116000Y-67849714D01*
X148116000Y-67849714D02*
X148068380Y-67802095D01*
X148068380Y-67802095D02*
X147973142Y-67754476D01*
X147973142Y-67754476D02*
X147163619Y-67754476D01*
X147258857Y-67325904D02*
X147211238Y-67278285D01*
X147211238Y-67278285D02*
X147163619Y-67183047D01*
X147163619Y-67183047D02*
X147163619Y-66944952D01*
X147163619Y-66944952D02*
X147211238Y-66849714D01*
X147211238Y-66849714D02*
X147258857Y-66802095D01*
X147258857Y-66802095D02*
X147354095Y-66754476D01*
X147354095Y-66754476D02*
X147449333Y-66754476D01*
X147449333Y-66754476D02*
X147592190Y-66802095D01*
X147592190Y-66802095D02*
X148163619Y-67373523D01*
X148163619Y-67373523D02*
X148163619Y-66754476D01*
%TO.C,J9*%
X103933666Y-109615619D02*
X103933666Y-110329904D01*
X103933666Y-110329904D02*
X103886047Y-110472761D01*
X103886047Y-110472761D02*
X103790809Y-110568000D01*
X103790809Y-110568000D02*
X103647952Y-110615619D01*
X103647952Y-110615619D02*
X103552714Y-110615619D01*
X104457476Y-110615619D02*
X104647952Y-110615619D01*
X104647952Y-110615619D02*
X104743190Y-110568000D01*
X104743190Y-110568000D02*
X104790809Y-110520380D01*
X104790809Y-110520380D02*
X104886047Y-110377523D01*
X104886047Y-110377523D02*
X104933666Y-110187047D01*
X104933666Y-110187047D02*
X104933666Y-109806095D01*
X104933666Y-109806095D02*
X104886047Y-109710857D01*
X104886047Y-109710857D02*
X104838428Y-109663238D01*
X104838428Y-109663238D02*
X104743190Y-109615619D01*
X104743190Y-109615619D02*
X104552714Y-109615619D01*
X104552714Y-109615619D02*
X104457476Y-109663238D01*
X104457476Y-109663238D02*
X104409857Y-109710857D01*
X104409857Y-109710857D02*
X104362238Y-109806095D01*
X104362238Y-109806095D02*
X104362238Y-110044190D01*
X104362238Y-110044190D02*
X104409857Y-110139428D01*
X104409857Y-110139428D02*
X104457476Y-110187047D01*
X104457476Y-110187047D02*
X104552714Y-110234666D01*
X104552714Y-110234666D02*
X104743190Y-110234666D01*
X104743190Y-110234666D02*
X104838428Y-110187047D01*
X104838428Y-110187047D02*
X104886047Y-110139428D01*
X104886047Y-110139428D02*
X104933666Y-110044190D01*
X106773000Y-98195048D02*
X106725380Y-98337905D01*
X106725380Y-98337905D02*
X106725380Y-98576000D01*
X106725380Y-98576000D02*
X106773000Y-98671238D01*
X106773000Y-98671238D02*
X106820619Y-98718857D01*
X106820619Y-98718857D02*
X106915857Y-98766476D01*
X106915857Y-98766476D02*
X107011095Y-98766476D01*
X107011095Y-98766476D02*
X107106333Y-98718857D01*
X107106333Y-98718857D02*
X107153952Y-98671238D01*
X107153952Y-98671238D02*
X107201571Y-98576000D01*
X107201571Y-98576000D02*
X107249190Y-98385524D01*
X107249190Y-98385524D02*
X107296809Y-98290286D01*
X107296809Y-98290286D02*
X107344428Y-98242667D01*
X107344428Y-98242667D02*
X107439666Y-98195048D01*
X107439666Y-98195048D02*
X107534904Y-98195048D01*
X107534904Y-98195048D02*
X107630142Y-98242667D01*
X107630142Y-98242667D02*
X107677761Y-98290286D01*
X107677761Y-98290286D02*
X107725380Y-98385524D01*
X107725380Y-98385524D02*
X107725380Y-98623619D01*
X107725380Y-98623619D02*
X107677761Y-98766476D01*
X106725380Y-99195048D02*
X107725380Y-99195048D01*
X107725380Y-99195048D02*
X107725380Y-99576000D01*
X107725380Y-99576000D02*
X107677761Y-99671238D01*
X107677761Y-99671238D02*
X107630142Y-99718857D01*
X107630142Y-99718857D02*
X107534904Y-99766476D01*
X107534904Y-99766476D02*
X107392047Y-99766476D01*
X107392047Y-99766476D02*
X107296809Y-99718857D01*
X107296809Y-99718857D02*
X107249190Y-99671238D01*
X107249190Y-99671238D02*
X107201571Y-99576000D01*
X107201571Y-99576000D02*
X107201571Y-99195048D01*
X106725380Y-100195048D02*
X107725380Y-100195048D01*
X106725380Y-101956952D02*
X106725380Y-101385524D01*
X106725380Y-101671238D02*
X107725380Y-101671238D01*
X107725380Y-101671238D02*
X107582523Y-101576000D01*
X107582523Y-101576000D02*
X107487285Y-101480762D01*
X107487285Y-101480762D02*
X107439666Y-101385524D01*
%TO.C,C1*%
X161276380Y-64936666D02*
X161324000Y-64984285D01*
X161324000Y-64984285D02*
X161371619Y-65127142D01*
X161371619Y-65127142D02*
X161371619Y-65222380D01*
X161371619Y-65222380D02*
X161324000Y-65365237D01*
X161324000Y-65365237D02*
X161228761Y-65460475D01*
X161228761Y-65460475D02*
X161133523Y-65508094D01*
X161133523Y-65508094D02*
X160943047Y-65555713D01*
X160943047Y-65555713D02*
X160800190Y-65555713D01*
X160800190Y-65555713D02*
X160609714Y-65508094D01*
X160609714Y-65508094D02*
X160514476Y-65460475D01*
X160514476Y-65460475D02*
X160419238Y-65365237D01*
X160419238Y-65365237D02*
X160371619Y-65222380D01*
X160371619Y-65222380D02*
X160371619Y-65127142D01*
X160371619Y-65127142D02*
X160419238Y-64984285D01*
X160419238Y-64984285D02*
X160466857Y-64936666D01*
X161371619Y-63984285D02*
X161371619Y-64555713D01*
X161371619Y-64269999D02*
X160371619Y-64269999D01*
X160371619Y-64269999D02*
X160514476Y-64365237D01*
X160514476Y-64365237D02*
X160609714Y-64460475D01*
X160609714Y-64460475D02*
X160657333Y-64555713D01*
%TO.C,J11*%
X159482619Y-102409523D02*
X160196904Y-102409523D01*
X160196904Y-102409523D02*
X160339761Y-102457142D01*
X160339761Y-102457142D02*
X160435000Y-102552380D01*
X160435000Y-102552380D02*
X160482619Y-102695237D01*
X160482619Y-102695237D02*
X160482619Y-102790475D01*
X160482619Y-101409523D02*
X160482619Y-101980951D01*
X160482619Y-101695237D02*
X159482619Y-101695237D01*
X159482619Y-101695237D02*
X159625476Y-101790475D01*
X159625476Y-101790475D02*
X159720714Y-101885713D01*
X159720714Y-101885713D02*
X159768333Y-101980951D01*
X160482619Y-100457142D02*
X160482619Y-101028570D01*
X160482619Y-100742856D02*
X159482619Y-100742856D01*
X159482619Y-100742856D02*
X159625476Y-100838094D01*
X159625476Y-100838094D02*
X159720714Y-100933332D01*
X159720714Y-100933332D02*
X159768333Y-101028570D01*
%TO.C,H2*%
X108204095Y-72227619D02*
X108204095Y-71227619D01*
X108204095Y-71703809D02*
X108775523Y-71703809D01*
X108775523Y-72227619D02*
X108775523Y-71227619D01*
X109204095Y-71322857D02*
X109251714Y-71275238D01*
X109251714Y-71275238D02*
X109346952Y-71227619D01*
X109346952Y-71227619D02*
X109585047Y-71227619D01*
X109585047Y-71227619D02*
X109680285Y-71275238D01*
X109680285Y-71275238D02*
X109727904Y-71322857D01*
X109727904Y-71322857D02*
X109775523Y-71418095D01*
X109775523Y-71418095D02*
X109775523Y-71513333D01*
X109775523Y-71513333D02*
X109727904Y-71656190D01*
X109727904Y-71656190D02*
X109156476Y-72227619D01*
X109156476Y-72227619D02*
X109775523Y-72227619D01*
%TO.C,H3*%
X158242095Y-122900619D02*
X158242095Y-121900619D01*
X158242095Y-122376809D02*
X158813523Y-122376809D01*
X158813523Y-122900619D02*
X158813523Y-121900619D01*
X159194476Y-121900619D02*
X159813523Y-121900619D01*
X159813523Y-121900619D02*
X159480190Y-122281571D01*
X159480190Y-122281571D02*
X159623047Y-122281571D01*
X159623047Y-122281571D02*
X159718285Y-122329190D01*
X159718285Y-122329190D02*
X159765904Y-122376809D01*
X159765904Y-122376809D02*
X159813523Y-122472047D01*
X159813523Y-122472047D02*
X159813523Y-122710142D01*
X159813523Y-122710142D02*
X159765904Y-122805380D01*
X159765904Y-122805380D02*
X159718285Y-122853000D01*
X159718285Y-122853000D02*
X159623047Y-122900619D01*
X159623047Y-122900619D02*
X159337333Y-122900619D01*
X159337333Y-122900619D02*
X159242095Y-122853000D01*
X159242095Y-122853000D02*
X159194476Y-122805380D01*
%TO.C,J15*%
X116346619Y-112950523D02*
X117060904Y-112950523D01*
X117060904Y-112950523D02*
X117203761Y-112998142D01*
X117203761Y-112998142D02*
X117299000Y-113093380D01*
X117299000Y-113093380D02*
X117346619Y-113236237D01*
X117346619Y-113236237D02*
X117346619Y-113331475D01*
X117346619Y-111950523D02*
X117346619Y-112521951D01*
X117346619Y-112236237D02*
X116346619Y-112236237D01*
X116346619Y-112236237D02*
X116489476Y-112331475D01*
X116489476Y-112331475D02*
X116584714Y-112426713D01*
X116584714Y-112426713D02*
X116632333Y-112521951D01*
X116346619Y-111045761D02*
X116346619Y-111521951D01*
X116346619Y-111521951D02*
X116822809Y-111569570D01*
X116822809Y-111569570D02*
X116775190Y-111521951D01*
X116775190Y-111521951D02*
X116727571Y-111426713D01*
X116727571Y-111426713D02*
X116727571Y-111188618D01*
X116727571Y-111188618D02*
X116775190Y-111093380D01*
X116775190Y-111093380D02*
X116822809Y-111045761D01*
X116822809Y-111045761D02*
X116918047Y-110998142D01*
X116918047Y-110998142D02*
X117156142Y-110998142D01*
X117156142Y-110998142D02*
X117251380Y-111045761D01*
X117251380Y-111045761D02*
X117299000Y-111093380D01*
X117299000Y-111093380D02*
X117346619Y-111188618D01*
X117346619Y-111188618D02*
X117346619Y-111426713D01*
X117346619Y-111426713D02*
X117299000Y-111521951D01*
X117299000Y-111521951D02*
X117251380Y-111569570D01*
X110051380Y-114045761D02*
X110099000Y-114093380D01*
X110099000Y-114093380D02*
X110146619Y-114236237D01*
X110146619Y-114236237D02*
X110146619Y-114331475D01*
X110146619Y-114331475D02*
X110099000Y-114474332D01*
X110099000Y-114474332D02*
X110003761Y-114569570D01*
X110003761Y-114569570D02*
X109908523Y-114617189D01*
X109908523Y-114617189D02*
X109718047Y-114664808D01*
X109718047Y-114664808D02*
X109575190Y-114664808D01*
X109575190Y-114664808D02*
X109384714Y-114617189D01*
X109384714Y-114617189D02*
X109289476Y-114569570D01*
X109289476Y-114569570D02*
X109194238Y-114474332D01*
X109194238Y-114474332D02*
X109146619Y-114331475D01*
X109146619Y-114331475D02*
X109146619Y-114236237D01*
X109146619Y-114236237D02*
X109194238Y-114093380D01*
X109194238Y-114093380D02*
X109241857Y-114045761D01*
X109146619Y-113426713D02*
X109146619Y-113236237D01*
X109146619Y-113236237D02*
X109194238Y-113140999D01*
X109194238Y-113140999D02*
X109289476Y-113045761D01*
X109289476Y-113045761D02*
X109479952Y-112998142D01*
X109479952Y-112998142D02*
X109813285Y-112998142D01*
X109813285Y-112998142D02*
X110003761Y-113045761D01*
X110003761Y-113045761D02*
X110099000Y-113140999D01*
X110099000Y-113140999D02*
X110146619Y-113236237D01*
X110146619Y-113236237D02*
X110146619Y-113426713D01*
X110146619Y-113426713D02*
X110099000Y-113521951D01*
X110099000Y-113521951D02*
X110003761Y-113617189D01*
X110003761Y-113617189D02*
X109813285Y-113664808D01*
X109813285Y-113664808D02*
X109479952Y-113664808D01*
X109479952Y-113664808D02*
X109289476Y-113617189D01*
X109289476Y-113617189D02*
X109194238Y-113521951D01*
X109194238Y-113521951D02*
X109146619Y-113426713D01*
X110146619Y-112569570D02*
X109146619Y-112569570D01*
X109146619Y-112569570D02*
X110146619Y-111998142D01*
X110146619Y-111998142D02*
X109146619Y-111998142D01*
X109622809Y-111188618D02*
X109622809Y-111521951D01*
X110146619Y-111521951D02*
X109146619Y-111521951D01*
X109146619Y-111521951D02*
X109146619Y-111045761D01*
X110146619Y-110664808D02*
X109146619Y-110664808D01*
X109194238Y-109664809D02*
X109146619Y-109760047D01*
X109146619Y-109760047D02*
X109146619Y-109902904D01*
X109146619Y-109902904D02*
X109194238Y-110045761D01*
X109194238Y-110045761D02*
X109289476Y-110140999D01*
X109289476Y-110140999D02*
X109384714Y-110188618D01*
X109384714Y-110188618D02*
X109575190Y-110236237D01*
X109575190Y-110236237D02*
X109718047Y-110236237D01*
X109718047Y-110236237D02*
X109908523Y-110188618D01*
X109908523Y-110188618D02*
X110003761Y-110140999D01*
X110003761Y-110140999D02*
X110099000Y-110045761D01*
X110099000Y-110045761D02*
X110146619Y-109902904D01*
X110146619Y-109902904D02*
X110146619Y-109807666D01*
X110146619Y-109807666D02*
X110099000Y-109664809D01*
X110099000Y-109664809D02*
X110051380Y-109617190D01*
X110051380Y-109617190D02*
X109718047Y-109617190D01*
X109718047Y-109617190D02*
X109718047Y-109807666D01*
%TO.C,J1*%
X119808666Y-69312619D02*
X119808666Y-70026904D01*
X119808666Y-70026904D02*
X119761047Y-70169761D01*
X119761047Y-70169761D02*
X119665809Y-70265000D01*
X119665809Y-70265000D02*
X119522952Y-70312619D01*
X119522952Y-70312619D02*
X119427714Y-70312619D01*
X120808666Y-70312619D02*
X120237238Y-70312619D01*
X120522952Y-70312619D02*
X120522952Y-69312619D01*
X120522952Y-69312619D02*
X120427714Y-69455476D01*
X120427714Y-69455476D02*
X120332476Y-69550714D01*
X120332476Y-69550714D02*
X120237238Y-69598333D01*
%TO.C,U1*%
X146097595Y-112238619D02*
X146097595Y-113048142D01*
X146097595Y-113048142D02*
X146145214Y-113143380D01*
X146145214Y-113143380D02*
X146192833Y-113191000D01*
X146192833Y-113191000D02*
X146288071Y-113238619D01*
X146288071Y-113238619D02*
X146478547Y-113238619D01*
X146478547Y-113238619D02*
X146573785Y-113191000D01*
X146573785Y-113191000D02*
X146621404Y-113143380D01*
X146621404Y-113143380D02*
X146669023Y-113048142D01*
X146669023Y-113048142D02*
X146669023Y-112238619D01*
X147669023Y-113238619D02*
X147097595Y-113238619D01*
X147383309Y-113238619D02*
X147383309Y-112238619D01*
X147383309Y-112238619D02*
X147288071Y-112381476D01*
X147288071Y-112381476D02*
X147192833Y-112476714D01*
X147192833Y-112476714D02*
X147097595Y-112524333D01*
%TO.C,R2*%
X156926619Y-98210666D02*
X156450428Y-98543999D01*
X156926619Y-98782094D02*
X155926619Y-98782094D01*
X155926619Y-98782094D02*
X155926619Y-98401142D01*
X155926619Y-98401142D02*
X155974238Y-98305904D01*
X155974238Y-98305904D02*
X156021857Y-98258285D01*
X156021857Y-98258285D02*
X156117095Y-98210666D01*
X156117095Y-98210666D02*
X156259952Y-98210666D01*
X156259952Y-98210666D02*
X156355190Y-98258285D01*
X156355190Y-98258285D02*
X156402809Y-98305904D01*
X156402809Y-98305904D02*
X156450428Y-98401142D01*
X156450428Y-98401142D02*
X156450428Y-98782094D01*
X156021857Y-97829713D02*
X155974238Y-97782094D01*
X155974238Y-97782094D02*
X155926619Y-97686856D01*
X155926619Y-97686856D02*
X155926619Y-97448761D01*
X155926619Y-97448761D02*
X155974238Y-97353523D01*
X155974238Y-97353523D02*
X156021857Y-97305904D01*
X156021857Y-97305904D02*
X156117095Y-97258285D01*
X156117095Y-97258285D02*
X156212333Y-97258285D01*
X156212333Y-97258285D02*
X156355190Y-97305904D01*
X156355190Y-97305904D02*
X156926619Y-97877332D01*
X156926619Y-97877332D02*
X156926619Y-97258285D01*
%TO.C,D1*%
X154582905Y-103769619D02*
X154582905Y-102769619D01*
X154582905Y-102769619D02*
X154821000Y-102769619D01*
X154821000Y-102769619D02*
X154963857Y-102817238D01*
X154963857Y-102817238D02*
X155059095Y-102912476D01*
X155059095Y-102912476D02*
X155106714Y-103007714D01*
X155106714Y-103007714D02*
X155154333Y-103198190D01*
X155154333Y-103198190D02*
X155154333Y-103341047D01*
X155154333Y-103341047D02*
X155106714Y-103531523D01*
X155106714Y-103531523D02*
X155059095Y-103626761D01*
X155059095Y-103626761D02*
X154963857Y-103722000D01*
X154963857Y-103722000D02*
X154821000Y-103769619D01*
X154821000Y-103769619D02*
X154582905Y-103769619D01*
X156106714Y-103769619D02*
X155535286Y-103769619D01*
X155821000Y-103769619D02*
X155821000Y-102769619D01*
X155821000Y-102769619D02*
X155725762Y-102912476D01*
X155725762Y-102912476D02*
X155630524Y-103007714D01*
X155630524Y-103007714D02*
X155535286Y-103055333D01*
X151456714Y-105669619D02*
X150885286Y-105669619D01*
X151171000Y-105669619D02*
X151171000Y-104669619D01*
X151171000Y-104669619D02*
X151075762Y-104812476D01*
X151075762Y-104812476D02*
X150980524Y-104907714D01*
X150980524Y-104907714D02*
X150885286Y-104955333D01*
%TO.C,J13*%
X154877904Y-99138952D02*
X154877904Y-98662762D01*
X155163619Y-99234190D02*
X154163619Y-98900857D01*
X154163619Y-98900857D02*
X155163619Y-98567524D01*
X154496952Y-98234190D02*
X155163619Y-98234190D01*
X154592190Y-98234190D02*
X154544571Y-98186571D01*
X154544571Y-98186571D02*
X154496952Y-98091333D01*
X154496952Y-98091333D02*
X154496952Y-97948476D01*
X154496952Y-97948476D02*
X154544571Y-97853238D01*
X154544571Y-97853238D02*
X154639809Y-97805619D01*
X154639809Y-97805619D02*
X155163619Y-97805619D01*
X155163619Y-96900857D02*
X154639809Y-96900857D01*
X154639809Y-96900857D02*
X154544571Y-96948476D01*
X154544571Y-96948476D02*
X154496952Y-97043714D01*
X154496952Y-97043714D02*
X154496952Y-97234190D01*
X154496952Y-97234190D02*
X154544571Y-97329428D01*
X155116000Y-96900857D02*
X155163619Y-96996095D01*
X155163619Y-96996095D02*
X155163619Y-97234190D01*
X155163619Y-97234190D02*
X155116000Y-97329428D01*
X155116000Y-97329428D02*
X155020761Y-97377047D01*
X155020761Y-97377047D02*
X154925523Y-97377047D01*
X154925523Y-97377047D02*
X154830285Y-97329428D01*
X154830285Y-97329428D02*
X154782666Y-97234190D01*
X154782666Y-97234190D02*
X154782666Y-96996095D01*
X154782666Y-96996095D02*
X154735047Y-96900857D01*
X155163619Y-96281809D02*
X155116000Y-96377047D01*
X155116000Y-96377047D02*
X155020761Y-96424666D01*
X155020761Y-96424666D02*
X154163619Y-96424666D01*
X155163619Y-95757999D02*
X155116000Y-95853237D01*
X155116000Y-95853237D02*
X155068380Y-95900856D01*
X155068380Y-95900856D02*
X154973142Y-95948475D01*
X154973142Y-95948475D02*
X154687428Y-95948475D01*
X154687428Y-95948475D02*
X154592190Y-95900856D01*
X154592190Y-95900856D02*
X154544571Y-95853237D01*
X154544571Y-95853237D02*
X154496952Y-95757999D01*
X154496952Y-95757999D02*
X154496952Y-95615142D01*
X154496952Y-95615142D02*
X154544571Y-95519904D01*
X154544571Y-95519904D02*
X154592190Y-95472285D01*
X154592190Y-95472285D02*
X154687428Y-95424666D01*
X154687428Y-95424666D02*
X154973142Y-95424666D01*
X154973142Y-95424666D02*
X155068380Y-95472285D01*
X155068380Y-95472285D02*
X155116000Y-95519904D01*
X155116000Y-95519904D02*
X155163619Y-95615142D01*
X155163619Y-95615142D02*
X155163619Y-95757999D01*
X154496952Y-94567523D02*
X155306476Y-94567523D01*
X155306476Y-94567523D02*
X155401714Y-94615142D01*
X155401714Y-94615142D02*
X155449333Y-94662761D01*
X155449333Y-94662761D02*
X155496952Y-94757999D01*
X155496952Y-94757999D02*
X155496952Y-94900856D01*
X155496952Y-94900856D02*
X155449333Y-94996094D01*
X155116000Y-94567523D02*
X155163619Y-94662761D01*
X155163619Y-94662761D02*
X155163619Y-94853237D01*
X155163619Y-94853237D02*
X155116000Y-94948475D01*
X155116000Y-94948475D02*
X155068380Y-94996094D01*
X155068380Y-94996094D02*
X154973142Y-95043713D01*
X154973142Y-95043713D02*
X154687428Y-95043713D01*
X154687428Y-95043713D02*
X154592190Y-94996094D01*
X154592190Y-94996094D02*
X154544571Y-94948475D01*
X154544571Y-94948475D02*
X154496952Y-94853237D01*
X154496952Y-94853237D02*
X154496952Y-94662761D01*
X154496952Y-94662761D02*
X154544571Y-94567523D01*
X155163619Y-93329427D02*
X154163619Y-93329427D01*
X154496952Y-92853237D02*
X155163619Y-92853237D01*
X154592190Y-92853237D02*
X154544571Y-92805618D01*
X154544571Y-92805618D02*
X154496952Y-92710380D01*
X154496952Y-92710380D02*
X154496952Y-92567523D01*
X154496952Y-92567523D02*
X154544571Y-92472285D01*
X154544571Y-92472285D02*
X154639809Y-92424666D01*
X154639809Y-92424666D02*
X155163619Y-92424666D01*
%TO.C,H1*%
X148209095Y-74513619D02*
X148209095Y-73513619D01*
X148209095Y-73989809D02*
X148780523Y-73989809D01*
X148780523Y-74513619D02*
X148780523Y-73513619D01*
X149780523Y-74513619D02*
X149209095Y-74513619D01*
X149494809Y-74513619D02*
X149494809Y-73513619D01*
X149494809Y-73513619D02*
X149399571Y-73656476D01*
X149399571Y-73656476D02*
X149304333Y-73751714D01*
X149304333Y-73751714D02*
X149209095Y-73799333D01*
%TO.C,J2*%
X102028666Y-78549619D02*
X102028666Y-79263904D01*
X102028666Y-79263904D02*
X101981047Y-79406761D01*
X101981047Y-79406761D02*
X101885809Y-79502000D01*
X101885809Y-79502000D02*
X101742952Y-79549619D01*
X101742952Y-79549619D02*
X101647714Y-79549619D01*
X102457238Y-78644857D02*
X102504857Y-78597238D01*
X102504857Y-78597238D02*
X102600095Y-78549619D01*
X102600095Y-78549619D02*
X102838190Y-78549619D01*
X102838190Y-78549619D02*
X102933428Y-78597238D01*
X102933428Y-78597238D02*
X102981047Y-78644857D01*
X102981047Y-78644857D02*
X103028666Y-78740095D01*
X103028666Y-78740095D02*
X103028666Y-78835333D01*
X103028666Y-78835333D02*
X102981047Y-78978190D01*
X102981047Y-78978190D02*
X102409619Y-79549619D01*
X102409619Y-79549619D02*
X103028666Y-79549619D01*
X100528667Y-92283619D02*
X100528667Y-91283619D01*
X100957238Y-91378857D02*
X101004857Y-91331238D01*
X101004857Y-91331238D02*
X101100095Y-91283619D01*
X101100095Y-91283619D02*
X101338190Y-91283619D01*
X101338190Y-91283619D02*
X101433428Y-91331238D01*
X101433428Y-91331238D02*
X101481047Y-91378857D01*
X101481047Y-91378857D02*
X101528666Y-91474095D01*
X101528666Y-91474095D02*
X101528666Y-91569333D01*
X101528666Y-91569333D02*
X101481047Y-91712190D01*
X101481047Y-91712190D02*
X100909619Y-92283619D01*
X100909619Y-92283619D02*
X101528666Y-92283619D01*
X102528666Y-92188380D02*
X102481047Y-92236000D01*
X102481047Y-92236000D02*
X102338190Y-92283619D01*
X102338190Y-92283619D02*
X102242952Y-92283619D01*
X102242952Y-92283619D02*
X102100095Y-92236000D01*
X102100095Y-92236000D02*
X102004857Y-92140761D01*
X102004857Y-92140761D02*
X101957238Y-92045523D01*
X101957238Y-92045523D02*
X101909619Y-91855047D01*
X101909619Y-91855047D02*
X101909619Y-91712190D01*
X101909619Y-91712190D02*
X101957238Y-91521714D01*
X101957238Y-91521714D02*
X102004857Y-91426476D01*
X102004857Y-91426476D02*
X102100095Y-91331238D01*
X102100095Y-91331238D02*
X102242952Y-91283619D01*
X102242952Y-91283619D02*
X102338190Y-91283619D01*
X102338190Y-91283619D02*
X102481047Y-91331238D01*
X102481047Y-91331238D02*
X102528666Y-91378857D01*
X103909619Y-91283619D02*
X104004857Y-91283619D01*
X104004857Y-91283619D02*
X104100095Y-91331238D01*
X104100095Y-91331238D02*
X104147714Y-91378857D01*
X104147714Y-91378857D02*
X104195333Y-91474095D01*
X104195333Y-91474095D02*
X104242952Y-91664571D01*
X104242952Y-91664571D02*
X104242952Y-91902666D01*
X104242952Y-91902666D02*
X104195333Y-92093142D01*
X104195333Y-92093142D02*
X104147714Y-92188380D01*
X104147714Y-92188380D02*
X104100095Y-92236000D01*
X104100095Y-92236000D02*
X104004857Y-92283619D01*
X104004857Y-92283619D02*
X103909619Y-92283619D01*
X103909619Y-92283619D02*
X103814381Y-92236000D01*
X103814381Y-92236000D02*
X103766762Y-92188380D01*
X103766762Y-92188380D02*
X103719143Y-92093142D01*
X103719143Y-92093142D02*
X103671524Y-91902666D01*
X103671524Y-91902666D02*
X103671524Y-91664571D01*
X103671524Y-91664571D02*
X103719143Y-91474095D01*
X103719143Y-91474095D02*
X103766762Y-91378857D01*
X103766762Y-91378857D02*
X103814381Y-91331238D01*
X103814381Y-91331238D02*
X103909619Y-91283619D01*
%TO.C,C2*%
X153376333Y-73011380D02*
X153328714Y-73059000D01*
X153328714Y-73059000D02*
X153185857Y-73106619D01*
X153185857Y-73106619D02*
X153090619Y-73106619D01*
X153090619Y-73106619D02*
X152947762Y-73059000D01*
X152947762Y-73059000D02*
X152852524Y-72963761D01*
X152852524Y-72963761D02*
X152804905Y-72868523D01*
X152804905Y-72868523D02*
X152757286Y-72678047D01*
X152757286Y-72678047D02*
X152757286Y-72535190D01*
X152757286Y-72535190D02*
X152804905Y-72344714D01*
X152804905Y-72344714D02*
X152852524Y-72249476D01*
X152852524Y-72249476D02*
X152947762Y-72154238D01*
X152947762Y-72154238D02*
X153090619Y-72106619D01*
X153090619Y-72106619D02*
X153185857Y-72106619D01*
X153185857Y-72106619D02*
X153328714Y-72154238D01*
X153328714Y-72154238D02*
X153376333Y-72201857D01*
X153757286Y-72201857D02*
X153804905Y-72154238D01*
X153804905Y-72154238D02*
X153900143Y-72106619D01*
X153900143Y-72106619D02*
X154138238Y-72106619D01*
X154138238Y-72106619D02*
X154233476Y-72154238D01*
X154233476Y-72154238D02*
X154281095Y-72201857D01*
X154281095Y-72201857D02*
X154328714Y-72297095D01*
X154328714Y-72297095D02*
X154328714Y-72392333D01*
X154328714Y-72392333D02*
X154281095Y-72535190D01*
X154281095Y-72535190D02*
X153709667Y-73106619D01*
X153709667Y-73106619D02*
X154328714Y-73106619D01*
%TO.C,R3*%
X150582333Y-91902619D02*
X150249000Y-91426428D01*
X150010905Y-91902619D02*
X150010905Y-90902619D01*
X150010905Y-90902619D02*
X150391857Y-90902619D01*
X150391857Y-90902619D02*
X150487095Y-90950238D01*
X150487095Y-90950238D02*
X150534714Y-90997857D01*
X150534714Y-90997857D02*
X150582333Y-91093095D01*
X150582333Y-91093095D02*
X150582333Y-91235952D01*
X150582333Y-91235952D02*
X150534714Y-91331190D01*
X150534714Y-91331190D02*
X150487095Y-91378809D01*
X150487095Y-91378809D02*
X150391857Y-91426428D01*
X150391857Y-91426428D02*
X150010905Y-91426428D01*
X150915667Y-90902619D02*
X151534714Y-90902619D01*
X151534714Y-90902619D02*
X151201381Y-91283571D01*
X151201381Y-91283571D02*
X151344238Y-91283571D01*
X151344238Y-91283571D02*
X151439476Y-91331190D01*
X151439476Y-91331190D02*
X151487095Y-91378809D01*
X151487095Y-91378809D02*
X151534714Y-91474047D01*
X151534714Y-91474047D02*
X151534714Y-91712142D01*
X151534714Y-91712142D02*
X151487095Y-91807380D01*
X151487095Y-91807380D02*
X151439476Y-91855000D01*
X151439476Y-91855000D02*
X151344238Y-91902619D01*
X151344238Y-91902619D02*
X151058524Y-91902619D01*
X151058524Y-91902619D02*
X150963286Y-91855000D01*
X150963286Y-91855000D02*
X150915667Y-91807380D01*
%TO.C,Q1*%
X148512857Y-94075238D02*
X148465238Y-94170476D01*
X148465238Y-94170476D02*
X148370000Y-94265714D01*
X148370000Y-94265714D02*
X148227142Y-94408571D01*
X148227142Y-94408571D02*
X148179523Y-94503809D01*
X148179523Y-94503809D02*
X148179523Y-94599047D01*
X148417619Y-94551428D02*
X148370000Y-94646666D01*
X148370000Y-94646666D02*
X148274761Y-94741904D01*
X148274761Y-94741904D02*
X148084285Y-94789523D01*
X148084285Y-94789523D02*
X147750952Y-94789523D01*
X147750952Y-94789523D02*
X147560476Y-94741904D01*
X147560476Y-94741904D02*
X147465238Y-94646666D01*
X147465238Y-94646666D02*
X147417619Y-94551428D01*
X147417619Y-94551428D02*
X147417619Y-94360952D01*
X147417619Y-94360952D02*
X147465238Y-94265714D01*
X147465238Y-94265714D02*
X147560476Y-94170476D01*
X147560476Y-94170476D02*
X147750952Y-94122857D01*
X147750952Y-94122857D02*
X148084285Y-94122857D01*
X148084285Y-94122857D02*
X148274761Y-94170476D01*
X148274761Y-94170476D02*
X148370000Y-94265714D01*
X148370000Y-94265714D02*
X148417619Y-94360952D01*
X148417619Y-94360952D02*
X148417619Y-94551428D01*
X148417619Y-93170476D02*
X148417619Y-93741904D01*
X148417619Y-93456190D02*
X147417619Y-93456190D01*
X147417619Y-93456190D02*
X147560476Y-93551428D01*
X147560476Y-93551428D02*
X147655714Y-93646666D01*
X147655714Y-93646666D02*
X147703333Y-93741904D01*
%TO.C,J10*%
X102568476Y-74680619D02*
X102568476Y-75394904D01*
X102568476Y-75394904D02*
X102520857Y-75537761D01*
X102520857Y-75537761D02*
X102425619Y-75633000D01*
X102425619Y-75633000D02*
X102282762Y-75680619D01*
X102282762Y-75680619D02*
X102187524Y-75680619D01*
X103568476Y-75680619D02*
X102997048Y-75680619D01*
X103282762Y-75680619D02*
X103282762Y-74680619D01*
X103282762Y-74680619D02*
X103187524Y-74823476D01*
X103187524Y-74823476D02*
X103092286Y-74918714D01*
X103092286Y-74918714D02*
X102997048Y-74966333D01*
X104187524Y-74680619D02*
X104282762Y-74680619D01*
X104282762Y-74680619D02*
X104378000Y-74728238D01*
X104378000Y-74728238D02*
X104425619Y-74775857D01*
X104425619Y-74775857D02*
X104473238Y-74871095D01*
X104473238Y-74871095D02*
X104520857Y-75061571D01*
X104520857Y-75061571D02*
X104520857Y-75299666D01*
X104520857Y-75299666D02*
X104473238Y-75490142D01*
X104473238Y-75490142D02*
X104425619Y-75585380D01*
X104425619Y-75585380D02*
X104378000Y-75633000D01*
X104378000Y-75633000D02*
X104282762Y-75680619D01*
X104282762Y-75680619D02*
X104187524Y-75680619D01*
X104187524Y-75680619D02*
X104092286Y-75633000D01*
X104092286Y-75633000D02*
X104044667Y-75585380D01*
X104044667Y-75585380D02*
X103997048Y-75490142D01*
X103997048Y-75490142D02*
X103949429Y-75299666D01*
X103949429Y-75299666D02*
X103949429Y-75061571D01*
X103949429Y-75061571D02*
X103997048Y-74871095D01*
X103997048Y-74871095D02*
X104044667Y-74775857D01*
X104044667Y-74775857D02*
X104092286Y-74728238D01*
X104092286Y-74728238D02*
X104187524Y-74680619D01*
X101782762Y-62400619D02*
X101782762Y-63210142D01*
X101782762Y-63210142D02*
X101830381Y-63305380D01*
X101830381Y-63305380D02*
X101878000Y-63353000D01*
X101878000Y-63353000D02*
X101973238Y-63400619D01*
X101973238Y-63400619D02*
X102163714Y-63400619D01*
X102163714Y-63400619D02*
X102258952Y-63353000D01*
X102258952Y-63353000D02*
X102306571Y-63305380D01*
X102306571Y-63305380D02*
X102354190Y-63210142D01*
X102354190Y-63210142D02*
X102354190Y-62400619D01*
X102782762Y-63114904D02*
X103258952Y-63114904D01*
X102687524Y-63400619D02*
X103020857Y-62400619D01*
X103020857Y-62400619D02*
X103354190Y-63400619D01*
X104258952Y-63400619D02*
X103925619Y-62924428D01*
X103687524Y-63400619D02*
X103687524Y-62400619D01*
X103687524Y-62400619D02*
X104068476Y-62400619D01*
X104068476Y-62400619D02*
X104163714Y-62448238D01*
X104163714Y-62448238D02*
X104211333Y-62495857D01*
X104211333Y-62495857D02*
X104258952Y-62591095D01*
X104258952Y-62591095D02*
X104258952Y-62733952D01*
X104258952Y-62733952D02*
X104211333Y-62829190D01*
X104211333Y-62829190D02*
X104163714Y-62876809D01*
X104163714Y-62876809D02*
X104068476Y-62924428D01*
X104068476Y-62924428D02*
X103687524Y-62924428D01*
X104544667Y-62400619D02*
X105116095Y-62400619D01*
X104830381Y-63400619D02*
X104830381Y-62400619D01*
%TO.C,R4*%
X156672619Y-89701666D02*
X156196428Y-90034999D01*
X156672619Y-90273094D02*
X155672619Y-90273094D01*
X155672619Y-90273094D02*
X155672619Y-89892142D01*
X155672619Y-89892142D02*
X155720238Y-89796904D01*
X155720238Y-89796904D02*
X155767857Y-89749285D01*
X155767857Y-89749285D02*
X155863095Y-89701666D01*
X155863095Y-89701666D02*
X156005952Y-89701666D01*
X156005952Y-89701666D02*
X156101190Y-89749285D01*
X156101190Y-89749285D02*
X156148809Y-89796904D01*
X156148809Y-89796904D02*
X156196428Y-89892142D01*
X156196428Y-89892142D02*
X156196428Y-90273094D01*
X156005952Y-88844523D02*
X156672619Y-88844523D01*
X155625000Y-89082618D02*
X156339285Y-89320713D01*
X156339285Y-89320713D02*
X156339285Y-88701666D01*
%TO.C,D2*%
X154545905Y-88797619D02*
X154545905Y-87797619D01*
X154545905Y-87797619D02*
X154784000Y-87797619D01*
X154784000Y-87797619D02*
X154926857Y-87845238D01*
X154926857Y-87845238D02*
X155022095Y-87940476D01*
X155022095Y-87940476D02*
X155069714Y-88035714D01*
X155069714Y-88035714D02*
X155117333Y-88226190D01*
X155117333Y-88226190D02*
X155117333Y-88369047D01*
X155117333Y-88369047D02*
X155069714Y-88559523D01*
X155069714Y-88559523D02*
X155022095Y-88654761D01*
X155022095Y-88654761D02*
X154926857Y-88750000D01*
X154926857Y-88750000D02*
X154784000Y-88797619D01*
X154784000Y-88797619D02*
X154545905Y-88797619D01*
X155498286Y-87892857D02*
X155545905Y-87845238D01*
X155545905Y-87845238D02*
X155641143Y-87797619D01*
X155641143Y-87797619D02*
X155879238Y-87797619D01*
X155879238Y-87797619D02*
X155974476Y-87845238D01*
X155974476Y-87845238D02*
X156022095Y-87892857D01*
X156022095Y-87892857D02*
X156069714Y-87988095D01*
X156069714Y-87988095D02*
X156069714Y-88083333D01*
X156069714Y-88083333D02*
X156022095Y-88226190D01*
X156022095Y-88226190D02*
X155450667Y-88797619D01*
X155450667Y-88797619D02*
X156069714Y-88797619D01*
X159719714Y-86897619D02*
X159148286Y-86897619D01*
X159434000Y-86897619D02*
X159434000Y-85897619D01*
X159434000Y-85897619D02*
X159338762Y-86040476D01*
X159338762Y-86040476D02*
X159243524Y-86135714D01*
X159243524Y-86135714D02*
X159148286Y-86183333D01*
%TO.C,J6*%
X153181618Y-130470196D02*
X153895903Y-130470196D01*
X153895903Y-130470196D02*
X154038760Y-130517815D01*
X154038760Y-130517815D02*
X154133999Y-130613053D01*
X154133999Y-130613053D02*
X154181618Y-130755910D01*
X154181618Y-130755910D02*
X154181618Y-130851148D01*
X153181618Y-129565434D02*
X153181618Y-129755910D01*
X153181618Y-129755910D02*
X153229237Y-129851148D01*
X153229237Y-129851148D02*
X153276856Y-129898767D01*
X153276856Y-129898767D02*
X153419713Y-129994005D01*
X153419713Y-129994005D02*
X153610189Y-130041624D01*
X153610189Y-130041624D02*
X153991141Y-130041624D01*
X153991141Y-130041624D02*
X154086379Y-129994005D01*
X154086379Y-129994005D02*
X154133999Y-129946386D01*
X154133999Y-129946386D02*
X154181618Y-129851148D01*
X154181618Y-129851148D02*
X154181618Y-129660672D01*
X154181618Y-129660672D02*
X154133999Y-129565434D01*
X154133999Y-129565434D02*
X154086379Y-129517815D01*
X154086379Y-129517815D02*
X153991141Y-129470196D01*
X153991141Y-129470196D02*
X153753046Y-129470196D01*
X153753046Y-129470196D02*
X153657808Y-129517815D01*
X153657808Y-129517815D02*
X153610189Y-129565434D01*
X153610189Y-129565434D02*
X153562570Y-129660672D01*
X153562570Y-129660672D02*
X153562570Y-129851148D01*
X153562570Y-129851148D02*
X153610189Y-129946386D01*
X153610189Y-129946386D02*
X153657808Y-129994005D01*
X153657808Y-129994005D02*
X153753046Y-130041624D01*
X107666619Y-130095237D02*
X107666619Y-129523809D01*
X108666619Y-129809523D02*
X107666619Y-129809523D01*
X108666619Y-129047618D02*
X108619000Y-129142856D01*
X108619000Y-129142856D02*
X108571380Y-129190475D01*
X108571380Y-129190475D02*
X108476142Y-129238094D01*
X108476142Y-129238094D02*
X108190428Y-129238094D01*
X108190428Y-129238094D02*
X108095190Y-129190475D01*
X108095190Y-129190475D02*
X108047571Y-129142856D01*
X108047571Y-129142856D02*
X107999952Y-129047618D01*
X107999952Y-129047618D02*
X107999952Y-128904761D01*
X107999952Y-128904761D02*
X108047571Y-128809523D01*
X108047571Y-128809523D02*
X108095190Y-128761904D01*
X108095190Y-128761904D02*
X108190428Y-128714285D01*
X108190428Y-128714285D02*
X108476142Y-128714285D01*
X108476142Y-128714285D02*
X108571380Y-128761904D01*
X108571380Y-128761904D02*
X108619000Y-128809523D01*
X108619000Y-128809523D02*
X108666619Y-128904761D01*
X108666619Y-128904761D02*
X108666619Y-129047618D01*
X107999952Y-128285713D02*
X108999952Y-128285713D01*
X108047571Y-128285713D02*
X107999952Y-128190475D01*
X107999952Y-128190475D02*
X107999952Y-127999999D01*
X107999952Y-127999999D02*
X108047571Y-127904761D01*
X108047571Y-127904761D02*
X108095190Y-127857142D01*
X108095190Y-127857142D02*
X108190428Y-127809523D01*
X108190428Y-127809523D02*
X108476142Y-127809523D01*
X108476142Y-127809523D02*
X108571380Y-127857142D01*
X108571380Y-127857142D02*
X108619000Y-127904761D01*
X108619000Y-127904761D02*
X108666619Y-127999999D01*
X108666619Y-127999999D02*
X108666619Y-128190475D01*
X108666619Y-128190475D02*
X108619000Y-128285713D01*
X108619000Y-126666665D02*
X108666619Y-126571427D01*
X108666619Y-126571427D02*
X108666619Y-126380951D01*
X108666619Y-126380951D02*
X108619000Y-126285713D01*
X108619000Y-126285713D02*
X108523761Y-126238094D01*
X108523761Y-126238094D02*
X108476142Y-126238094D01*
X108476142Y-126238094D02*
X108380904Y-126285713D01*
X108380904Y-126285713D02*
X108333285Y-126380951D01*
X108333285Y-126380951D02*
X108333285Y-126523808D01*
X108333285Y-126523808D02*
X108285666Y-126619046D01*
X108285666Y-126619046D02*
X108190428Y-126666665D01*
X108190428Y-126666665D02*
X108142809Y-126666665D01*
X108142809Y-126666665D02*
X108047571Y-126619046D01*
X108047571Y-126619046D02*
X107999952Y-126523808D01*
X107999952Y-126523808D02*
X107999952Y-126380951D01*
X107999952Y-126380951D02*
X108047571Y-126285713D01*
X108666619Y-125809522D02*
X107999952Y-125809522D01*
X107666619Y-125809522D02*
X107714238Y-125857141D01*
X107714238Y-125857141D02*
X107761857Y-125809522D01*
X107761857Y-125809522D02*
X107714238Y-125761903D01*
X107714238Y-125761903D02*
X107666619Y-125809522D01*
X107666619Y-125809522D02*
X107761857Y-125809522D01*
X108666619Y-124904761D02*
X107666619Y-124904761D01*
X108619000Y-124904761D02*
X108666619Y-124999999D01*
X108666619Y-124999999D02*
X108666619Y-125190475D01*
X108666619Y-125190475D02*
X108619000Y-125285713D01*
X108619000Y-125285713D02*
X108571380Y-125333332D01*
X108571380Y-125333332D02*
X108476142Y-125380951D01*
X108476142Y-125380951D02*
X108190428Y-125380951D01*
X108190428Y-125380951D02*
X108095190Y-125333332D01*
X108095190Y-125333332D02*
X108047571Y-125285713D01*
X108047571Y-125285713D02*
X107999952Y-125190475D01*
X107999952Y-125190475D02*
X107999952Y-124999999D01*
X107999952Y-124999999D02*
X108047571Y-124904761D01*
X108619000Y-124047618D02*
X108666619Y-124142856D01*
X108666619Y-124142856D02*
X108666619Y-124333332D01*
X108666619Y-124333332D02*
X108619000Y-124428570D01*
X108619000Y-124428570D02*
X108523761Y-124476189D01*
X108523761Y-124476189D02*
X108142809Y-124476189D01*
X108142809Y-124476189D02*
X108047571Y-124428570D01*
X108047571Y-124428570D02*
X107999952Y-124333332D01*
X107999952Y-124333332D02*
X107999952Y-124142856D01*
X107999952Y-124142856D02*
X108047571Y-124047618D01*
X108047571Y-124047618D02*
X108142809Y-123999999D01*
X108142809Y-123999999D02*
X108238047Y-123999999D01*
X108238047Y-123999999D02*
X108333285Y-124476189D01*
%TO.C,H4*%
X103505095Y-130901619D02*
X103505095Y-129901619D01*
X103505095Y-130377809D02*
X104076523Y-130377809D01*
X104076523Y-130901619D02*
X104076523Y-129901619D01*
X104981285Y-130234952D02*
X104981285Y-130901619D01*
X104743190Y-129854000D02*
X104505095Y-130568285D01*
X104505095Y-130568285D02*
X105124142Y-130568285D01*
%TO.C,J12*%
X159494619Y-85344523D02*
X160208904Y-85344523D01*
X160208904Y-85344523D02*
X160351761Y-85392142D01*
X160351761Y-85392142D02*
X160447000Y-85487380D01*
X160447000Y-85487380D02*
X160494619Y-85630237D01*
X160494619Y-85630237D02*
X160494619Y-85725475D01*
X160494619Y-84344523D02*
X160494619Y-84915951D01*
X160494619Y-84630237D02*
X159494619Y-84630237D01*
X159494619Y-84630237D02*
X159637476Y-84725475D01*
X159637476Y-84725475D02*
X159732714Y-84820713D01*
X159732714Y-84820713D02*
X159780333Y-84915951D01*
X159589857Y-83963570D02*
X159542238Y-83915951D01*
X159542238Y-83915951D02*
X159494619Y-83820713D01*
X159494619Y-83820713D02*
X159494619Y-83582618D01*
X159494619Y-83582618D02*
X159542238Y-83487380D01*
X159542238Y-83487380D02*
X159589857Y-83439761D01*
X159589857Y-83439761D02*
X159685095Y-83392142D01*
X159685095Y-83392142D02*
X159780333Y-83392142D01*
X159780333Y-83392142D02*
X159923190Y-83439761D01*
X159923190Y-83439761D02*
X160494619Y-84011189D01*
X160494619Y-84011189D02*
X160494619Y-83392142D01*
%TO.C,R1*%
X150582333Y-98887619D02*
X150249000Y-98411428D01*
X150010905Y-98887619D02*
X150010905Y-97887619D01*
X150010905Y-97887619D02*
X150391857Y-97887619D01*
X150391857Y-97887619D02*
X150487095Y-97935238D01*
X150487095Y-97935238D02*
X150534714Y-97982857D01*
X150534714Y-97982857D02*
X150582333Y-98078095D01*
X150582333Y-98078095D02*
X150582333Y-98220952D01*
X150582333Y-98220952D02*
X150534714Y-98316190D01*
X150534714Y-98316190D02*
X150487095Y-98363809D01*
X150487095Y-98363809D02*
X150391857Y-98411428D01*
X150391857Y-98411428D02*
X150010905Y-98411428D01*
X151534714Y-98887619D02*
X150963286Y-98887619D01*
X151249000Y-98887619D02*
X151249000Y-97887619D01*
X151249000Y-97887619D02*
X151153762Y-98030476D01*
X151153762Y-98030476D02*
X151058524Y-98125714D01*
X151058524Y-98125714D02*
X150963286Y-98173333D01*
%TO.C,J7*%
X115871666Y-78539619D02*
X115871666Y-79253904D01*
X115871666Y-79253904D02*
X115824047Y-79396761D01*
X115824047Y-79396761D02*
X115728809Y-79492000D01*
X115728809Y-79492000D02*
X115585952Y-79539619D01*
X115585952Y-79539619D02*
X115490714Y-79539619D01*
X116252619Y-78539619D02*
X116919285Y-78539619D01*
X116919285Y-78539619D02*
X116490714Y-79539619D01*
%TO.C,Q2*%
X151306857Y-101441238D02*
X151259238Y-101536476D01*
X151259238Y-101536476D02*
X151164000Y-101631714D01*
X151164000Y-101631714D02*
X151021142Y-101774571D01*
X151021142Y-101774571D02*
X150973523Y-101869809D01*
X150973523Y-101869809D02*
X150973523Y-101965047D01*
X151211619Y-101917428D02*
X151164000Y-102012666D01*
X151164000Y-102012666D02*
X151068761Y-102107904D01*
X151068761Y-102107904D02*
X150878285Y-102155523D01*
X150878285Y-102155523D02*
X150544952Y-102155523D01*
X150544952Y-102155523D02*
X150354476Y-102107904D01*
X150354476Y-102107904D02*
X150259238Y-102012666D01*
X150259238Y-102012666D02*
X150211619Y-101917428D01*
X150211619Y-101917428D02*
X150211619Y-101726952D01*
X150211619Y-101726952D02*
X150259238Y-101631714D01*
X150259238Y-101631714D02*
X150354476Y-101536476D01*
X150354476Y-101536476D02*
X150544952Y-101488857D01*
X150544952Y-101488857D02*
X150878285Y-101488857D01*
X150878285Y-101488857D02*
X151068761Y-101536476D01*
X151068761Y-101536476D02*
X151164000Y-101631714D01*
X151164000Y-101631714D02*
X151211619Y-101726952D01*
X151211619Y-101726952D02*
X151211619Y-101917428D01*
X150306857Y-101107904D02*
X150259238Y-101060285D01*
X150259238Y-101060285D02*
X150211619Y-100965047D01*
X150211619Y-100965047D02*
X150211619Y-100726952D01*
X150211619Y-100726952D02*
X150259238Y-100631714D01*
X150259238Y-100631714D02*
X150306857Y-100584095D01*
X150306857Y-100584095D02*
X150402095Y-100536476D01*
X150402095Y-100536476D02*
X150497333Y-100536476D01*
X150497333Y-100536476D02*
X150640190Y-100584095D01*
X150640190Y-100584095D02*
X151211619Y-101155523D01*
X151211619Y-101155523D02*
X151211619Y-100536476D01*
%TO.C,J8*%
X103933666Y-127395619D02*
X103933666Y-128109904D01*
X103933666Y-128109904D02*
X103886047Y-128252761D01*
X103886047Y-128252761D02*
X103790809Y-128348000D01*
X103790809Y-128348000D02*
X103647952Y-128395619D01*
X103647952Y-128395619D02*
X103552714Y-128395619D01*
X104552714Y-127824190D02*
X104457476Y-127776571D01*
X104457476Y-127776571D02*
X104409857Y-127728952D01*
X104409857Y-127728952D02*
X104362238Y-127633714D01*
X104362238Y-127633714D02*
X104362238Y-127586095D01*
X104362238Y-127586095D02*
X104409857Y-127490857D01*
X104409857Y-127490857D02*
X104457476Y-127443238D01*
X104457476Y-127443238D02*
X104552714Y-127395619D01*
X104552714Y-127395619D02*
X104743190Y-127395619D01*
X104743190Y-127395619D02*
X104838428Y-127443238D01*
X104838428Y-127443238D02*
X104886047Y-127490857D01*
X104886047Y-127490857D02*
X104933666Y-127586095D01*
X104933666Y-127586095D02*
X104933666Y-127633714D01*
X104933666Y-127633714D02*
X104886047Y-127728952D01*
X104886047Y-127728952D02*
X104838428Y-127776571D01*
X104838428Y-127776571D02*
X104743190Y-127824190D01*
X104743190Y-127824190D02*
X104552714Y-127824190D01*
X104552714Y-127824190D02*
X104457476Y-127871809D01*
X104457476Y-127871809D02*
X104409857Y-127919428D01*
X104409857Y-127919428D02*
X104362238Y-128014666D01*
X104362238Y-128014666D02*
X104362238Y-128205142D01*
X104362238Y-128205142D02*
X104409857Y-128300380D01*
X104409857Y-128300380D02*
X104457476Y-128348000D01*
X104457476Y-128348000D02*
X104552714Y-128395619D01*
X104552714Y-128395619D02*
X104743190Y-128395619D01*
X104743190Y-128395619D02*
X104838428Y-128348000D01*
X104838428Y-128348000D02*
X104886047Y-128300380D01*
X104886047Y-128300380D02*
X104933666Y-128205142D01*
X104933666Y-128205142D02*
X104933666Y-128014666D01*
X104933666Y-128014666D02*
X104886047Y-127919428D01*
X104886047Y-127919428D02*
X104838428Y-127871809D01*
X104838428Y-127871809D02*
X104743190Y-127824190D01*
%TO.C,J3*%
X106600666Y-78549619D02*
X106600666Y-79263904D01*
X106600666Y-79263904D02*
X106553047Y-79406761D01*
X106553047Y-79406761D02*
X106457809Y-79502000D01*
X106457809Y-79502000D02*
X106314952Y-79549619D01*
X106314952Y-79549619D02*
X106219714Y-79549619D01*
X106981619Y-78549619D02*
X107600666Y-78549619D01*
X107600666Y-78549619D02*
X107267333Y-78930571D01*
X107267333Y-78930571D02*
X107410190Y-78930571D01*
X107410190Y-78930571D02*
X107505428Y-78978190D01*
X107505428Y-78978190D02*
X107553047Y-79025809D01*
X107553047Y-79025809D02*
X107600666Y-79121047D01*
X107600666Y-79121047D02*
X107600666Y-79359142D01*
X107600666Y-79359142D02*
X107553047Y-79454380D01*
X107553047Y-79454380D02*
X107505428Y-79502000D01*
X107505428Y-79502000D02*
X107410190Y-79549619D01*
X107410190Y-79549619D02*
X107124476Y-79549619D01*
X107124476Y-79549619D02*
X107029238Y-79502000D01*
X107029238Y-79502000D02*
X106981619Y-79454380D01*
D14*
%TO.C,J16*%
X172907000Y-96961000D02*
X172907000Y-94301000D01*
X167767000Y-96961000D02*
X172907000Y-96961000D01*
X166497000Y-96961000D02*
X165167000Y-96961000D01*
X167767000Y-94301000D02*
X172907000Y-94301000D01*
X165167000Y-96961000D02*
X165167000Y-95631000D01*
X167767000Y-96961000D02*
X167767000Y-94301000D01*
%TO.C,J4*%
X110303000Y-80087000D02*
X111633000Y-80087000D01*
X110303000Y-81417000D02*
X110303000Y-80087000D01*
X110303000Y-82687000D02*
X110303000Y-90367000D01*
X110303000Y-82687000D02*
X112963000Y-82687000D01*
X110303000Y-90367000D02*
X112963000Y-90367000D01*
X112963000Y-82687000D02*
X112963000Y-90367000D01*
%TO.C,U2*%
X156472000Y-70760000D02*
X156472000Y-70490000D01*
X156472000Y-70490000D02*
X159302000Y-70490000D01*
X156472000Y-64130000D02*
X157572000Y-64130000D01*
X156472000Y-63860000D02*
X156472000Y-64130000D01*
X150052000Y-70760000D02*
X156472000Y-70760000D01*
X150052000Y-63860000D02*
X156472000Y-63860000D01*
%TO.C,J9*%
X105597000Y-109153000D02*
X104267000Y-109153000D01*
X105597000Y-107823000D02*
X105597000Y-109153000D01*
X105597000Y-106553000D02*
X105597000Y-93793000D01*
X105597000Y-106553000D02*
X102937000Y-106553000D01*
X105597000Y-93793000D02*
X102937000Y-93793000D01*
X102937000Y-106553000D02*
X102937000Y-93793000D01*
%TO.C,C1*%
X161419000Y-67169420D02*
X161419000Y-67450580D01*
X160399000Y-67169420D02*
X160399000Y-67450580D01*
%TO.C,J11*%
X173295000Y-98862000D02*
X160695000Y-98862000D01*
X160695000Y-98862000D02*
X160695000Y-114262000D01*
X168495000Y-114262000D02*
X168245000Y-114762000D01*
X163095000Y-114262000D02*
X168495000Y-114262000D01*
X161645000Y-114262000D02*
X161345000Y-114762000D01*
X160695000Y-114262000D02*
X161645000Y-114262000D01*
X173295000Y-114762000D02*
X173295000Y-98862000D01*
X168245000Y-114762000D02*
X173295000Y-114762000D01*
X163345000Y-114762000D02*
X163095000Y-114262000D01*
X161345000Y-114762000D02*
X163345000Y-114762000D01*
%TO.C,J21*%
X171891000Y-130750000D02*
X171891000Y-132080000D01*
X170561000Y-130750000D02*
X171891000Y-130750000D01*
X169291000Y-130750000D02*
X164151000Y-130750000D01*
X169291000Y-130750000D02*
X169291000Y-133410000D01*
X164151000Y-130750000D02*
X164151000Y-133410000D01*
X169291000Y-133410000D02*
X164151000Y-133410000D01*
%TO.C,J18*%
X171876000Y-119320000D02*
X171876000Y-120650000D01*
X170546000Y-119320000D02*
X171876000Y-119320000D01*
X169276000Y-119320000D02*
X164136000Y-119320000D01*
X169276000Y-119320000D02*
X169276000Y-121980000D01*
X164136000Y-119320000D02*
X164136000Y-121980000D01*
X169276000Y-121980000D02*
X164136000Y-121980000D01*
%TO.C,J19*%
X171876000Y-123130000D02*
X171876000Y-124460000D01*
X170546000Y-123130000D02*
X171876000Y-123130000D01*
X169276000Y-123130000D02*
X164136000Y-123130000D01*
X169276000Y-123130000D02*
X169276000Y-125790000D01*
X164136000Y-123130000D02*
X164136000Y-125790000D01*
X169276000Y-125790000D02*
X164136000Y-125790000D01*
%TO.C,J15*%
X115884000Y-110811000D02*
X115884000Y-112141000D01*
X114554000Y-110811000D02*
X115884000Y-110811000D01*
X113284000Y-110811000D02*
X110684000Y-110811000D01*
X113284000Y-110811000D02*
X113284000Y-113471000D01*
X110684000Y-110811000D02*
X110684000Y-113471000D01*
X113284000Y-113471000D02*
X110684000Y-113471000D01*
%TO.C,J20*%
X171876000Y-126940000D02*
X171876000Y-128270000D01*
X170546000Y-126940000D02*
X171876000Y-126940000D01*
X169276000Y-126940000D02*
X164136000Y-126940000D01*
X169276000Y-126940000D02*
X169276000Y-129600000D01*
X164136000Y-126940000D02*
X164136000Y-129600000D01*
X169276000Y-129600000D02*
X164136000Y-129600000D01*
%TO.C,J1*%
X108966000Y-64008000D02*
X108966000Y-71628000D01*
X108966000Y-71628000D02*
X119126000Y-71628000D01*
X119126000Y-64008000D02*
X108966000Y-64008000D01*
X119126000Y-70358000D02*
X108966000Y-70358000D01*
X119126000Y-71628000D02*
X119126000Y-64008000D01*
%TO.C,U1*%
X123502000Y-64941000D02*
X123022000Y-64941000D01*
X123502000Y-64941000D02*
X123502000Y-65361000D01*
X123502000Y-67481000D02*
X123502000Y-67901000D01*
X123502000Y-70021000D02*
X123502000Y-70441000D01*
X123502000Y-72561000D02*
X123502000Y-72981000D01*
X123502000Y-75101000D02*
X123502000Y-75521000D01*
X123502000Y-77641000D02*
X123502000Y-78061000D01*
X123502000Y-80181000D02*
X123502000Y-80601000D01*
X123502000Y-82721000D02*
X123502000Y-83141000D01*
X123502000Y-85261000D02*
X123502000Y-85681000D01*
X123502000Y-87801000D02*
X123502000Y-88221000D01*
X123502000Y-90341000D02*
X123502000Y-90761000D01*
X123502000Y-92881000D02*
X123502000Y-93301000D01*
X123502000Y-95421000D02*
X123502000Y-95841000D01*
X123502000Y-97961000D02*
X123502000Y-98381000D01*
X123502000Y-100501000D02*
X123502000Y-100921000D01*
X123502000Y-103041000D02*
X123502000Y-103461000D01*
X123502000Y-105581000D02*
X123502000Y-106001000D01*
X123502000Y-108121000D02*
X123502000Y-108541000D01*
X123502000Y-110661000D02*
X123502000Y-111081000D01*
X123532324Y-62821063D02*
X123022000Y-62821000D01*
X123842000Y-62821063D02*
X123842000Y-62464000D01*
X123842000Y-64941000D02*
X123842000Y-65361000D01*
X123842000Y-67481000D02*
X123842000Y-67901000D01*
X123842000Y-70021000D02*
X123842000Y-70441000D01*
X123842000Y-72561000D02*
X123842000Y-72981000D01*
X123842000Y-75101000D02*
X123842000Y-75521000D01*
X123842000Y-77641000D02*
X123842000Y-78061000D01*
X123842000Y-80181000D02*
X123842000Y-80601000D01*
X123842000Y-82721000D02*
X123842000Y-83141000D01*
X123842000Y-85261000D02*
X123842000Y-85681000D01*
X123842000Y-87801000D02*
X123842000Y-88221000D01*
X123842000Y-90341000D02*
X123842000Y-90761000D01*
X123842000Y-92881000D02*
X123842000Y-93301000D01*
X123842000Y-95421000D02*
X123842000Y-95841000D01*
X123842000Y-97961000D02*
X123842000Y-98381000D01*
X123842000Y-100501000D02*
X123842000Y-100921000D01*
X123842000Y-103041000D02*
X123842000Y-103461000D01*
X123842000Y-105581000D02*
X123842000Y-106001000D01*
X123842000Y-108121000D02*
X123842000Y-108541000D01*
X123842000Y-110661000D02*
X123842000Y-111081000D01*
X123842000Y-113200937D02*
X123842000Y-113558000D01*
X124112000Y-62401000D02*
X126602000Y-62401000D01*
X124112000Y-113621000D02*
X130512000Y-113621000D01*
X126602000Y-62401000D02*
X126602000Y-63314520D01*
X126602000Y-62401000D02*
X129877000Y-62401000D01*
X126602000Y-63314520D02*
X126602000Y-65707480D01*
X126602000Y-65707480D02*
X126602000Y-110314520D01*
X126602000Y-110314520D02*
X126602000Y-112707480D01*
X126602000Y-112707480D02*
X126602000Y-113621000D01*
X129877000Y-62401000D02*
X138347000Y-62401000D01*
X130212000Y-62401000D02*
X130212000Y-63317000D01*
X130212000Y-64695800D02*
X130212000Y-66921000D01*
X130212000Y-66921000D02*
X130508090Y-66921000D01*
X132865910Y-66921000D02*
X135358090Y-66921000D01*
X137712000Y-113621000D02*
X144112000Y-113621000D01*
X137715910Y-66921000D02*
X138012000Y-66921000D01*
X138012000Y-62401000D02*
X138012000Y-63317000D01*
X138012000Y-64695800D02*
X138012000Y-66921000D01*
X138347000Y-62401000D02*
X141622000Y-62401000D01*
X141622000Y-62401000D02*
X141622000Y-63314520D01*
X141622000Y-63314520D02*
X141622000Y-65707480D01*
X141622000Y-65707480D02*
X141622000Y-110314520D01*
X141622000Y-110314520D02*
X141622000Y-112707480D01*
X141622000Y-112707480D02*
X141622000Y-113621000D01*
X144112000Y-62401000D02*
X141622000Y-62401000D01*
X144382000Y-62821063D02*
X144382000Y-62464000D01*
X144382000Y-64941000D02*
X144382000Y-65361000D01*
X144382000Y-67481000D02*
X144382000Y-67901000D01*
X144382000Y-70021000D02*
X144382000Y-70441000D01*
X144382000Y-72561000D02*
X144382000Y-72981000D01*
X144382000Y-75101000D02*
X144382000Y-75521000D01*
X144382000Y-77641000D02*
X144382000Y-78061000D01*
X144382000Y-80181000D02*
X144382000Y-80601000D01*
X144382000Y-82721000D02*
X144382000Y-83141000D01*
X144382000Y-85261000D02*
X144382000Y-85681000D01*
X144382000Y-87801000D02*
X144382000Y-88221000D01*
X144382000Y-90341000D02*
X144382000Y-90761000D01*
X144382000Y-92881000D02*
X144382000Y-93301000D01*
X144382000Y-95421000D02*
X144382000Y-95841000D01*
X144382000Y-97961000D02*
X144382000Y-98381000D01*
X144382000Y-100501000D02*
X144382000Y-100921000D01*
X144382000Y-103041000D02*
X144382000Y-103461000D01*
X144382000Y-105581000D02*
X144382000Y-106001000D01*
X144382000Y-108121000D02*
X144382000Y-108541000D01*
X144382000Y-110661000D02*
X144382000Y-111081000D01*
X144382000Y-113200937D02*
X144382000Y-113558000D01*
X144722000Y-64941000D02*
X144722000Y-65361000D01*
X144722000Y-67481000D02*
X144722000Y-67901000D01*
X144722000Y-70021000D02*
X144722000Y-70441000D01*
X144722000Y-72561000D02*
X144722000Y-72981000D01*
X144722000Y-75101000D02*
X144722000Y-75521000D01*
X144722000Y-77641000D02*
X144722000Y-78061000D01*
X144722000Y-80181000D02*
X144722000Y-80601000D01*
X144722000Y-82721000D02*
X144722000Y-83141000D01*
X144722000Y-85261000D02*
X144722000Y-85681000D01*
X144722000Y-87801000D02*
X144722000Y-88221000D01*
X144722000Y-90341000D02*
X144722000Y-90761000D01*
X144722000Y-92881000D02*
X144722000Y-93301000D01*
X144722000Y-95421000D02*
X144722000Y-95841000D01*
X144722000Y-97961000D02*
X144722000Y-98381000D01*
X144722000Y-100501000D02*
X144722000Y-100921000D01*
X144722000Y-103041000D02*
X144722000Y-103461000D01*
X144722000Y-105581000D02*
X144722000Y-106001000D01*
X144722000Y-108121000D02*
X144722000Y-108541000D01*
X144722000Y-110661000D02*
X144722000Y-111081000D01*
X124112000Y-62401000D02*
G75*
G03*
X123532324Y-62821063I0J-610000D01*
G01*
X144691676Y-62821063D02*
G75*
G03*
X144112000Y-62401000I-579676J-189937D01*
G01*
X129352000Y-64511000D02*
G75*
G03*
X129352000Y-64511000I-940000J0D01*
G01*
X129352000Y-111511000D02*
G75*
G03*
X129352000Y-111511000I-940000J0D01*
G01*
X140752000Y-64511000D02*
G75*
G03*
X140752000Y-64511000I-940000J0D01*
G01*
X140752000Y-111511000D02*
G75*
G03*
X140752000Y-111511000I-940000J0D01*
G01*
%TO.C,R2*%
X156859500Y-100219742D02*
X156859500Y-100694258D01*
X155814500Y-100219742D02*
X155814500Y-100694258D01*
%TO.C,D1*%
X151671000Y-104057000D02*
X158971000Y-104057000D01*
X151671000Y-109557000D02*
X158971000Y-109557000D01*
X158971000Y-109557000D02*
X158971000Y-108407000D01*
%TO.C,J13*%
X163890000Y-94301000D02*
X163890000Y-95631000D01*
X162560000Y-94301000D02*
X163890000Y-94301000D01*
X161290000Y-94301000D02*
X156150000Y-94301000D01*
X161290000Y-94301000D02*
X161290000Y-96961000D01*
X156150000Y-94301000D02*
X156150000Y-96961000D01*
X161290000Y-96961000D02*
X156150000Y-96961000D01*
%TO.C,J2*%
X101032000Y-80087000D02*
X102362000Y-80087000D01*
X101032000Y-81417000D02*
X101032000Y-80087000D01*
X101032000Y-82687000D02*
X101032000Y-90367000D01*
X101032000Y-82687000D02*
X103692000Y-82687000D01*
X101032000Y-90367000D02*
X103692000Y-90367000D01*
X103692000Y-82687000D02*
X103692000Y-90367000D01*
%TO.C,C2*%
X150849420Y-72134000D02*
X151130580Y-72134000D01*
X150849420Y-73154000D02*
X151130580Y-73154000D01*
%TO.C,R3*%
X153526258Y-91962500D02*
X153051742Y-91962500D01*
X153526258Y-90917500D02*
X153051742Y-90917500D01*
%TO.C,Q1*%
X149815000Y-95140000D02*
X151225000Y-95140000D01*
X151225000Y-92820000D02*
X149195000Y-92820000D01*
X151225000Y-92820000D02*
X151225000Y-93480000D01*
X151225000Y-94480000D02*
X151225000Y-95140000D01*
%TO.C,J10*%
X104708000Y-74218000D02*
X103378000Y-74218000D01*
X104708000Y-72888000D02*
X104708000Y-74218000D01*
X104708000Y-71618000D02*
X104708000Y-63938000D01*
X104708000Y-71618000D02*
X102048000Y-71618000D01*
X104708000Y-63938000D02*
X102048000Y-63938000D01*
X102048000Y-71618000D02*
X102048000Y-63938000D01*
%TO.C,SW2*%
X109784000Y-99834000D02*
X109784000Y-101334000D01*
X111034000Y-103834000D02*
X115534000Y-103834000D01*
X115534000Y-97334000D02*
X111034000Y-97334000D01*
X116784000Y-101334000D02*
X116784000Y-99834000D01*
%TO.C,R4*%
X156732500Y-91837742D02*
X156732500Y-92312258D01*
X155687500Y-91837742D02*
X155687500Y-92312258D01*
%TO.C,D2*%
X158934000Y-87585000D02*
X151634000Y-87585000D01*
X158934000Y-82085000D02*
X151634000Y-82085000D01*
X151634000Y-82085000D02*
X151634000Y-83235000D01*
%TO.C,J6*%
X152718999Y-127536863D02*
X152718999Y-128866863D01*
X151388999Y-127536863D02*
X152718999Y-127536863D01*
X150118999Y-127536863D02*
X109418999Y-127536863D01*
X150118999Y-127536863D02*
X150118999Y-130136863D01*
X109418999Y-127536863D02*
X109418999Y-132736863D01*
X152718999Y-130136863D02*
X152718999Y-132736863D01*
X150118999Y-130136863D02*
X152718999Y-130136863D01*
X152718999Y-132736863D02*
X109418999Y-132736863D01*
%TO.C,J12*%
X160832000Y-92185000D02*
X173432000Y-92185000D01*
X173432000Y-92185000D02*
X173432000Y-76785000D01*
X165632000Y-76785000D02*
X165882000Y-76285000D01*
X171032000Y-76785000D02*
X165632000Y-76785000D01*
X172482000Y-76785000D02*
X172782000Y-76285000D01*
X173432000Y-76785000D02*
X172482000Y-76785000D01*
X160832000Y-76285000D02*
X160832000Y-92185000D01*
X165882000Y-76285000D02*
X160832000Y-76285000D01*
X170782000Y-76285000D02*
X171032000Y-76785000D01*
X172782000Y-76285000D02*
X170782000Y-76285000D01*
%TO.C,R1*%
X153399258Y-98947500D02*
X152924742Y-98947500D01*
X153399258Y-97902500D02*
X152924742Y-97902500D01*
%TO.C,J7*%
X114875000Y-80077000D02*
X116205000Y-80077000D01*
X114875000Y-81407000D02*
X114875000Y-80077000D01*
X114875000Y-82677000D02*
X114875000Y-90357000D01*
X114875000Y-82677000D02*
X117535000Y-82677000D01*
X114875000Y-90357000D02*
X117535000Y-90357000D01*
X117535000Y-82677000D02*
X117535000Y-90357000D01*
%TO.C,Q2*%
X152609000Y-102506000D02*
X154019000Y-102506000D01*
X154019000Y-100186000D02*
X151989000Y-100186000D01*
X154019000Y-100186000D02*
X154019000Y-100846000D01*
X154019000Y-101846000D02*
X154019000Y-102506000D01*
%TO.C,J17*%
X171876000Y-115510000D02*
X171876000Y-116840000D01*
X170546000Y-115510000D02*
X171876000Y-115510000D01*
X169276000Y-115510000D02*
X164136000Y-115510000D01*
X169276000Y-115510000D02*
X169276000Y-118170000D01*
X164136000Y-115510000D02*
X164136000Y-118170000D01*
X169276000Y-118170000D02*
X164136000Y-118170000D01*
%TO.C,J22*%
X171876000Y-134560000D02*
X171876000Y-135890000D01*
X170546000Y-134560000D02*
X171876000Y-134560000D01*
X169276000Y-134560000D02*
X164136000Y-134560000D01*
X169276000Y-134560000D02*
X169276000Y-137220000D01*
X164136000Y-134560000D02*
X164136000Y-137220000D01*
X169276000Y-137220000D02*
X164136000Y-137220000D01*
%TO.C,J8*%
X105597000Y-126933000D02*
X104267000Y-126933000D01*
X105597000Y-125603000D02*
X105597000Y-126933000D01*
X105597000Y-124333000D02*
X105597000Y-111573000D01*
X105597000Y-124333000D02*
X102937000Y-124333000D01*
X105597000Y-111573000D02*
X102937000Y-111573000D01*
X102937000Y-124333000D02*
X102937000Y-111573000D01*
%TO.C,J3*%
X105604000Y-80087000D02*
X106934000Y-80087000D01*
X105604000Y-81417000D02*
X105604000Y-80087000D01*
X105604000Y-82687000D02*
X105604000Y-90367000D01*
X105604000Y-82687000D02*
X108264000Y-82687000D01*
X105604000Y-90367000D02*
X108264000Y-90367000D01*
X108264000Y-82687000D02*
X108264000Y-90367000D01*
%TD*%
M02*
